%TF.GenerationSoftware,KiCad,Pcbnew,9.0.2*%
%TF.CreationDate,2025-06-30T11:24:57-04:00*%
%TF.ProjectId,magi_controller,6d616769-5f63-46f6-9e74-726f6c6c6572,rev?*%
%TF.SameCoordinates,Original*%
%TF.FileFunction,Drillmap*%
%TF.FilePolarity,Positive*%
%FSLAX45Y45*%
G04 Gerber Fmt 4.5, Leading zero omitted, Abs format (unit mm)*
G04 Created by KiCad (PCBNEW 9.0.2) date 2025-06-30 11:24:57*
%MOMM*%
%LPD*%
G01*
G04 APERTURE LIST*
%ADD10C,0.050000*%
%ADD11C,0.200000*%
%ADD12C,0.100000*%
%ADD13C,0.121000*%
%ADD14C,0.150000*%
G04 APERTURE END LIST*
D10*
X20841000Y-9077264D02*
G75*
G02*
X20928866Y-8865130I300000J4D01*
G01*
X20841000Y-12658000D02*
G75*
G02*
X20541000Y-12958000I-300000J0D01*
G01*
X17741000Y-6949000D02*
G75*
G02*
X17441000Y-7249000I-300000J0D01*
G01*
X21155000Y-8514736D02*
G75*
G02*
X21067134Y-8726870I-300000J-4D01*
G01*
X17122000Y-12958000D02*
G75*
G02*
X16822000Y-12658000I0J300000D01*
G01*
X16734132Y-8825132D02*
G75*
G02*
X16821997Y-9037264I-212132J-212128D01*
G01*
X16635868Y-5092868D02*
G75*
G02*
X16548003Y-4880736I212132J212128D01*
G01*
X17653132Y-6110132D02*
G75*
G02*
X17740997Y-6322264I-212132J-212128D01*
G01*
X16548000Y-4397264D02*
G75*
G02*
X16635866Y-4185130I300000J4D01*
G01*
X16548000Y-7549000D02*
G75*
G02*
X16848000Y-7249000I300000J0D01*
G01*
X16635868Y-8726868D02*
G75*
G02*
X16548003Y-8514736I212132J212128D01*
G01*
X20855000Y-3451000D02*
G75*
G02*
X21155000Y-3751000I0J-300000D01*
G01*
X17282132Y-3538868D02*
G75*
G02*
X17494264Y-3451003I212128J-212132D01*
G01*
X20855000Y-3451000D02*
X17494264Y-3451000D01*
X17282132Y-3538868D02*
X16635868Y-4185132D01*
X16635868Y-5092868D02*
X17653132Y-6110132D01*
X16822000Y-9037264D02*
X16822000Y-12658000D01*
X16635868Y-8726868D02*
X16734132Y-8825132D01*
X21155000Y-3751000D02*
X21155000Y-8514736D01*
X17741000Y-6322264D02*
X17741000Y-6949000D01*
X17122000Y-12958000D02*
X20541000Y-12958000D01*
X20841000Y-12658000D02*
X20841000Y-9077264D01*
X17441000Y-7249000D02*
X16848000Y-7249000D01*
X16548000Y-4397264D02*
X16548000Y-4880736D01*
X21067132Y-8726868D02*
X20928868Y-8865132D01*
X16548000Y-7549000D02*
X16548000Y-8514736D01*
D11*
D12*
X17759874Y-7336176D02*
X17789874Y-7366176D01*
X17789874Y-7336176D02*
X17759874Y-7366176D01*
X17905000Y-7125000D02*
X17935000Y-7155000D01*
X17935000Y-7125000D02*
X17905000Y-7155000D01*
X17935000Y-7685000D02*
X17965000Y-7715000D01*
X17965000Y-7685000D02*
X17935000Y-7715000D01*
X18285000Y-7335000D02*
X18315000Y-7365000D01*
X18315000Y-7335000D02*
X18285000Y-7365000D01*
X18335000Y-8285000D02*
X18365000Y-8315000D01*
X18365000Y-8285000D02*
X18335000Y-8315000D01*
X18341574Y-5800573D02*
X18371574Y-5830573D01*
X18371574Y-5800573D02*
X18341574Y-5830573D01*
X18419037Y-5780586D02*
X18449037Y-5810586D01*
X18449037Y-5780586D02*
X18419037Y-5810586D01*
X18430000Y-8389000D02*
X18460000Y-8419000D01*
X18460000Y-8389000D02*
X18430000Y-8419000D01*
X18468004Y-5843849D02*
X18498004Y-5873849D01*
X18498004Y-5843849D02*
X18468004Y-5873849D01*
X18543000Y-5816000D02*
X18573000Y-5846000D01*
X18573000Y-5816000D02*
X18543000Y-5846000D01*
X18761975Y-6053787D02*
X18791975Y-6083787D01*
X18791975Y-6053787D02*
X18761975Y-6083787D01*
X18910000Y-5907000D02*
X18940000Y-5937000D01*
X18940000Y-5907000D02*
X18910000Y-5937000D01*
X19145000Y-5985000D02*
X19175000Y-6015000D01*
X19175000Y-5985000D02*
X19145000Y-6015000D01*
X19225000Y-5985000D02*
X19255000Y-6015000D01*
X19255000Y-5985000D02*
X19225000Y-6015000D01*
X19241000Y-8195000D02*
X19271000Y-8225000D01*
X19271000Y-8195000D02*
X19241000Y-8225000D01*
X19241000Y-8376000D02*
X19271000Y-8406000D01*
X19271000Y-8376000D02*
X19241000Y-8406000D01*
X19335000Y-8285000D02*
X19365000Y-8315000D01*
X19365000Y-8285000D02*
X19335000Y-8315000D01*
X19385000Y-7335000D02*
X19415000Y-7365000D01*
X19415000Y-7335000D02*
X19385000Y-7365000D01*
X19475243Y-7329610D02*
X19505243Y-7359610D01*
X19505243Y-7329610D02*
X19475243Y-7359610D01*
X19535000Y-7085000D02*
X19565000Y-7115000D01*
X19565000Y-7085000D02*
X19535000Y-7115000D01*
X19586000Y-7684000D02*
X19616000Y-7714000D01*
X19616000Y-7684000D02*
X19586000Y-7714000D01*
X19619927Y-7334926D02*
X19649927Y-7364926D01*
X19649927Y-7334926D02*
X19619927Y-7364926D01*
X19735000Y-7685000D02*
X19765000Y-7715000D01*
X19765000Y-7685000D02*
X19735000Y-7715000D01*
X19785000Y-7085000D02*
X19815000Y-7115000D01*
X19815000Y-7085000D02*
X19785000Y-7115000D01*
X19840574Y-7224426D02*
X19870574Y-7254426D01*
X19870574Y-7224426D02*
X19840574Y-7254426D01*
X19845000Y-6735000D02*
X19875000Y-6765000D01*
X19875000Y-6735000D02*
X19845000Y-6765000D01*
X19923427Y-7137573D02*
X19953427Y-7167573D01*
X19953427Y-7137573D02*
X19923427Y-7167573D01*
X19928427Y-6626426D02*
X19958427Y-6656426D01*
X19958427Y-6626426D02*
X19928427Y-6656426D01*
X19932000Y-6453000D02*
X19962000Y-6483000D01*
X19962000Y-6453000D02*
X19932000Y-6483000D01*
X20022000Y-7321000D02*
X20052000Y-7351000D01*
X20052000Y-7321000D02*
X20022000Y-7351000D01*
X16835000Y-7650000D02*
G75*
G02*
X16765000Y-7650000I-35000J0D01*
G01*
X16765000Y-7650000D02*
G75*
G02*
X16835000Y-7650000I35000J0D01*
G01*
X16835000Y-8158000D02*
G75*
G02*
X16765000Y-8158000I-35000J0D01*
G01*
X16765000Y-8158000D02*
G75*
G02*
X16835000Y-8158000I35000J0D01*
G01*
X18625129Y-6327000D02*
G75*
G02*
X18555129Y-6327000I-35000J0D01*
G01*
X18555129Y-6327000D02*
G75*
G02*
X18625129Y-6327000I35000J0D01*
G01*
X19133129Y-6327000D02*
G75*
G02*
X19063129Y-6327000I-35000J0D01*
G01*
X19063129Y-6327000D02*
G75*
G02*
X19133129Y-6327000I35000J0D01*
G01*
X20351000Y-6401000D02*
G75*
G02*
X20281000Y-6401000I-35000J0D01*
G01*
X20281000Y-6401000D02*
G75*
G02*
X20351000Y-6401000I35000J0D01*
G01*
X20351000Y-6909000D02*
G75*
G02*
X20281000Y-6909000I-35000J0D01*
G01*
X20281000Y-6909000D02*
G75*
G02*
X20351000Y-6909000I35000J0D01*
G01*
X20935000Y-7646000D02*
G75*
G02*
X20865000Y-7646000I-35000J0D01*
G01*
X20865000Y-7646000D02*
G75*
G02*
X20935000Y-7646000I35000J0D01*
G01*
X20935000Y-8154000D02*
G75*
G02*
X20865000Y-8154000I-35000J0D01*
G01*
X20865000Y-8154000D02*
G75*
G02*
X20935000Y-8154000I35000J0D01*
G01*
X19120000Y-3995550D02*
X19120000Y-4084450D01*
X19075550Y-4040000D02*
X19164450Y-4040000D01*
X19120000Y-4249550D02*
X19120000Y-4338450D01*
X19075550Y-4294000D02*
X19164450Y-4294000D01*
X19120000Y-4503550D02*
X19120000Y-4592450D01*
X19075550Y-4548000D02*
X19164450Y-4548000D01*
X19120000Y-4757550D02*
X19120000Y-4846450D01*
X19075550Y-4802000D02*
X19164450Y-4802000D01*
X19120000Y-5011550D02*
X19120000Y-5100450D01*
X19075550Y-5056000D02*
X19164450Y-5056000D01*
X19120000Y-5265550D02*
X19120000Y-5354450D01*
X19075550Y-5310000D02*
X19164450Y-5310000D01*
X19120000Y-5519550D02*
X19120000Y-5608450D01*
X19075550Y-5564000D02*
X19164450Y-5564000D01*
X20644000Y-3995550D02*
X20644000Y-4084450D01*
X20599550Y-4040000D02*
X20688450Y-4040000D01*
X20644000Y-4249550D02*
X20644000Y-4338450D01*
X20599550Y-4294000D02*
X20688450Y-4294000D01*
X20644000Y-4503550D02*
X20644000Y-4592450D01*
X20599550Y-4548000D02*
X20688450Y-4548000D01*
X20644000Y-4757550D02*
X20644000Y-4846450D01*
X20599550Y-4802000D02*
X20688450Y-4802000D01*
X20644000Y-5011550D02*
X20644000Y-5100450D01*
X20599550Y-5056000D02*
X20688450Y-5056000D01*
X20644000Y-5265550D02*
X20644000Y-5354450D01*
X20599550Y-5310000D02*
X20688450Y-5310000D01*
X20644000Y-5519550D02*
X20644000Y-5608450D01*
X20599550Y-5564000D02*
X20688450Y-5564000D01*
D13*
X17388780Y-7842780D02*
X17388780Y-7757220D01*
X17303220Y-7757220D01*
X17303220Y-7842780D01*
X17388780Y-7842780D01*
X17642780Y-7842780D02*
X17642780Y-7757220D01*
X17557220Y-7757220D01*
X17557220Y-7842780D01*
X17642780Y-7842780D01*
X18886910Y-6665780D02*
X18886910Y-6580220D01*
X18801349Y-6580220D01*
X18801349Y-6665780D01*
X18886910Y-6665780D01*
X18886910Y-6919780D02*
X18886910Y-6834220D01*
X18801349Y-6834220D01*
X18801349Y-6919780D01*
X18886910Y-6919780D01*
X20138780Y-7842780D02*
X20138780Y-7757220D01*
X20053220Y-7757220D01*
X20053220Y-7842780D01*
X20138780Y-7842780D01*
X20392780Y-7842780D02*
X20392780Y-7757220D01*
X20307220Y-7757220D01*
X20307220Y-7842780D01*
X20392780Y-7842780D01*
X20624780Y-6703067D02*
X20624780Y-6617507D01*
X20539220Y-6617507D01*
X20539220Y-6703067D01*
X20624780Y-6703067D01*
X20878780Y-6703067D02*
X20878780Y-6617507D01*
X20793220Y-6617507D01*
X20793220Y-6703067D01*
X20878780Y-6703067D01*
D14*
X17456000Y-9754000D02*
X17531000Y-9679000D01*
X17456000Y-9604000D01*
X17381000Y-9679000D01*
X17456000Y-9754000D01*
X17456000Y-11754000D02*
X17531000Y-11679000D01*
X17456000Y-11604000D01*
X17381000Y-11679000D01*
X17456000Y-11754000D01*
X18091000Y-9500000D02*
X18166000Y-9425000D01*
X18091000Y-9350000D01*
X18016000Y-9425000D01*
X18091000Y-9500000D01*
X18091000Y-11500000D02*
X18166000Y-11425000D01*
X18091000Y-11350000D01*
X18016000Y-11425000D01*
X18091000Y-11500000D01*
X19441000Y-9750000D02*
X19516000Y-9675000D01*
X19441000Y-9600000D01*
X19366000Y-9675000D01*
X19441000Y-9750000D01*
X19441000Y-11750000D02*
X19516000Y-11675000D01*
X19441000Y-11600000D01*
X19366000Y-11675000D01*
X19441000Y-11750000D01*
X20076000Y-9496000D02*
X20151000Y-9421000D01*
X20076000Y-9346000D01*
X20001000Y-9421000D01*
X20076000Y-9496000D01*
X20076000Y-11496000D02*
X20151000Y-11421000D01*
X20076000Y-11346000D01*
X20001000Y-11421000D01*
X20076000Y-11496000D01*
D11*
X16806277Y-13271984D02*
X16806277Y-13071984D01*
X16806277Y-13071984D02*
X16853896Y-13071984D01*
X16853896Y-13071984D02*
X16882467Y-13081508D01*
X16882467Y-13081508D02*
X16901515Y-13100555D01*
X16901515Y-13100555D02*
X16911039Y-13119603D01*
X16911039Y-13119603D02*
X16920563Y-13157698D01*
X16920563Y-13157698D02*
X16920563Y-13186269D01*
X16920563Y-13186269D02*
X16911039Y-13224365D01*
X16911039Y-13224365D02*
X16901515Y-13243412D01*
X16901515Y-13243412D02*
X16882467Y-13262460D01*
X16882467Y-13262460D02*
X16853896Y-13271984D01*
X16853896Y-13271984D02*
X16806277Y-13271984D01*
X17006277Y-13271984D02*
X17006277Y-13138650D01*
X17006277Y-13176746D02*
X17015801Y-13157698D01*
X17015801Y-13157698D02*
X17025324Y-13148174D01*
X17025324Y-13148174D02*
X17044372Y-13138650D01*
X17044372Y-13138650D02*
X17063420Y-13138650D01*
X17130086Y-13271984D02*
X17130086Y-13138650D01*
X17130086Y-13071984D02*
X17120563Y-13081508D01*
X17120563Y-13081508D02*
X17130086Y-13091031D01*
X17130086Y-13091031D02*
X17139610Y-13081508D01*
X17139610Y-13081508D02*
X17130086Y-13071984D01*
X17130086Y-13071984D02*
X17130086Y-13091031D01*
X17253896Y-13271984D02*
X17234848Y-13262460D01*
X17234848Y-13262460D02*
X17225324Y-13243412D01*
X17225324Y-13243412D02*
X17225324Y-13071984D01*
X17358658Y-13271984D02*
X17339610Y-13262460D01*
X17339610Y-13262460D02*
X17330086Y-13243412D01*
X17330086Y-13243412D02*
X17330086Y-13071984D01*
X17587229Y-13271984D02*
X17587229Y-13071984D01*
X17587229Y-13071984D02*
X17653896Y-13214841D01*
X17653896Y-13214841D02*
X17720563Y-13071984D01*
X17720563Y-13071984D02*
X17720563Y-13271984D01*
X17901515Y-13271984D02*
X17901515Y-13167222D01*
X17901515Y-13167222D02*
X17891991Y-13148174D01*
X17891991Y-13148174D02*
X17872944Y-13138650D01*
X17872944Y-13138650D02*
X17834848Y-13138650D01*
X17834848Y-13138650D02*
X17815801Y-13148174D01*
X17901515Y-13262460D02*
X17882467Y-13271984D01*
X17882467Y-13271984D02*
X17834848Y-13271984D01*
X17834848Y-13271984D02*
X17815801Y-13262460D01*
X17815801Y-13262460D02*
X17806277Y-13243412D01*
X17806277Y-13243412D02*
X17806277Y-13224365D01*
X17806277Y-13224365D02*
X17815801Y-13205317D01*
X17815801Y-13205317D02*
X17834848Y-13195793D01*
X17834848Y-13195793D02*
X17882467Y-13195793D01*
X17882467Y-13195793D02*
X17901515Y-13186269D01*
X17996753Y-13138650D02*
X17996753Y-13338650D01*
X17996753Y-13148174D02*
X18015801Y-13138650D01*
X18015801Y-13138650D02*
X18053896Y-13138650D01*
X18053896Y-13138650D02*
X18072944Y-13148174D01*
X18072944Y-13148174D02*
X18082467Y-13157698D01*
X18082467Y-13157698D02*
X18091991Y-13176746D01*
X18091991Y-13176746D02*
X18091991Y-13233888D01*
X18091991Y-13233888D02*
X18082467Y-13252936D01*
X18082467Y-13252936D02*
X18072944Y-13262460D01*
X18072944Y-13262460D02*
X18053896Y-13271984D01*
X18053896Y-13271984D02*
X18015801Y-13271984D01*
X18015801Y-13271984D02*
X17996753Y-13262460D01*
X18177705Y-13252936D02*
X18187229Y-13262460D01*
X18187229Y-13262460D02*
X18177705Y-13271984D01*
X18177705Y-13271984D02*
X18168182Y-13262460D01*
X18168182Y-13262460D02*
X18177705Y-13252936D01*
X18177705Y-13252936D02*
X18177705Y-13271984D01*
X18177705Y-13148174D02*
X18187229Y-13157698D01*
X18187229Y-13157698D02*
X18177705Y-13167222D01*
X18177705Y-13167222D02*
X18168182Y-13157698D01*
X18168182Y-13157698D02*
X18177705Y-13148174D01*
X18177705Y-13148174D02*
X18177705Y-13167222D01*
D12*
X16515500Y-13585500D02*
X16545500Y-13615500D01*
X16545500Y-13585500D02*
X16515500Y-13615500D01*
D11*
X16844372Y-13491984D02*
X16863420Y-13491984D01*
X16863420Y-13491984D02*
X16882467Y-13501508D01*
X16882467Y-13501508D02*
X16891991Y-13511031D01*
X16891991Y-13511031D02*
X16901515Y-13530079D01*
X16901515Y-13530079D02*
X16911039Y-13568174D01*
X16911039Y-13568174D02*
X16911039Y-13615793D01*
X16911039Y-13615793D02*
X16901515Y-13653888D01*
X16901515Y-13653888D02*
X16891991Y-13672936D01*
X16891991Y-13672936D02*
X16882467Y-13682460D01*
X16882467Y-13682460D02*
X16863420Y-13691984D01*
X16863420Y-13691984D02*
X16844372Y-13691984D01*
X16844372Y-13691984D02*
X16825324Y-13682460D01*
X16825324Y-13682460D02*
X16815801Y-13672936D01*
X16815801Y-13672936D02*
X16806277Y-13653888D01*
X16806277Y-13653888D02*
X16796753Y-13615793D01*
X16796753Y-13615793D02*
X16796753Y-13568174D01*
X16796753Y-13568174D02*
X16806277Y-13530079D01*
X16806277Y-13530079D02*
X16815801Y-13511031D01*
X16815801Y-13511031D02*
X16825324Y-13501508D01*
X16825324Y-13501508D02*
X16844372Y-13491984D01*
X16996753Y-13672936D02*
X17006277Y-13682460D01*
X17006277Y-13682460D02*
X16996753Y-13691984D01*
X16996753Y-13691984D02*
X16987229Y-13682460D01*
X16987229Y-13682460D02*
X16996753Y-13672936D01*
X16996753Y-13672936D02*
X16996753Y-13691984D01*
X17072944Y-13491984D02*
X17196753Y-13491984D01*
X17196753Y-13491984D02*
X17130086Y-13568174D01*
X17130086Y-13568174D02*
X17158658Y-13568174D01*
X17158658Y-13568174D02*
X17177705Y-13577698D01*
X17177705Y-13577698D02*
X17187229Y-13587222D01*
X17187229Y-13587222D02*
X17196753Y-13606269D01*
X17196753Y-13606269D02*
X17196753Y-13653888D01*
X17196753Y-13653888D02*
X17187229Y-13672936D01*
X17187229Y-13672936D02*
X17177705Y-13682460D01*
X17177705Y-13682460D02*
X17158658Y-13691984D01*
X17158658Y-13691984D02*
X17101515Y-13691984D01*
X17101515Y-13691984D02*
X17082467Y-13682460D01*
X17082467Y-13682460D02*
X17072944Y-13672936D01*
X17320563Y-13491984D02*
X17339610Y-13491984D01*
X17339610Y-13491984D02*
X17358658Y-13501508D01*
X17358658Y-13501508D02*
X17368182Y-13511031D01*
X17368182Y-13511031D02*
X17377705Y-13530079D01*
X17377705Y-13530079D02*
X17387229Y-13568174D01*
X17387229Y-13568174D02*
X17387229Y-13615793D01*
X17387229Y-13615793D02*
X17377705Y-13653888D01*
X17377705Y-13653888D02*
X17368182Y-13672936D01*
X17368182Y-13672936D02*
X17358658Y-13682460D01*
X17358658Y-13682460D02*
X17339610Y-13691984D01*
X17339610Y-13691984D02*
X17320563Y-13691984D01*
X17320563Y-13691984D02*
X17301515Y-13682460D01*
X17301515Y-13682460D02*
X17291991Y-13672936D01*
X17291991Y-13672936D02*
X17282467Y-13653888D01*
X17282467Y-13653888D02*
X17272944Y-13615793D01*
X17272944Y-13615793D02*
X17272944Y-13568174D01*
X17272944Y-13568174D02*
X17282467Y-13530079D01*
X17282467Y-13530079D02*
X17291991Y-13511031D01*
X17291991Y-13511031D02*
X17301515Y-13501508D01*
X17301515Y-13501508D02*
X17320563Y-13491984D01*
X17511039Y-13491984D02*
X17530086Y-13491984D01*
X17530086Y-13491984D02*
X17549134Y-13501508D01*
X17549134Y-13501508D02*
X17558658Y-13511031D01*
X17558658Y-13511031D02*
X17568182Y-13530079D01*
X17568182Y-13530079D02*
X17577705Y-13568174D01*
X17577705Y-13568174D02*
X17577705Y-13615793D01*
X17577705Y-13615793D02*
X17568182Y-13653888D01*
X17568182Y-13653888D02*
X17558658Y-13672936D01*
X17558658Y-13672936D02*
X17549134Y-13682460D01*
X17549134Y-13682460D02*
X17530086Y-13691984D01*
X17530086Y-13691984D02*
X17511039Y-13691984D01*
X17511039Y-13691984D02*
X17491991Y-13682460D01*
X17491991Y-13682460D02*
X17482467Y-13672936D01*
X17482467Y-13672936D02*
X17472944Y-13653888D01*
X17472944Y-13653888D02*
X17463420Y-13615793D01*
X17463420Y-13615793D02*
X17463420Y-13568174D01*
X17463420Y-13568174D02*
X17472944Y-13530079D01*
X17472944Y-13530079D02*
X17482467Y-13511031D01*
X17482467Y-13511031D02*
X17491991Y-13501508D01*
X17491991Y-13501508D02*
X17511039Y-13491984D01*
X17663420Y-13691984D02*
X17663420Y-13558650D01*
X17663420Y-13577698D02*
X17672944Y-13568174D01*
X17672944Y-13568174D02*
X17691991Y-13558650D01*
X17691991Y-13558650D02*
X17720563Y-13558650D01*
X17720563Y-13558650D02*
X17739610Y-13568174D01*
X17739610Y-13568174D02*
X17749134Y-13587222D01*
X17749134Y-13587222D02*
X17749134Y-13691984D01*
X17749134Y-13587222D02*
X17758658Y-13568174D01*
X17758658Y-13568174D02*
X17777705Y-13558650D01*
X17777705Y-13558650D02*
X17806277Y-13558650D01*
X17806277Y-13558650D02*
X17825325Y-13568174D01*
X17825325Y-13568174D02*
X17834848Y-13587222D01*
X17834848Y-13587222D02*
X17834848Y-13691984D01*
X17930086Y-13691984D02*
X17930086Y-13558650D01*
X17930086Y-13577698D02*
X17939610Y-13568174D01*
X17939610Y-13568174D02*
X17958658Y-13558650D01*
X17958658Y-13558650D02*
X17987229Y-13558650D01*
X17987229Y-13558650D02*
X18006277Y-13568174D01*
X18006277Y-13568174D02*
X18015801Y-13587222D01*
X18015801Y-13587222D02*
X18015801Y-13691984D01*
X18015801Y-13587222D02*
X18025325Y-13568174D01*
X18025325Y-13568174D02*
X18044372Y-13558650D01*
X18044372Y-13558650D02*
X18072944Y-13558650D01*
X18072944Y-13558650D02*
X18091991Y-13568174D01*
X18091991Y-13568174D02*
X18101515Y-13587222D01*
X18101515Y-13587222D02*
X18101515Y-13691984D01*
X18491991Y-13482460D02*
X18320563Y-13739603D01*
X18749134Y-13491984D02*
X18768182Y-13491984D01*
X18768182Y-13491984D02*
X18787229Y-13501508D01*
X18787229Y-13501508D02*
X18796753Y-13511031D01*
X18796753Y-13511031D02*
X18806277Y-13530079D01*
X18806277Y-13530079D02*
X18815801Y-13568174D01*
X18815801Y-13568174D02*
X18815801Y-13615793D01*
X18815801Y-13615793D02*
X18806277Y-13653888D01*
X18806277Y-13653888D02*
X18796753Y-13672936D01*
X18796753Y-13672936D02*
X18787229Y-13682460D01*
X18787229Y-13682460D02*
X18768182Y-13691984D01*
X18768182Y-13691984D02*
X18749134Y-13691984D01*
X18749134Y-13691984D02*
X18730087Y-13682460D01*
X18730087Y-13682460D02*
X18720563Y-13672936D01*
X18720563Y-13672936D02*
X18711039Y-13653888D01*
X18711039Y-13653888D02*
X18701515Y-13615793D01*
X18701515Y-13615793D02*
X18701515Y-13568174D01*
X18701515Y-13568174D02*
X18711039Y-13530079D01*
X18711039Y-13530079D02*
X18720563Y-13511031D01*
X18720563Y-13511031D02*
X18730087Y-13501508D01*
X18730087Y-13501508D02*
X18749134Y-13491984D01*
X18901515Y-13672936D02*
X18911039Y-13682460D01*
X18911039Y-13682460D02*
X18901515Y-13691984D01*
X18901515Y-13691984D02*
X18891991Y-13682460D01*
X18891991Y-13682460D02*
X18901515Y-13672936D01*
X18901515Y-13672936D02*
X18901515Y-13691984D01*
X19034848Y-13491984D02*
X19053896Y-13491984D01*
X19053896Y-13491984D02*
X19072944Y-13501508D01*
X19072944Y-13501508D02*
X19082468Y-13511031D01*
X19082468Y-13511031D02*
X19091991Y-13530079D01*
X19091991Y-13530079D02*
X19101515Y-13568174D01*
X19101515Y-13568174D02*
X19101515Y-13615793D01*
X19101515Y-13615793D02*
X19091991Y-13653888D01*
X19091991Y-13653888D02*
X19082468Y-13672936D01*
X19082468Y-13672936D02*
X19072944Y-13682460D01*
X19072944Y-13682460D02*
X19053896Y-13691984D01*
X19053896Y-13691984D02*
X19034848Y-13691984D01*
X19034848Y-13691984D02*
X19015801Y-13682460D01*
X19015801Y-13682460D02*
X19006277Y-13672936D01*
X19006277Y-13672936D02*
X18996753Y-13653888D01*
X18996753Y-13653888D02*
X18987229Y-13615793D01*
X18987229Y-13615793D02*
X18987229Y-13568174D01*
X18987229Y-13568174D02*
X18996753Y-13530079D01*
X18996753Y-13530079D02*
X19006277Y-13511031D01*
X19006277Y-13511031D02*
X19015801Y-13501508D01*
X19015801Y-13501508D02*
X19034848Y-13491984D01*
X19291991Y-13691984D02*
X19177706Y-13691984D01*
X19234848Y-13691984D02*
X19234848Y-13491984D01*
X19234848Y-13491984D02*
X19215801Y-13520555D01*
X19215801Y-13520555D02*
X19196753Y-13539603D01*
X19196753Y-13539603D02*
X19177706Y-13549127D01*
X19482468Y-13691984D02*
X19368182Y-13691984D01*
X19425325Y-13691984D02*
X19425325Y-13491984D01*
X19425325Y-13491984D02*
X19406277Y-13520555D01*
X19406277Y-13520555D02*
X19387229Y-13539603D01*
X19387229Y-13539603D02*
X19368182Y-13549127D01*
X19596753Y-13577698D02*
X19577706Y-13568174D01*
X19577706Y-13568174D02*
X19568182Y-13558650D01*
X19568182Y-13558650D02*
X19558658Y-13539603D01*
X19558658Y-13539603D02*
X19558658Y-13530079D01*
X19558658Y-13530079D02*
X19568182Y-13511031D01*
X19568182Y-13511031D02*
X19577706Y-13501508D01*
X19577706Y-13501508D02*
X19596753Y-13491984D01*
X19596753Y-13491984D02*
X19634849Y-13491984D01*
X19634849Y-13491984D02*
X19653896Y-13501508D01*
X19653896Y-13501508D02*
X19663420Y-13511031D01*
X19663420Y-13511031D02*
X19672944Y-13530079D01*
X19672944Y-13530079D02*
X19672944Y-13539603D01*
X19672944Y-13539603D02*
X19663420Y-13558650D01*
X19663420Y-13558650D02*
X19653896Y-13568174D01*
X19653896Y-13568174D02*
X19634849Y-13577698D01*
X19634849Y-13577698D02*
X19596753Y-13577698D01*
X19596753Y-13577698D02*
X19577706Y-13587222D01*
X19577706Y-13587222D02*
X19568182Y-13596746D01*
X19568182Y-13596746D02*
X19558658Y-13615793D01*
X19558658Y-13615793D02*
X19558658Y-13653888D01*
X19558658Y-13653888D02*
X19568182Y-13672936D01*
X19568182Y-13672936D02*
X19577706Y-13682460D01*
X19577706Y-13682460D02*
X19596753Y-13691984D01*
X19596753Y-13691984D02*
X19634849Y-13691984D01*
X19634849Y-13691984D02*
X19653896Y-13682460D01*
X19653896Y-13682460D02*
X19663420Y-13672936D01*
X19663420Y-13672936D02*
X19672944Y-13653888D01*
X19672944Y-13653888D02*
X19672944Y-13615793D01*
X19672944Y-13615793D02*
X19663420Y-13596746D01*
X19663420Y-13596746D02*
X19653896Y-13587222D01*
X19653896Y-13587222D02*
X19634849Y-13577698D01*
X19749134Y-13491984D02*
X19749134Y-13530079D01*
X19825325Y-13491984D02*
X19825325Y-13530079D01*
X20120563Y-13768174D02*
X20111039Y-13758650D01*
X20111039Y-13758650D02*
X20091991Y-13730079D01*
X20091991Y-13730079D02*
X20082468Y-13711031D01*
X20082468Y-13711031D02*
X20072944Y-13682460D01*
X20072944Y-13682460D02*
X20063420Y-13634841D01*
X20063420Y-13634841D02*
X20063420Y-13596746D01*
X20063420Y-13596746D02*
X20072944Y-13549127D01*
X20072944Y-13549127D02*
X20082468Y-13520555D01*
X20082468Y-13520555D02*
X20091991Y-13501508D01*
X20091991Y-13501508D02*
X20111039Y-13472936D01*
X20111039Y-13472936D02*
X20120563Y-13463412D01*
X20177706Y-13491984D02*
X20301515Y-13491984D01*
X20301515Y-13491984D02*
X20234849Y-13568174D01*
X20234849Y-13568174D02*
X20263420Y-13568174D01*
X20263420Y-13568174D02*
X20282468Y-13577698D01*
X20282468Y-13577698D02*
X20291991Y-13587222D01*
X20291991Y-13587222D02*
X20301515Y-13606269D01*
X20301515Y-13606269D02*
X20301515Y-13653888D01*
X20301515Y-13653888D02*
X20291991Y-13672936D01*
X20291991Y-13672936D02*
X20282468Y-13682460D01*
X20282468Y-13682460D02*
X20263420Y-13691984D01*
X20263420Y-13691984D02*
X20206277Y-13691984D01*
X20206277Y-13691984D02*
X20187230Y-13682460D01*
X20187230Y-13682460D02*
X20177706Y-13672936D01*
X20425325Y-13491984D02*
X20444372Y-13491984D01*
X20444372Y-13491984D02*
X20463420Y-13501508D01*
X20463420Y-13501508D02*
X20472944Y-13511031D01*
X20472944Y-13511031D02*
X20482468Y-13530079D01*
X20482468Y-13530079D02*
X20491991Y-13568174D01*
X20491991Y-13568174D02*
X20491991Y-13615793D01*
X20491991Y-13615793D02*
X20482468Y-13653888D01*
X20482468Y-13653888D02*
X20472944Y-13672936D01*
X20472944Y-13672936D02*
X20463420Y-13682460D01*
X20463420Y-13682460D02*
X20444372Y-13691984D01*
X20444372Y-13691984D02*
X20425325Y-13691984D01*
X20425325Y-13691984D02*
X20406277Y-13682460D01*
X20406277Y-13682460D02*
X20396753Y-13672936D01*
X20396753Y-13672936D02*
X20387230Y-13653888D01*
X20387230Y-13653888D02*
X20377706Y-13615793D01*
X20377706Y-13615793D02*
X20377706Y-13568174D01*
X20377706Y-13568174D02*
X20387230Y-13530079D01*
X20387230Y-13530079D02*
X20396753Y-13511031D01*
X20396753Y-13511031D02*
X20406277Y-13501508D01*
X20406277Y-13501508D02*
X20425325Y-13491984D01*
X20730087Y-13691984D02*
X20730087Y-13491984D01*
X20815801Y-13691984D02*
X20815801Y-13587222D01*
X20815801Y-13587222D02*
X20806277Y-13568174D01*
X20806277Y-13568174D02*
X20787230Y-13558650D01*
X20787230Y-13558650D02*
X20758658Y-13558650D01*
X20758658Y-13558650D02*
X20739611Y-13568174D01*
X20739611Y-13568174D02*
X20730087Y-13577698D01*
X20939611Y-13691984D02*
X20920563Y-13682460D01*
X20920563Y-13682460D02*
X20911039Y-13672936D01*
X20911039Y-13672936D02*
X20901515Y-13653888D01*
X20901515Y-13653888D02*
X20901515Y-13596746D01*
X20901515Y-13596746D02*
X20911039Y-13577698D01*
X20911039Y-13577698D02*
X20920563Y-13568174D01*
X20920563Y-13568174D02*
X20939611Y-13558650D01*
X20939611Y-13558650D02*
X20968182Y-13558650D01*
X20968182Y-13558650D02*
X20987230Y-13568174D01*
X20987230Y-13568174D02*
X20996753Y-13577698D01*
X20996753Y-13577698D02*
X21006277Y-13596746D01*
X21006277Y-13596746D02*
X21006277Y-13653888D01*
X21006277Y-13653888D02*
X20996753Y-13672936D01*
X20996753Y-13672936D02*
X20987230Y-13682460D01*
X20987230Y-13682460D02*
X20968182Y-13691984D01*
X20968182Y-13691984D02*
X20939611Y-13691984D01*
X21120563Y-13691984D02*
X21101515Y-13682460D01*
X21101515Y-13682460D02*
X21091992Y-13663412D01*
X21091992Y-13663412D02*
X21091992Y-13491984D01*
X21272944Y-13682460D02*
X21253896Y-13691984D01*
X21253896Y-13691984D02*
X21215801Y-13691984D01*
X21215801Y-13691984D02*
X21196753Y-13682460D01*
X21196753Y-13682460D02*
X21187230Y-13663412D01*
X21187230Y-13663412D02*
X21187230Y-13587222D01*
X21187230Y-13587222D02*
X21196753Y-13568174D01*
X21196753Y-13568174D02*
X21215801Y-13558650D01*
X21215801Y-13558650D02*
X21253896Y-13558650D01*
X21253896Y-13558650D02*
X21272944Y-13568174D01*
X21272944Y-13568174D02*
X21282468Y-13587222D01*
X21282468Y-13587222D02*
X21282468Y-13606269D01*
X21282468Y-13606269D02*
X21187230Y-13625317D01*
X21358658Y-13682460D02*
X21377706Y-13691984D01*
X21377706Y-13691984D02*
X21415801Y-13691984D01*
X21415801Y-13691984D02*
X21434849Y-13682460D01*
X21434849Y-13682460D02*
X21444373Y-13663412D01*
X21444373Y-13663412D02*
X21444373Y-13653888D01*
X21444373Y-13653888D02*
X21434849Y-13634841D01*
X21434849Y-13634841D02*
X21415801Y-13625317D01*
X21415801Y-13625317D02*
X21387230Y-13625317D01*
X21387230Y-13625317D02*
X21368182Y-13615793D01*
X21368182Y-13615793D02*
X21358658Y-13596746D01*
X21358658Y-13596746D02*
X21358658Y-13587222D01*
X21358658Y-13587222D02*
X21368182Y-13568174D01*
X21368182Y-13568174D02*
X21387230Y-13558650D01*
X21387230Y-13558650D02*
X21415801Y-13558650D01*
X21415801Y-13558650D02*
X21434849Y-13568174D01*
X21511039Y-13768174D02*
X21520563Y-13758650D01*
X21520563Y-13758650D02*
X21539611Y-13730079D01*
X21539611Y-13730079D02*
X21549134Y-13711031D01*
X21549134Y-13711031D02*
X21558658Y-13682460D01*
X21558658Y-13682460D02*
X21568182Y-13634841D01*
X21568182Y-13634841D02*
X21568182Y-13596746D01*
X21568182Y-13596746D02*
X21558658Y-13549127D01*
X21558658Y-13549127D02*
X21549134Y-13520555D01*
X21549134Y-13520555D02*
X21539611Y-13501508D01*
X21539611Y-13501508D02*
X21520563Y-13472936D01*
X21520563Y-13472936D02*
X21511039Y-13463412D01*
D12*
X16545500Y-13864500D02*
G75*
G02*
X16475500Y-13864500I-35000J0D01*
G01*
X16475500Y-13864500D02*
G75*
G02*
X16545500Y-13864500I35000J0D01*
G01*
D11*
X16844372Y-13755984D02*
X16863420Y-13755984D01*
X16863420Y-13755984D02*
X16882467Y-13765508D01*
X16882467Y-13765508D02*
X16891991Y-13775031D01*
X16891991Y-13775031D02*
X16901515Y-13794079D01*
X16901515Y-13794079D02*
X16911039Y-13832174D01*
X16911039Y-13832174D02*
X16911039Y-13879793D01*
X16911039Y-13879793D02*
X16901515Y-13917888D01*
X16901515Y-13917888D02*
X16891991Y-13936936D01*
X16891991Y-13936936D02*
X16882467Y-13946460D01*
X16882467Y-13946460D02*
X16863420Y-13955984D01*
X16863420Y-13955984D02*
X16844372Y-13955984D01*
X16844372Y-13955984D02*
X16825324Y-13946460D01*
X16825324Y-13946460D02*
X16815801Y-13936936D01*
X16815801Y-13936936D02*
X16806277Y-13917888D01*
X16806277Y-13917888D02*
X16796753Y-13879793D01*
X16796753Y-13879793D02*
X16796753Y-13832174D01*
X16796753Y-13832174D02*
X16806277Y-13794079D01*
X16806277Y-13794079D02*
X16815801Y-13775031D01*
X16815801Y-13775031D02*
X16825324Y-13765508D01*
X16825324Y-13765508D02*
X16844372Y-13755984D01*
X16996753Y-13936936D02*
X17006277Y-13946460D01*
X17006277Y-13946460D02*
X16996753Y-13955984D01*
X16996753Y-13955984D02*
X16987229Y-13946460D01*
X16987229Y-13946460D02*
X16996753Y-13936936D01*
X16996753Y-13936936D02*
X16996753Y-13955984D01*
X17072944Y-13755984D02*
X17206277Y-13755984D01*
X17206277Y-13755984D02*
X17120563Y-13955984D01*
X17320563Y-13755984D02*
X17339610Y-13755984D01*
X17339610Y-13755984D02*
X17358658Y-13765508D01*
X17358658Y-13765508D02*
X17368182Y-13775031D01*
X17368182Y-13775031D02*
X17377705Y-13794079D01*
X17377705Y-13794079D02*
X17387229Y-13832174D01*
X17387229Y-13832174D02*
X17387229Y-13879793D01*
X17387229Y-13879793D02*
X17377705Y-13917888D01*
X17377705Y-13917888D02*
X17368182Y-13936936D01*
X17368182Y-13936936D02*
X17358658Y-13946460D01*
X17358658Y-13946460D02*
X17339610Y-13955984D01*
X17339610Y-13955984D02*
X17320563Y-13955984D01*
X17320563Y-13955984D02*
X17301515Y-13946460D01*
X17301515Y-13946460D02*
X17291991Y-13936936D01*
X17291991Y-13936936D02*
X17282467Y-13917888D01*
X17282467Y-13917888D02*
X17272944Y-13879793D01*
X17272944Y-13879793D02*
X17272944Y-13832174D01*
X17272944Y-13832174D02*
X17282467Y-13794079D01*
X17282467Y-13794079D02*
X17291991Y-13775031D01*
X17291991Y-13775031D02*
X17301515Y-13765508D01*
X17301515Y-13765508D02*
X17320563Y-13755984D01*
X17511039Y-13755984D02*
X17530086Y-13755984D01*
X17530086Y-13755984D02*
X17549134Y-13765508D01*
X17549134Y-13765508D02*
X17558658Y-13775031D01*
X17558658Y-13775031D02*
X17568182Y-13794079D01*
X17568182Y-13794079D02*
X17577705Y-13832174D01*
X17577705Y-13832174D02*
X17577705Y-13879793D01*
X17577705Y-13879793D02*
X17568182Y-13917888D01*
X17568182Y-13917888D02*
X17558658Y-13936936D01*
X17558658Y-13936936D02*
X17549134Y-13946460D01*
X17549134Y-13946460D02*
X17530086Y-13955984D01*
X17530086Y-13955984D02*
X17511039Y-13955984D01*
X17511039Y-13955984D02*
X17491991Y-13946460D01*
X17491991Y-13946460D02*
X17482467Y-13936936D01*
X17482467Y-13936936D02*
X17472944Y-13917888D01*
X17472944Y-13917888D02*
X17463420Y-13879793D01*
X17463420Y-13879793D02*
X17463420Y-13832174D01*
X17463420Y-13832174D02*
X17472944Y-13794079D01*
X17472944Y-13794079D02*
X17482467Y-13775031D01*
X17482467Y-13775031D02*
X17491991Y-13765508D01*
X17491991Y-13765508D02*
X17511039Y-13755984D01*
X17663420Y-13955984D02*
X17663420Y-13822650D01*
X17663420Y-13841698D02*
X17672944Y-13832174D01*
X17672944Y-13832174D02*
X17691991Y-13822650D01*
X17691991Y-13822650D02*
X17720563Y-13822650D01*
X17720563Y-13822650D02*
X17739610Y-13832174D01*
X17739610Y-13832174D02*
X17749134Y-13851222D01*
X17749134Y-13851222D02*
X17749134Y-13955984D01*
X17749134Y-13851222D02*
X17758658Y-13832174D01*
X17758658Y-13832174D02*
X17777705Y-13822650D01*
X17777705Y-13822650D02*
X17806277Y-13822650D01*
X17806277Y-13822650D02*
X17825325Y-13832174D01*
X17825325Y-13832174D02*
X17834848Y-13851222D01*
X17834848Y-13851222D02*
X17834848Y-13955984D01*
X17930086Y-13955984D02*
X17930086Y-13822650D01*
X17930086Y-13841698D02*
X17939610Y-13832174D01*
X17939610Y-13832174D02*
X17958658Y-13822650D01*
X17958658Y-13822650D02*
X17987229Y-13822650D01*
X17987229Y-13822650D02*
X18006277Y-13832174D01*
X18006277Y-13832174D02*
X18015801Y-13851222D01*
X18015801Y-13851222D02*
X18015801Y-13955984D01*
X18015801Y-13851222D02*
X18025325Y-13832174D01*
X18025325Y-13832174D02*
X18044372Y-13822650D01*
X18044372Y-13822650D02*
X18072944Y-13822650D01*
X18072944Y-13822650D02*
X18091991Y-13832174D01*
X18091991Y-13832174D02*
X18101515Y-13851222D01*
X18101515Y-13851222D02*
X18101515Y-13955984D01*
X18491991Y-13746460D02*
X18320563Y-14003603D01*
X18749134Y-13755984D02*
X18768182Y-13755984D01*
X18768182Y-13755984D02*
X18787229Y-13765508D01*
X18787229Y-13765508D02*
X18796753Y-13775031D01*
X18796753Y-13775031D02*
X18806277Y-13794079D01*
X18806277Y-13794079D02*
X18815801Y-13832174D01*
X18815801Y-13832174D02*
X18815801Y-13879793D01*
X18815801Y-13879793D02*
X18806277Y-13917888D01*
X18806277Y-13917888D02*
X18796753Y-13936936D01*
X18796753Y-13936936D02*
X18787229Y-13946460D01*
X18787229Y-13946460D02*
X18768182Y-13955984D01*
X18768182Y-13955984D02*
X18749134Y-13955984D01*
X18749134Y-13955984D02*
X18730087Y-13946460D01*
X18730087Y-13946460D02*
X18720563Y-13936936D01*
X18720563Y-13936936D02*
X18711039Y-13917888D01*
X18711039Y-13917888D02*
X18701515Y-13879793D01*
X18701515Y-13879793D02*
X18701515Y-13832174D01*
X18701515Y-13832174D02*
X18711039Y-13794079D01*
X18711039Y-13794079D02*
X18720563Y-13775031D01*
X18720563Y-13775031D02*
X18730087Y-13765508D01*
X18730087Y-13765508D02*
X18749134Y-13755984D01*
X18901515Y-13936936D02*
X18911039Y-13946460D01*
X18911039Y-13946460D02*
X18901515Y-13955984D01*
X18901515Y-13955984D02*
X18891991Y-13946460D01*
X18891991Y-13946460D02*
X18901515Y-13936936D01*
X18901515Y-13936936D02*
X18901515Y-13955984D01*
X19034848Y-13755984D02*
X19053896Y-13755984D01*
X19053896Y-13755984D02*
X19072944Y-13765508D01*
X19072944Y-13765508D02*
X19082468Y-13775031D01*
X19082468Y-13775031D02*
X19091991Y-13794079D01*
X19091991Y-13794079D02*
X19101515Y-13832174D01*
X19101515Y-13832174D02*
X19101515Y-13879793D01*
X19101515Y-13879793D02*
X19091991Y-13917888D01*
X19091991Y-13917888D02*
X19082468Y-13936936D01*
X19082468Y-13936936D02*
X19072944Y-13946460D01*
X19072944Y-13946460D02*
X19053896Y-13955984D01*
X19053896Y-13955984D02*
X19034848Y-13955984D01*
X19034848Y-13955984D02*
X19015801Y-13946460D01*
X19015801Y-13946460D02*
X19006277Y-13936936D01*
X19006277Y-13936936D02*
X18996753Y-13917888D01*
X18996753Y-13917888D02*
X18987229Y-13879793D01*
X18987229Y-13879793D02*
X18987229Y-13832174D01*
X18987229Y-13832174D02*
X18996753Y-13794079D01*
X18996753Y-13794079D02*
X19006277Y-13775031D01*
X19006277Y-13775031D02*
X19015801Y-13765508D01*
X19015801Y-13765508D02*
X19034848Y-13755984D01*
X19177706Y-13775031D02*
X19187229Y-13765508D01*
X19187229Y-13765508D02*
X19206277Y-13755984D01*
X19206277Y-13755984D02*
X19253896Y-13755984D01*
X19253896Y-13755984D02*
X19272944Y-13765508D01*
X19272944Y-13765508D02*
X19282468Y-13775031D01*
X19282468Y-13775031D02*
X19291991Y-13794079D01*
X19291991Y-13794079D02*
X19291991Y-13813127D01*
X19291991Y-13813127D02*
X19282468Y-13841698D01*
X19282468Y-13841698D02*
X19168182Y-13955984D01*
X19168182Y-13955984D02*
X19291991Y-13955984D01*
X19358658Y-13755984D02*
X19491991Y-13755984D01*
X19491991Y-13755984D02*
X19406277Y-13955984D01*
X19653896Y-13755984D02*
X19615801Y-13755984D01*
X19615801Y-13755984D02*
X19596753Y-13765508D01*
X19596753Y-13765508D02*
X19587229Y-13775031D01*
X19587229Y-13775031D02*
X19568182Y-13803603D01*
X19568182Y-13803603D02*
X19558658Y-13841698D01*
X19558658Y-13841698D02*
X19558658Y-13917888D01*
X19558658Y-13917888D02*
X19568182Y-13936936D01*
X19568182Y-13936936D02*
X19577706Y-13946460D01*
X19577706Y-13946460D02*
X19596753Y-13955984D01*
X19596753Y-13955984D02*
X19634849Y-13955984D01*
X19634849Y-13955984D02*
X19653896Y-13946460D01*
X19653896Y-13946460D02*
X19663420Y-13936936D01*
X19663420Y-13936936D02*
X19672944Y-13917888D01*
X19672944Y-13917888D02*
X19672944Y-13870269D01*
X19672944Y-13870269D02*
X19663420Y-13851222D01*
X19663420Y-13851222D02*
X19653896Y-13841698D01*
X19653896Y-13841698D02*
X19634849Y-13832174D01*
X19634849Y-13832174D02*
X19596753Y-13832174D01*
X19596753Y-13832174D02*
X19577706Y-13841698D01*
X19577706Y-13841698D02*
X19568182Y-13851222D01*
X19568182Y-13851222D02*
X19558658Y-13870269D01*
X19749134Y-13755984D02*
X19749134Y-13794079D01*
X19825325Y-13755984D02*
X19825325Y-13794079D01*
X20120563Y-14032174D02*
X20111039Y-14022650D01*
X20111039Y-14022650D02*
X20091991Y-13994079D01*
X20091991Y-13994079D02*
X20082468Y-13975031D01*
X20082468Y-13975031D02*
X20072944Y-13946460D01*
X20072944Y-13946460D02*
X20063420Y-13898841D01*
X20063420Y-13898841D02*
X20063420Y-13860746D01*
X20063420Y-13860746D02*
X20072944Y-13813127D01*
X20072944Y-13813127D02*
X20082468Y-13784555D01*
X20082468Y-13784555D02*
X20091991Y-13765508D01*
X20091991Y-13765508D02*
X20111039Y-13736936D01*
X20111039Y-13736936D02*
X20120563Y-13727412D01*
X20225325Y-13841698D02*
X20206277Y-13832174D01*
X20206277Y-13832174D02*
X20196753Y-13822650D01*
X20196753Y-13822650D02*
X20187230Y-13803603D01*
X20187230Y-13803603D02*
X20187230Y-13794079D01*
X20187230Y-13794079D02*
X20196753Y-13775031D01*
X20196753Y-13775031D02*
X20206277Y-13765508D01*
X20206277Y-13765508D02*
X20225325Y-13755984D01*
X20225325Y-13755984D02*
X20263420Y-13755984D01*
X20263420Y-13755984D02*
X20282468Y-13765508D01*
X20282468Y-13765508D02*
X20291991Y-13775031D01*
X20291991Y-13775031D02*
X20301515Y-13794079D01*
X20301515Y-13794079D02*
X20301515Y-13803603D01*
X20301515Y-13803603D02*
X20291991Y-13822650D01*
X20291991Y-13822650D02*
X20282468Y-13832174D01*
X20282468Y-13832174D02*
X20263420Y-13841698D01*
X20263420Y-13841698D02*
X20225325Y-13841698D01*
X20225325Y-13841698D02*
X20206277Y-13851222D01*
X20206277Y-13851222D02*
X20196753Y-13860746D01*
X20196753Y-13860746D02*
X20187230Y-13879793D01*
X20187230Y-13879793D02*
X20187230Y-13917888D01*
X20187230Y-13917888D02*
X20196753Y-13936936D01*
X20196753Y-13936936D02*
X20206277Y-13946460D01*
X20206277Y-13946460D02*
X20225325Y-13955984D01*
X20225325Y-13955984D02*
X20263420Y-13955984D01*
X20263420Y-13955984D02*
X20282468Y-13946460D01*
X20282468Y-13946460D02*
X20291991Y-13936936D01*
X20291991Y-13936936D02*
X20301515Y-13917888D01*
X20301515Y-13917888D02*
X20301515Y-13879793D01*
X20301515Y-13879793D02*
X20291991Y-13860746D01*
X20291991Y-13860746D02*
X20282468Y-13851222D01*
X20282468Y-13851222D02*
X20263420Y-13841698D01*
X20539611Y-13955984D02*
X20539611Y-13755984D01*
X20625325Y-13955984D02*
X20625325Y-13851222D01*
X20625325Y-13851222D02*
X20615801Y-13832174D01*
X20615801Y-13832174D02*
X20596753Y-13822650D01*
X20596753Y-13822650D02*
X20568182Y-13822650D01*
X20568182Y-13822650D02*
X20549134Y-13832174D01*
X20549134Y-13832174D02*
X20539611Y-13841698D01*
X20749134Y-13955984D02*
X20730087Y-13946460D01*
X20730087Y-13946460D02*
X20720563Y-13936936D01*
X20720563Y-13936936D02*
X20711039Y-13917888D01*
X20711039Y-13917888D02*
X20711039Y-13860746D01*
X20711039Y-13860746D02*
X20720563Y-13841698D01*
X20720563Y-13841698D02*
X20730087Y-13832174D01*
X20730087Y-13832174D02*
X20749134Y-13822650D01*
X20749134Y-13822650D02*
X20777706Y-13822650D01*
X20777706Y-13822650D02*
X20796753Y-13832174D01*
X20796753Y-13832174D02*
X20806277Y-13841698D01*
X20806277Y-13841698D02*
X20815801Y-13860746D01*
X20815801Y-13860746D02*
X20815801Y-13917888D01*
X20815801Y-13917888D02*
X20806277Y-13936936D01*
X20806277Y-13936936D02*
X20796753Y-13946460D01*
X20796753Y-13946460D02*
X20777706Y-13955984D01*
X20777706Y-13955984D02*
X20749134Y-13955984D01*
X20930087Y-13955984D02*
X20911039Y-13946460D01*
X20911039Y-13946460D02*
X20901515Y-13927412D01*
X20901515Y-13927412D02*
X20901515Y-13755984D01*
X21082468Y-13946460D02*
X21063420Y-13955984D01*
X21063420Y-13955984D02*
X21025325Y-13955984D01*
X21025325Y-13955984D02*
X21006277Y-13946460D01*
X21006277Y-13946460D02*
X20996753Y-13927412D01*
X20996753Y-13927412D02*
X20996753Y-13851222D01*
X20996753Y-13851222D02*
X21006277Y-13832174D01*
X21006277Y-13832174D02*
X21025325Y-13822650D01*
X21025325Y-13822650D02*
X21063420Y-13822650D01*
X21063420Y-13822650D02*
X21082468Y-13832174D01*
X21082468Y-13832174D02*
X21091992Y-13851222D01*
X21091992Y-13851222D02*
X21091992Y-13870269D01*
X21091992Y-13870269D02*
X20996753Y-13889317D01*
X21168182Y-13946460D02*
X21187230Y-13955984D01*
X21187230Y-13955984D02*
X21225325Y-13955984D01*
X21225325Y-13955984D02*
X21244373Y-13946460D01*
X21244373Y-13946460D02*
X21253896Y-13927412D01*
X21253896Y-13927412D02*
X21253896Y-13917888D01*
X21253896Y-13917888D02*
X21244373Y-13898841D01*
X21244373Y-13898841D02*
X21225325Y-13889317D01*
X21225325Y-13889317D02*
X21196753Y-13889317D01*
X21196753Y-13889317D02*
X21177706Y-13879793D01*
X21177706Y-13879793D02*
X21168182Y-13860746D01*
X21168182Y-13860746D02*
X21168182Y-13851222D01*
X21168182Y-13851222D02*
X21177706Y-13832174D01*
X21177706Y-13832174D02*
X21196753Y-13822650D01*
X21196753Y-13822650D02*
X21225325Y-13822650D01*
X21225325Y-13822650D02*
X21244373Y-13832174D01*
X21320563Y-14032174D02*
X21330087Y-14022650D01*
X21330087Y-14022650D02*
X21349134Y-13994079D01*
X21349134Y-13994079D02*
X21358658Y-13975031D01*
X21358658Y-13975031D02*
X21368182Y-13946460D01*
X21368182Y-13946460D02*
X21377706Y-13898841D01*
X21377706Y-13898841D02*
X21377706Y-13860746D01*
X21377706Y-13860746D02*
X21368182Y-13813127D01*
X21368182Y-13813127D02*
X21358658Y-13784555D01*
X21358658Y-13784555D02*
X21349134Y-13765508D01*
X21349134Y-13765508D02*
X21330087Y-13736936D01*
X21330087Y-13736936D02*
X21320563Y-13727412D01*
D12*
X16501050Y-14084050D02*
X16501050Y-14172950D01*
X16456600Y-14128500D02*
X16545500Y-14128500D01*
D11*
X16844372Y-14019984D02*
X16863420Y-14019984D01*
X16863420Y-14019984D02*
X16882467Y-14029508D01*
X16882467Y-14029508D02*
X16891991Y-14039031D01*
X16891991Y-14039031D02*
X16901515Y-14058079D01*
X16901515Y-14058079D02*
X16911039Y-14096174D01*
X16911039Y-14096174D02*
X16911039Y-14143793D01*
X16911039Y-14143793D02*
X16901515Y-14181888D01*
X16901515Y-14181888D02*
X16891991Y-14200936D01*
X16891991Y-14200936D02*
X16882467Y-14210460D01*
X16882467Y-14210460D02*
X16863420Y-14219984D01*
X16863420Y-14219984D02*
X16844372Y-14219984D01*
X16844372Y-14219984D02*
X16825324Y-14210460D01*
X16825324Y-14210460D02*
X16815801Y-14200936D01*
X16815801Y-14200936D02*
X16806277Y-14181888D01*
X16806277Y-14181888D02*
X16796753Y-14143793D01*
X16796753Y-14143793D02*
X16796753Y-14096174D01*
X16796753Y-14096174D02*
X16806277Y-14058079D01*
X16806277Y-14058079D02*
X16815801Y-14039031D01*
X16815801Y-14039031D02*
X16825324Y-14029508D01*
X16825324Y-14029508D02*
X16844372Y-14019984D01*
X16996753Y-14200936D02*
X17006277Y-14210460D01*
X17006277Y-14210460D02*
X16996753Y-14219984D01*
X16996753Y-14219984D02*
X16987229Y-14210460D01*
X16987229Y-14210460D02*
X16996753Y-14200936D01*
X16996753Y-14200936D02*
X16996753Y-14219984D01*
X17120563Y-14105698D02*
X17101515Y-14096174D01*
X17101515Y-14096174D02*
X17091991Y-14086650D01*
X17091991Y-14086650D02*
X17082467Y-14067603D01*
X17082467Y-14067603D02*
X17082467Y-14058079D01*
X17082467Y-14058079D02*
X17091991Y-14039031D01*
X17091991Y-14039031D02*
X17101515Y-14029508D01*
X17101515Y-14029508D02*
X17120563Y-14019984D01*
X17120563Y-14019984D02*
X17158658Y-14019984D01*
X17158658Y-14019984D02*
X17177705Y-14029508D01*
X17177705Y-14029508D02*
X17187229Y-14039031D01*
X17187229Y-14039031D02*
X17196753Y-14058079D01*
X17196753Y-14058079D02*
X17196753Y-14067603D01*
X17196753Y-14067603D02*
X17187229Y-14086650D01*
X17187229Y-14086650D02*
X17177705Y-14096174D01*
X17177705Y-14096174D02*
X17158658Y-14105698D01*
X17158658Y-14105698D02*
X17120563Y-14105698D01*
X17120563Y-14105698D02*
X17101515Y-14115222D01*
X17101515Y-14115222D02*
X17091991Y-14124746D01*
X17091991Y-14124746D02*
X17082467Y-14143793D01*
X17082467Y-14143793D02*
X17082467Y-14181888D01*
X17082467Y-14181888D02*
X17091991Y-14200936D01*
X17091991Y-14200936D02*
X17101515Y-14210460D01*
X17101515Y-14210460D02*
X17120563Y-14219984D01*
X17120563Y-14219984D02*
X17158658Y-14219984D01*
X17158658Y-14219984D02*
X17177705Y-14210460D01*
X17177705Y-14210460D02*
X17187229Y-14200936D01*
X17187229Y-14200936D02*
X17196753Y-14181888D01*
X17196753Y-14181888D02*
X17196753Y-14143793D01*
X17196753Y-14143793D02*
X17187229Y-14124746D01*
X17187229Y-14124746D02*
X17177705Y-14115222D01*
X17177705Y-14115222D02*
X17158658Y-14105698D01*
X17311039Y-14105698D02*
X17291991Y-14096174D01*
X17291991Y-14096174D02*
X17282467Y-14086650D01*
X17282467Y-14086650D02*
X17272944Y-14067603D01*
X17272944Y-14067603D02*
X17272944Y-14058079D01*
X17272944Y-14058079D02*
X17282467Y-14039031D01*
X17282467Y-14039031D02*
X17291991Y-14029508D01*
X17291991Y-14029508D02*
X17311039Y-14019984D01*
X17311039Y-14019984D02*
X17349134Y-14019984D01*
X17349134Y-14019984D02*
X17368182Y-14029508D01*
X17368182Y-14029508D02*
X17377705Y-14039031D01*
X17377705Y-14039031D02*
X17387229Y-14058079D01*
X17387229Y-14058079D02*
X17387229Y-14067603D01*
X17387229Y-14067603D02*
X17377705Y-14086650D01*
X17377705Y-14086650D02*
X17368182Y-14096174D01*
X17368182Y-14096174D02*
X17349134Y-14105698D01*
X17349134Y-14105698D02*
X17311039Y-14105698D01*
X17311039Y-14105698D02*
X17291991Y-14115222D01*
X17291991Y-14115222D02*
X17282467Y-14124746D01*
X17282467Y-14124746D02*
X17272944Y-14143793D01*
X17272944Y-14143793D02*
X17272944Y-14181888D01*
X17272944Y-14181888D02*
X17282467Y-14200936D01*
X17282467Y-14200936D02*
X17291991Y-14210460D01*
X17291991Y-14210460D02*
X17311039Y-14219984D01*
X17311039Y-14219984D02*
X17349134Y-14219984D01*
X17349134Y-14219984D02*
X17368182Y-14210460D01*
X17368182Y-14210460D02*
X17377705Y-14200936D01*
X17377705Y-14200936D02*
X17387229Y-14181888D01*
X17387229Y-14181888D02*
X17387229Y-14143793D01*
X17387229Y-14143793D02*
X17377705Y-14124746D01*
X17377705Y-14124746D02*
X17368182Y-14115222D01*
X17368182Y-14115222D02*
X17349134Y-14105698D01*
X17482467Y-14219984D02*
X17520563Y-14219984D01*
X17520563Y-14219984D02*
X17539610Y-14210460D01*
X17539610Y-14210460D02*
X17549134Y-14200936D01*
X17549134Y-14200936D02*
X17568182Y-14172365D01*
X17568182Y-14172365D02*
X17577705Y-14134269D01*
X17577705Y-14134269D02*
X17577705Y-14058079D01*
X17577705Y-14058079D02*
X17568182Y-14039031D01*
X17568182Y-14039031D02*
X17558658Y-14029508D01*
X17558658Y-14029508D02*
X17539610Y-14019984D01*
X17539610Y-14019984D02*
X17501515Y-14019984D01*
X17501515Y-14019984D02*
X17482467Y-14029508D01*
X17482467Y-14029508D02*
X17472944Y-14039031D01*
X17472944Y-14039031D02*
X17463420Y-14058079D01*
X17463420Y-14058079D02*
X17463420Y-14105698D01*
X17463420Y-14105698D02*
X17472944Y-14124746D01*
X17472944Y-14124746D02*
X17482467Y-14134269D01*
X17482467Y-14134269D02*
X17501515Y-14143793D01*
X17501515Y-14143793D02*
X17539610Y-14143793D01*
X17539610Y-14143793D02*
X17558658Y-14134269D01*
X17558658Y-14134269D02*
X17568182Y-14124746D01*
X17568182Y-14124746D02*
X17577705Y-14105698D01*
X17663420Y-14219984D02*
X17663420Y-14086650D01*
X17663420Y-14105698D02*
X17672944Y-14096174D01*
X17672944Y-14096174D02*
X17691991Y-14086650D01*
X17691991Y-14086650D02*
X17720563Y-14086650D01*
X17720563Y-14086650D02*
X17739610Y-14096174D01*
X17739610Y-14096174D02*
X17749134Y-14115222D01*
X17749134Y-14115222D02*
X17749134Y-14219984D01*
X17749134Y-14115222D02*
X17758658Y-14096174D01*
X17758658Y-14096174D02*
X17777705Y-14086650D01*
X17777705Y-14086650D02*
X17806277Y-14086650D01*
X17806277Y-14086650D02*
X17825325Y-14096174D01*
X17825325Y-14096174D02*
X17834848Y-14115222D01*
X17834848Y-14115222D02*
X17834848Y-14219984D01*
X17930086Y-14219984D02*
X17930086Y-14086650D01*
X17930086Y-14105698D02*
X17939610Y-14096174D01*
X17939610Y-14096174D02*
X17958658Y-14086650D01*
X17958658Y-14086650D02*
X17987229Y-14086650D01*
X17987229Y-14086650D02*
X18006277Y-14096174D01*
X18006277Y-14096174D02*
X18015801Y-14115222D01*
X18015801Y-14115222D02*
X18015801Y-14219984D01*
X18015801Y-14115222D02*
X18025325Y-14096174D01*
X18025325Y-14096174D02*
X18044372Y-14086650D01*
X18044372Y-14086650D02*
X18072944Y-14086650D01*
X18072944Y-14086650D02*
X18091991Y-14096174D01*
X18091991Y-14096174D02*
X18101515Y-14115222D01*
X18101515Y-14115222D02*
X18101515Y-14219984D01*
X18491991Y-14010460D02*
X18320563Y-14267603D01*
X18749134Y-14019984D02*
X18768182Y-14019984D01*
X18768182Y-14019984D02*
X18787229Y-14029508D01*
X18787229Y-14029508D02*
X18796753Y-14039031D01*
X18796753Y-14039031D02*
X18806277Y-14058079D01*
X18806277Y-14058079D02*
X18815801Y-14096174D01*
X18815801Y-14096174D02*
X18815801Y-14143793D01*
X18815801Y-14143793D02*
X18806277Y-14181888D01*
X18806277Y-14181888D02*
X18796753Y-14200936D01*
X18796753Y-14200936D02*
X18787229Y-14210460D01*
X18787229Y-14210460D02*
X18768182Y-14219984D01*
X18768182Y-14219984D02*
X18749134Y-14219984D01*
X18749134Y-14219984D02*
X18730087Y-14210460D01*
X18730087Y-14210460D02*
X18720563Y-14200936D01*
X18720563Y-14200936D02*
X18711039Y-14181888D01*
X18711039Y-14181888D02*
X18701515Y-14143793D01*
X18701515Y-14143793D02*
X18701515Y-14096174D01*
X18701515Y-14096174D02*
X18711039Y-14058079D01*
X18711039Y-14058079D02*
X18720563Y-14039031D01*
X18720563Y-14039031D02*
X18730087Y-14029508D01*
X18730087Y-14029508D02*
X18749134Y-14019984D01*
X18901515Y-14200936D02*
X18911039Y-14210460D01*
X18911039Y-14210460D02*
X18901515Y-14219984D01*
X18901515Y-14219984D02*
X18891991Y-14210460D01*
X18891991Y-14210460D02*
X18901515Y-14200936D01*
X18901515Y-14200936D02*
X18901515Y-14219984D01*
X19034848Y-14019984D02*
X19053896Y-14019984D01*
X19053896Y-14019984D02*
X19072944Y-14029508D01*
X19072944Y-14029508D02*
X19082468Y-14039031D01*
X19082468Y-14039031D02*
X19091991Y-14058079D01*
X19091991Y-14058079D02*
X19101515Y-14096174D01*
X19101515Y-14096174D02*
X19101515Y-14143793D01*
X19101515Y-14143793D02*
X19091991Y-14181888D01*
X19091991Y-14181888D02*
X19082468Y-14200936D01*
X19082468Y-14200936D02*
X19072944Y-14210460D01*
X19072944Y-14210460D02*
X19053896Y-14219984D01*
X19053896Y-14219984D02*
X19034848Y-14219984D01*
X19034848Y-14219984D02*
X19015801Y-14210460D01*
X19015801Y-14210460D02*
X19006277Y-14200936D01*
X19006277Y-14200936D02*
X18996753Y-14181888D01*
X18996753Y-14181888D02*
X18987229Y-14143793D01*
X18987229Y-14143793D02*
X18987229Y-14096174D01*
X18987229Y-14096174D02*
X18996753Y-14058079D01*
X18996753Y-14058079D02*
X19006277Y-14039031D01*
X19006277Y-14039031D02*
X19015801Y-14029508D01*
X19015801Y-14029508D02*
X19034848Y-14019984D01*
X19168182Y-14019984D02*
X19291991Y-14019984D01*
X19291991Y-14019984D02*
X19225325Y-14096174D01*
X19225325Y-14096174D02*
X19253896Y-14096174D01*
X19253896Y-14096174D02*
X19272944Y-14105698D01*
X19272944Y-14105698D02*
X19282468Y-14115222D01*
X19282468Y-14115222D02*
X19291991Y-14134269D01*
X19291991Y-14134269D02*
X19291991Y-14181888D01*
X19291991Y-14181888D02*
X19282468Y-14200936D01*
X19282468Y-14200936D02*
X19272944Y-14210460D01*
X19272944Y-14210460D02*
X19253896Y-14219984D01*
X19253896Y-14219984D02*
X19196753Y-14219984D01*
X19196753Y-14219984D02*
X19177706Y-14210460D01*
X19177706Y-14210460D02*
X19168182Y-14200936D01*
X19472944Y-14019984D02*
X19377706Y-14019984D01*
X19377706Y-14019984D02*
X19368182Y-14115222D01*
X19368182Y-14115222D02*
X19377706Y-14105698D01*
X19377706Y-14105698D02*
X19396753Y-14096174D01*
X19396753Y-14096174D02*
X19444372Y-14096174D01*
X19444372Y-14096174D02*
X19463420Y-14105698D01*
X19463420Y-14105698D02*
X19472944Y-14115222D01*
X19472944Y-14115222D02*
X19482468Y-14134269D01*
X19482468Y-14134269D02*
X19482468Y-14181888D01*
X19482468Y-14181888D02*
X19472944Y-14200936D01*
X19472944Y-14200936D02*
X19463420Y-14210460D01*
X19463420Y-14210460D02*
X19444372Y-14219984D01*
X19444372Y-14219984D02*
X19396753Y-14219984D01*
X19396753Y-14219984D02*
X19377706Y-14210460D01*
X19377706Y-14210460D02*
X19368182Y-14200936D01*
X19606277Y-14019984D02*
X19625325Y-14019984D01*
X19625325Y-14019984D02*
X19644372Y-14029508D01*
X19644372Y-14029508D02*
X19653896Y-14039031D01*
X19653896Y-14039031D02*
X19663420Y-14058079D01*
X19663420Y-14058079D02*
X19672944Y-14096174D01*
X19672944Y-14096174D02*
X19672944Y-14143793D01*
X19672944Y-14143793D02*
X19663420Y-14181888D01*
X19663420Y-14181888D02*
X19653896Y-14200936D01*
X19653896Y-14200936D02*
X19644372Y-14210460D01*
X19644372Y-14210460D02*
X19625325Y-14219984D01*
X19625325Y-14219984D02*
X19606277Y-14219984D01*
X19606277Y-14219984D02*
X19587229Y-14210460D01*
X19587229Y-14210460D02*
X19577706Y-14200936D01*
X19577706Y-14200936D02*
X19568182Y-14181888D01*
X19568182Y-14181888D02*
X19558658Y-14143793D01*
X19558658Y-14143793D02*
X19558658Y-14096174D01*
X19558658Y-14096174D02*
X19568182Y-14058079D01*
X19568182Y-14058079D02*
X19577706Y-14039031D01*
X19577706Y-14039031D02*
X19587229Y-14029508D01*
X19587229Y-14029508D02*
X19606277Y-14019984D01*
X19749134Y-14019984D02*
X19749134Y-14058079D01*
X19825325Y-14019984D02*
X19825325Y-14058079D01*
X20120563Y-14296174D02*
X20111039Y-14286650D01*
X20111039Y-14286650D02*
X20091991Y-14258079D01*
X20091991Y-14258079D02*
X20082468Y-14239031D01*
X20082468Y-14239031D02*
X20072944Y-14210460D01*
X20072944Y-14210460D02*
X20063420Y-14162841D01*
X20063420Y-14162841D02*
X20063420Y-14124746D01*
X20063420Y-14124746D02*
X20072944Y-14077127D01*
X20072944Y-14077127D02*
X20082468Y-14048555D01*
X20082468Y-14048555D02*
X20091991Y-14029508D01*
X20091991Y-14029508D02*
X20111039Y-14000936D01*
X20111039Y-14000936D02*
X20120563Y-13991412D01*
X20301515Y-14219984D02*
X20187230Y-14219984D01*
X20244372Y-14219984D02*
X20244372Y-14019984D01*
X20244372Y-14019984D02*
X20225325Y-14048555D01*
X20225325Y-14048555D02*
X20206277Y-14067603D01*
X20206277Y-14067603D02*
X20187230Y-14077127D01*
X20472944Y-14086650D02*
X20472944Y-14219984D01*
X20425325Y-14010460D02*
X20377706Y-14153317D01*
X20377706Y-14153317D02*
X20501515Y-14153317D01*
X20730087Y-14219984D02*
X20730087Y-14019984D01*
X20815801Y-14219984D02*
X20815801Y-14115222D01*
X20815801Y-14115222D02*
X20806277Y-14096174D01*
X20806277Y-14096174D02*
X20787230Y-14086650D01*
X20787230Y-14086650D02*
X20758658Y-14086650D01*
X20758658Y-14086650D02*
X20739611Y-14096174D01*
X20739611Y-14096174D02*
X20730087Y-14105698D01*
X20939611Y-14219984D02*
X20920563Y-14210460D01*
X20920563Y-14210460D02*
X20911039Y-14200936D01*
X20911039Y-14200936D02*
X20901515Y-14181888D01*
X20901515Y-14181888D02*
X20901515Y-14124746D01*
X20901515Y-14124746D02*
X20911039Y-14105698D01*
X20911039Y-14105698D02*
X20920563Y-14096174D01*
X20920563Y-14096174D02*
X20939611Y-14086650D01*
X20939611Y-14086650D02*
X20968182Y-14086650D01*
X20968182Y-14086650D02*
X20987230Y-14096174D01*
X20987230Y-14096174D02*
X20996753Y-14105698D01*
X20996753Y-14105698D02*
X21006277Y-14124746D01*
X21006277Y-14124746D02*
X21006277Y-14181888D01*
X21006277Y-14181888D02*
X20996753Y-14200936D01*
X20996753Y-14200936D02*
X20987230Y-14210460D01*
X20987230Y-14210460D02*
X20968182Y-14219984D01*
X20968182Y-14219984D02*
X20939611Y-14219984D01*
X21120563Y-14219984D02*
X21101515Y-14210460D01*
X21101515Y-14210460D02*
X21091992Y-14191412D01*
X21091992Y-14191412D02*
X21091992Y-14019984D01*
X21272944Y-14210460D02*
X21253896Y-14219984D01*
X21253896Y-14219984D02*
X21215801Y-14219984D01*
X21215801Y-14219984D02*
X21196753Y-14210460D01*
X21196753Y-14210460D02*
X21187230Y-14191412D01*
X21187230Y-14191412D02*
X21187230Y-14115222D01*
X21187230Y-14115222D02*
X21196753Y-14096174D01*
X21196753Y-14096174D02*
X21215801Y-14086650D01*
X21215801Y-14086650D02*
X21253896Y-14086650D01*
X21253896Y-14086650D02*
X21272944Y-14096174D01*
X21272944Y-14096174D02*
X21282468Y-14115222D01*
X21282468Y-14115222D02*
X21282468Y-14134269D01*
X21282468Y-14134269D02*
X21187230Y-14153317D01*
X21358658Y-14210460D02*
X21377706Y-14219984D01*
X21377706Y-14219984D02*
X21415801Y-14219984D01*
X21415801Y-14219984D02*
X21434849Y-14210460D01*
X21434849Y-14210460D02*
X21444373Y-14191412D01*
X21444373Y-14191412D02*
X21444373Y-14181888D01*
X21444373Y-14181888D02*
X21434849Y-14162841D01*
X21434849Y-14162841D02*
X21415801Y-14153317D01*
X21415801Y-14153317D02*
X21387230Y-14153317D01*
X21387230Y-14153317D02*
X21368182Y-14143793D01*
X21368182Y-14143793D02*
X21358658Y-14124746D01*
X21358658Y-14124746D02*
X21358658Y-14115222D01*
X21358658Y-14115222D02*
X21368182Y-14096174D01*
X21368182Y-14096174D02*
X21387230Y-14086650D01*
X21387230Y-14086650D02*
X21415801Y-14086650D01*
X21415801Y-14086650D02*
X21434849Y-14096174D01*
X21511039Y-14296174D02*
X21520563Y-14286650D01*
X21520563Y-14286650D02*
X21539611Y-14258079D01*
X21539611Y-14258079D02*
X21549134Y-14239031D01*
X21549134Y-14239031D02*
X21558658Y-14210460D01*
X21558658Y-14210460D02*
X21568182Y-14162841D01*
X21568182Y-14162841D02*
X21568182Y-14124746D01*
X21568182Y-14124746D02*
X21558658Y-14077127D01*
X21558658Y-14077127D02*
X21549134Y-14048555D01*
X21549134Y-14048555D02*
X21539611Y-14029508D01*
X21539611Y-14029508D02*
X21520563Y-14000936D01*
X21520563Y-14000936D02*
X21511039Y-13991412D01*
D13*
X16527780Y-14435280D02*
X16527780Y-14349720D01*
X16442220Y-14349720D01*
X16442220Y-14435280D01*
X16527780Y-14435280D01*
D11*
X16911039Y-14483984D02*
X16796753Y-14483984D01*
X16853896Y-14483984D02*
X16853896Y-14283984D01*
X16853896Y-14283984D02*
X16834848Y-14312555D01*
X16834848Y-14312555D02*
X16815801Y-14331603D01*
X16815801Y-14331603D02*
X16796753Y-14341127D01*
X16996753Y-14464936D02*
X17006277Y-14474460D01*
X17006277Y-14474460D02*
X16996753Y-14483984D01*
X16996753Y-14483984D02*
X16987229Y-14474460D01*
X16987229Y-14474460D02*
X16996753Y-14464936D01*
X16996753Y-14464936D02*
X16996753Y-14483984D01*
X17082467Y-14303031D02*
X17091991Y-14293508D01*
X17091991Y-14293508D02*
X17111039Y-14283984D01*
X17111039Y-14283984D02*
X17158658Y-14283984D01*
X17158658Y-14283984D02*
X17177705Y-14293508D01*
X17177705Y-14293508D02*
X17187229Y-14303031D01*
X17187229Y-14303031D02*
X17196753Y-14322079D01*
X17196753Y-14322079D02*
X17196753Y-14341127D01*
X17196753Y-14341127D02*
X17187229Y-14369698D01*
X17187229Y-14369698D02*
X17072944Y-14483984D01*
X17072944Y-14483984D02*
X17196753Y-14483984D01*
X17387229Y-14483984D02*
X17272944Y-14483984D01*
X17330086Y-14483984D02*
X17330086Y-14283984D01*
X17330086Y-14283984D02*
X17311039Y-14312555D01*
X17311039Y-14312555D02*
X17291991Y-14331603D01*
X17291991Y-14331603D02*
X17272944Y-14341127D01*
X17511039Y-14283984D02*
X17530086Y-14283984D01*
X17530086Y-14283984D02*
X17549134Y-14293508D01*
X17549134Y-14293508D02*
X17558658Y-14303031D01*
X17558658Y-14303031D02*
X17568182Y-14322079D01*
X17568182Y-14322079D02*
X17577705Y-14360174D01*
X17577705Y-14360174D02*
X17577705Y-14407793D01*
X17577705Y-14407793D02*
X17568182Y-14445888D01*
X17568182Y-14445888D02*
X17558658Y-14464936D01*
X17558658Y-14464936D02*
X17549134Y-14474460D01*
X17549134Y-14474460D02*
X17530086Y-14483984D01*
X17530086Y-14483984D02*
X17511039Y-14483984D01*
X17511039Y-14483984D02*
X17491991Y-14474460D01*
X17491991Y-14474460D02*
X17482467Y-14464936D01*
X17482467Y-14464936D02*
X17472944Y-14445888D01*
X17472944Y-14445888D02*
X17463420Y-14407793D01*
X17463420Y-14407793D02*
X17463420Y-14360174D01*
X17463420Y-14360174D02*
X17472944Y-14322079D01*
X17472944Y-14322079D02*
X17482467Y-14303031D01*
X17482467Y-14303031D02*
X17491991Y-14293508D01*
X17491991Y-14293508D02*
X17511039Y-14283984D01*
X17663420Y-14483984D02*
X17663420Y-14350650D01*
X17663420Y-14369698D02*
X17672944Y-14360174D01*
X17672944Y-14360174D02*
X17691991Y-14350650D01*
X17691991Y-14350650D02*
X17720563Y-14350650D01*
X17720563Y-14350650D02*
X17739610Y-14360174D01*
X17739610Y-14360174D02*
X17749134Y-14379222D01*
X17749134Y-14379222D02*
X17749134Y-14483984D01*
X17749134Y-14379222D02*
X17758658Y-14360174D01*
X17758658Y-14360174D02*
X17777705Y-14350650D01*
X17777705Y-14350650D02*
X17806277Y-14350650D01*
X17806277Y-14350650D02*
X17825325Y-14360174D01*
X17825325Y-14360174D02*
X17834848Y-14379222D01*
X17834848Y-14379222D02*
X17834848Y-14483984D01*
X17930086Y-14483984D02*
X17930086Y-14350650D01*
X17930086Y-14369698D02*
X17939610Y-14360174D01*
X17939610Y-14360174D02*
X17958658Y-14350650D01*
X17958658Y-14350650D02*
X17987229Y-14350650D01*
X17987229Y-14350650D02*
X18006277Y-14360174D01*
X18006277Y-14360174D02*
X18015801Y-14379222D01*
X18015801Y-14379222D02*
X18015801Y-14483984D01*
X18015801Y-14379222D02*
X18025325Y-14360174D01*
X18025325Y-14360174D02*
X18044372Y-14350650D01*
X18044372Y-14350650D02*
X18072944Y-14350650D01*
X18072944Y-14350650D02*
X18091991Y-14360174D01*
X18091991Y-14360174D02*
X18101515Y-14379222D01*
X18101515Y-14379222D02*
X18101515Y-14483984D01*
X18491991Y-14274460D02*
X18320563Y-14531603D01*
X18749134Y-14283984D02*
X18768182Y-14283984D01*
X18768182Y-14283984D02*
X18787229Y-14293508D01*
X18787229Y-14293508D02*
X18796753Y-14303031D01*
X18796753Y-14303031D02*
X18806277Y-14322079D01*
X18806277Y-14322079D02*
X18815801Y-14360174D01*
X18815801Y-14360174D02*
X18815801Y-14407793D01*
X18815801Y-14407793D02*
X18806277Y-14445888D01*
X18806277Y-14445888D02*
X18796753Y-14464936D01*
X18796753Y-14464936D02*
X18787229Y-14474460D01*
X18787229Y-14474460D02*
X18768182Y-14483984D01*
X18768182Y-14483984D02*
X18749134Y-14483984D01*
X18749134Y-14483984D02*
X18730087Y-14474460D01*
X18730087Y-14474460D02*
X18720563Y-14464936D01*
X18720563Y-14464936D02*
X18711039Y-14445888D01*
X18711039Y-14445888D02*
X18701515Y-14407793D01*
X18701515Y-14407793D02*
X18701515Y-14360174D01*
X18701515Y-14360174D02*
X18711039Y-14322079D01*
X18711039Y-14322079D02*
X18720563Y-14303031D01*
X18720563Y-14303031D02*
X18730087Y-14293508D01*
X18730087Y-14293508D02*
X18749134Y-14283984D01*
X18901515Y-14464936D02*
X18911039Y-14474460D01*
X18911039Y-14474460D02*
X18901515Y-14483984D01*
X18901515Y-14483984D02*
X18891991Y-14474460D01*
X18891991Y-14474460D02*
X18901515Y-14464936D01*
X18901515Y-14464936D02*
X18901515Y-14483984D01*
X19034848Y-14283984D02*
X19053896Y-14283984D01*
X19053896Y-14283984D02*
X19072944Y-14293508D01*
X19072944Y-14293508D02*
X19082468Y-14303031D01*
X19082468Y-14303031D02*
X19091991Y-14322079D01*
X19091991Y-14322079D02*
X19101515Y-14360174D01*
X19101515Y-14360174D02*
X19101515Y-14407793D01*
X19101515Y-14407793D02*
X19091991Y-14445888D01*
X19091991Y-14445888D02*
X19082468Y-14464936D01*
X19082468Y-14464936D02*
X19072944Y-14474460D01*
X19072944Y-14474460D02*
X19053896Y-14483984D01*
X19053896Y-14483984D02*
X19034848Y-14483984D01*
X19034848Y-14483984D02*
X19015801Y-14474460D01*
X19015801Y-14474460D02*
X19006277Y-14464936D01*
X19006277Y-14464936D02*
X18996753Y-14445888D01*
X18996753Y-14445888D02*
X18987229Y-14407793D01*
X18987229Y-14407793D02*
X18987229Y-14360174D01*
X18987229Y-14360174D02*
X18996753Y-14322079D01*
X18996753Y-14322079D02*
X19006277Y-14303031D01*
X19006277Y-14303031D02*
X19015801Y-14293508D01*
X19015801Y-14293508D02*
X19034848Y-14283984D01*
X19272944Y-14350650D02*
X19272944Y-14483984D01*
X19225325Y-14274460D02*
X19177706Y-14417317D01*
X19177706Y-14417317D02*
X19301515Y-14417317D01*
X19358658Y-14283984D02*
X19491991Y-14283984D01*
X19491991Y-14283984D02*
X19406277Y-14483984D01*
X19653896Y-14283984D02*
X19615801Y-14283984D01*
X19615801Y-14283984D02*
X19596753Y-14293508D01*
X19596753Y-14293508D02*
X19587229Y-14303031D01*
X19587229Y-14303031D02*
X19568182Y-14331603D01*
X19568182Y-14331603D02*
X19558658Y-14369698D01*
X19558658Y-14369698D02*
X19558658Y-14445888D01*
X19558658Y-14445888D02*
X19568182Y-14464936D01*
X19568182Y-14464936D02*
X19577706Y-14474460D01*
X19577706Y-14474460D02*
X19596753Y-14483984D01*
X19596753Y-14483984D02*
X19634849Y-14483984D01*
X19634849Y-14483984D02*
X19653896Y-14474460D01*
X19653896Y-14474460D02*
X19663420Y-14464936D01*
X19663420Y-14464936D02*
X19672944Y-14445888D01*
X19672944Y-14445888D02*
X19672944Y-14398269D01*
X19672944Y-14398269D02*
X19663420Y-14379222D01*
X19663420Y-14379222D02*
X19653896Y-14369698D01*
X19653896Y-14369698D02*
X19634849Y-14360174D01*
X19634849Y-14360174D02*
X19596753Y-14360174D01*
X19596753Y-14360174D02*
X19577706Y-14369698D01*
X19577706Y-14369698D02*
X19568182Y-14379222D01*
X19568182Y-14379222D02*
X19558658Y-14398269D01*
X19749134Y-14283984D02*
X19749134Y-14322079D01*
X19825325Y-14283984D02*
X19825325Y-14322079D01*
X20120563Y-14560174D02*
X20111039Y-14550650D01*
X20111039Y-14550650D02*
X20091991Y-14522079D01*
X20091991Y-14522079D02*
X20082468Y-14503031D01*
X20082468Y-14503031D02*
X20072944Y-14474460D01*
X20072944Y-14474460D02*
X20063420Y-14426841D01*
X20063420Y-14426841D02*
X20063420Y-14388746D01*
X20063420Y-14388746D02*
X20072944Y-14341127D01*
X20072944Y-14341127D02*
X20082468Y-14312555D01*
X20082468Y-14312555D02*
X20091991Y-14293508D01*
X20091991Y-14293508D02*
X20111039Y-14264936D01*
X20111039Y-14264936D02*
X20120563Y-14255412D01*
X20225325Y-14369698D02*
X20206277Y-14360174D01*
X20206277Y-14360174D02*
X20196753Y-14350650D01*
X20196753Y-14350650D02*
X20187230Y-14331603D01*
X20187230Y-14331603D02*
X20187230Y-14322079D01*
X20187230Y-14322079D02*
X20196753Y-14303031D01*
X20196753Y-14303031D02*
X20206277Y-14293508D01*
X20206277Y-14293508D02*
X20225325Y-14283984D01*
X20225325Y-14283984D02*
X20263420Y-14283984D01*
X20263420Y-14283984D02*
X20282468Y-14293508D01*
X20282468Y-14293508D02*
X20291991Y-14303031D01*
X20291991Y-14303031D02*
X20301515Y-14322079D01*
X20301515Y-14322079D02*
X20301515Y-14331603D01*
X20301515Y-14331603D02*
X20291991Y-14350650D01*
X20291991Y-14350650D02*
X20282468Y-14360174D01*
X20282468Y-14360174D02*
X20263420Y-14369698D01*
X20263420Y-14369698D02*
X20225325Y-14369698D01*
X20225325Y-14369698D02*
X20206277Y-14379222D01*
X20206277Y-14379222D02*
X20196753Y-14388746D01*
X20196753Y-14388746D02*
X20187230Y-14407793D01*
X20187230Y-14407793D02*
X20187230Y-14445888D01*
X20187230Y-14445888D02*
X20196753Y-14464936D01*
X20196753Y-14464936D02*
X20206277Y-14474460D01*
X20206277Y-14474460D02*
X20225325Y-14483984D01*
X20225325Y-14483984D02*
X20263420Y-14483984D01*
X20263420Y-14483984D02*
X20282468Y-14474460D01*
X20282468Y-14474460D02*
X20291991Y-14464936D01*
X20291991Y-14464936D02*
X20301515Y-14445888D01*
X20301515Y-14445888D02*
X20301515Y-14407793D01*
X20301515Y-14407793D02*
X20291991Y-14388746D01*
X20291991Y-14388746D02*
X20282468Y-14379222D01*
X20282468Y-14379222D02*
X20263420Y-14369698D01*
X20539611Y-14483984D02*
X20539611Y-14283984D01*
X20625325Y-14483984D02*
X20625325Y-14379222D01*
X20625325Y-14379222D02*
X20615801Y-14360174D01*
X20615801Y-14360174D02*
X20596753Y-14350650D01*
X20596753Y-14350650D02*
X20568182Y-14350650D01*
X20568182Y-14350650D02*
X20549134Y-14360174D01*
X20549134Y-14360174D02*
X20539611Y-14369698D01*
X20749134Y-14483984D02*
X20730087Y-14474460D01*
X20730087Y-14474460D02*
X20720563Y-14464936D01*
X20720563Y-14464936D02*
X20711039Y-14445888D01*
X20711039Y-14445888D02*
X20711039Y-14388746D01*
X20711039Y-14388746D02*
X20720563Y-14369698D01*
X20720563Y-14369698D02*
X20730087Y-14360174D01*
X20730087Y-14360174D02*
X20749134Y-14350650D01*
X20749134Y-14350650D02*
X20777706Y-14350650D01*
X20777706Y-14350650D02*
X20796753Y-14360174D01*
X20796753Y-14360174D02*
X20806277Y-14369698D01*
X20806277Y-14369698D02*
X20815801Y-14388746D01*
X20815801Y-14388746D02*
X20815801Y-14445888D01*
X20815801Y-14445888D02*
X20806277Y-14464936D01*
X20806277Y-14464936D02*
X20796753Y-14474460D01*
X20796753Y-14474460D02*
X20777706Y-14483984D01*
X20777706Y-14483984D02*
X20749134Y-14483984D01*
X20930087Y-14483984D02*
X20911039Y-14474460D01*
X20911039Y-14474460D02*
X20901515Y-14455412D01*
X20901515Y-14455412D02*
X20901515Y-14283984D01*
X21082468Y-14474460D02*
X21063420Y-14483984D01*
X21063420Y-14483984D02*
X21025325Y-14483984D01*
X21025325Y-14483984D02*
X21006277Y-14474460D01*
X21006277Y-14474460D02*
X20996753Y-14455412D01*
X20996753Y-14455412D02*
X20996753Y-14379222D01*
X20996753Y-14379222D02*
X21006277Y-14360174D01*
X21006277Y-14360174D02*
X21025325Y-14350650D01*
X21025325Y-14350650D02*
X21063420Y-14350650D01*
X21063420Y-14350650D02*
X21082468Y-14360174D01*
X21082468Y-14360174D02*
X21091992Y-14379222D01*
X21091992Y-14379222D02*
X21091992Y-14398269D01*
X21091992Y-14398269D02*
X20996753Y-14417317D01*
X21168182Y-14474460D02*
X21187230Y-14483984D01*
X21187230Y-14483984D02*
X21225325Y-14483984D01*
X21225325Y-14483984D02*
X21244373Y-14474460D01*
X21244373Y-14474460D02*
X21253896Y-14455412D01*
X21253896Y-14455412D02*
X21253896Y-14445888D01*
X21253896Y-14445888D02*
X21244373Y-14426841D01*
X21244373Y-14426841D02*
X21225325Y-14417317D01*
X21225325Y-14417317D02*
X21196753Y-14417317D01*
X21196753Y-14417317D02*
X21177706Y-14407793D01*
X21177706Y-14407793D02*
X21168182Y-14388746D01*
X21168182Y-14388746D02*
X21168182Y-14379222D01*
X21168182Y-14379222D02*
X21177706Y-14360174D01*
X21177706Y-14360174D02*
X21196753Y-14350650D01*
X21196753Y-14350650D02*
X21225325Y-14350650D01*
X21225325Y-14350650D02*
X21244373Y-14360174D01*
X21320563Y-14560174D02*
X21330087Y-14550650D01*
X21330087Y-14550650D02*
X21349134Y-14522079D01*
X21349134Y-14522079D02*
X21358658Y-14503031D01*
X21358658Y-14503031D02*
X21368182Y-14474460D01*
X21368182Y-14474460D02*
X21377706Y-14426841D01*
X21377706Y-14426841D02*
X21377706Y-14388746D01*
X21377706Y-14388746D02*
X21368182Y-14341127D01*
X21368182Y-14341127D02*
X21358658Y-14312555D01*
X21358658Y-14312555D02*
X21349134Y-14293508D01*
X21349134Y-14293508D02*
X21330087Y-14264936D01*
X21330087Y-14264936D02*
X21320563Y-14255412D01*
D14*
X16470500Y-14731500D02*
X16545500Y-14656500D01*
X16470500Y-14581500D01*
X16395500Y-14656500D01*
X16470500Y-14731500D01*
D11*
X16911039Y-14747984D02*
X16796753Y-14747984D01*
X16853896Y-14747984D02*
X16853896Y-14547984D01*
X16853896Y-14547984D02*
X16834848Y-14576555D01*
X16834848Y-14576555D02*
X16815801Y-14595603D01*
X16815801Y-14595603D02*
X16796753Y-14605127D01*
X16996753Y-14728936D02*
X17006277Y-14738460D01*
X17006277Y-14738460D02*
X16996753Y-14747984D01*
X16996753Y-14747984D02*
X16987229Y-14738460D01*
X16987229Y-14738460D02*
X16996753Y-14728936D01*
X16996753Y-14728936D02*
X16996753Y-14747984D01*
X17187229Y-14547984D02*
X17091991Y-14547984D01*
X17091991Y-14547984D02*
X17082467Y-14643222D01*
X17082467Y-14643222D02*
X17091991Y-14633698D01*
X17091991Y-14633698D02*
X17111039Y-14624174D01*
X17111039Y-14624174D02*
X17158658Y-14624174D01*
X17158658Y-14624174D02*
X17177705Y-14633698D01*
X17177705Y-14633698D02*
X17187229Y-14643222D01*
X17187229Y-14643222D02*
X17196753Y-14662269D01*
X17196753Y-14662269D02*
X17196753Y-14709888D01*
X17196753Y-14709888D02*
X17187229Y-14728936D01*
X17187229Y-14728936D02*
X17177705Y-14738460D01*
X17177705Y-14738460D02*
X17158658Y-14747984D01*
X17158658Y-14747984D02*
X17111039Y-14747984D01*
X17111039Y-14747984D02*
X17091991Y-14738460D01*
X17091991Y-14738460D02*
X17082467Y-14728936D01*
X17320563Y-14547984D02*
X17339610Y-14547984D01*
X17339610Y-14547984D02*
X17358658Y-14557508D01*
X17358658Y-14557508D02*
X17368182Y-14567031D01*
X17368182Y-14567031D02*
X17377705Y-14586079D01*
X17377705Y-14586079D02*
X17387229Y-14624174D01*
X17387229Y-14624174D02*
X17387229Y-14671793D01*
X17387229Y-14671793D02*
X17377705Y-14709888D01*
X17377705Y-14709888D02*
X17368182Y-14728936D01*
X17368182Y-14728936D02*
X17358658Y-14738460D01*
X17358658Y-14738460D02*
X17339610Y-14747984D01*
X17339610Y-14747984D02*
X17320563Y-14747984D01*
X17320563Y-14747984D02*
X17301515Y-14738460D01*
X17301515Y-14738460D02*
X17291991Y-14728936D01*
X17291991Y-14728936D02*
X17282467Y-14709888D01*
X17282467Y-14709888D02*
X17272944Y-14671793D01*
X17272944Y-14671793D02*
X17272944Y-14624174D01*
X17272944Y-14624174D02*
X17282467Y-14586079D01*
X17282467Y-14586079D02*
X17291991Y-14567031D01*
X17291991Y-14567031D02*
X17301515Y-14557508D01*
X17301515Y-14557508D02*
X17320563Y-14547984D01*
X17511039Y-14547984D02*
X17530086Y-14547984D01*
X17530086Y-14547984D02*
X17549134Y-14557508D01*
X17549134Y-14557508D02*
X17558658Y-14567031D01*
X17558658Y-14567031D02*
X17568182Y-14586079D01*
X17568182Y-14586079D02*
X17577705Y-14624174D01*
X17577705Y-14624174D02*
X17577705Y-14671793D01*
X17577705Y-14671793D02*
X17568182Y-14709888D01*
X17568182Y-14709888D02*
X17558658Y-14728936D01*
X17558658Y-14728936D02*
X17549134Y-14738460D01*
X17549134Y-14738460D02*
X17530086Y-14747984D01*
X17530086Y-14747984D02*
X17511039Y-14747984D01*
X17511039Y-14747984D02*
X17491991Y-14738460D01*
X17491991Y-14738460D02*
X17482467Y-14728936D01*
X17482467Y-14728936D02*
X17472944Y-14709888D01*
X17472944Y-14709888D02*
X17463420Y-14671793D01*
X17463420Y-14671793D02*
X17463420Y-14624174D01*
X17463420Y-14624174D02*
X17472944Y-14586079D01*
X17472944Y-14586079D02*
X17482467Y-14567031D01*
X17482467Y-14567031D02*
X17491991Y-14557508D01*
X17491991Y-14557508D02*
X17511039Y-14547984D01*
X17663420Y-14747984D02*
X17663420Y-14614650D01*
X17663420Y-14633698D02*
X17672944Y-14624174D01*
X17672944Y-14624174D02*
X17691991Y-14614650D01*
X17691991Y-14614650D02*
X17720563Y-14614650D01*
X17720563Y-14614650D02*
X17739610Y-14624174D01*
X17739610Y-14624174D02*
X17749134Y-14643222D01*
X17749134Y-14643222D02*
X17749134Y-14747984D01*
X17749134Y-14643222D02*
X17758658Y-14624174D01*
X17758658Y-14624174D02*
X17777705Y-14614650D01*
X17777705Y-14614650D02*
X17806277Y-14614650D01*
X17806277Y-14614650D02*
X17825325Y-14624174D01*
X17825325Y-14624174D02*
X17834848Y-14643222D01*
X17834848Y-14643222D02*
X17834848Y-14747984D01*
X17930086Y-14747984D02*
X17930086Y-14614650D01*
X17930086Y-14633698D02*
X17939610Y-14624174D01*
X17939610Y-14624174D02*
X17958658Y-14614650D01*
X17958658Y-14614650D02*
X17987229Y-14614650D01*
X17987229Y-14614650D02*
X18006277Y-14624174D01*
X18006277Y-14624174D02*
X18015801Y-14643222D01*
X18015801Y-14643222D02*
X18015801Y-14747984D01*
X18015801Y-14643222D02*
X18025325Y-14624174D01*
X18025325Y-14624174D02*
X18044372Y-14614650D01*
X18044372Y-14614650D02*
X18072944Y-14614650D01*
X18072944Y-14614650D02*
X18091991Y-14624174D01*
X18091991Y-14624174D02*
X18101515Y-14643222D01*
X18101515Y-14643222D02*
X18101515Y-14747984D01*
X18491991Y-14538460D02*
X18320563Y-14795603D01*
X18749134Y-14547984D02*
X18768182Y-14547984D01*
X18768182Y-14547984D02*
X18787229Y-14557508D01*
X18787229Y-14557508D02*
X18796753Y-14567031D01*
X18796753Y-14567031D02*
X18806277Y-14586079D01*
X18806277Y-14586079D02*
X18815801Y-14624174D01*
X18815801Y-14624174D02*
X18815801Y-14671793D01*
X18815801Y-14671793D02*
X18806277Y-14709888D01*
X18806277Y-14709888D02*
X18796753Y-14728936D01*
X18796753Y-14728936D02*
X18787229Y-14738460D01*
X18787229Y-14738460D02*
X18768182Y-14747984D01*
X18768182Y-14747984D02*
X18749134Y-14747984D01*
X18749134Y-14747984D02*
X18730087Y-14738460D01*
X18730087Y-14738460D02*
X18720563Y-14728936D01*
X18720563Y-14728936D02*
X18711039Y-14709888D01*
X18711039Y-14709888D02*
X18701515Y-14671793D01*
X18701515Y-14671793D02*
X18701515Y-14624174D01*
X18701515Y-14624174D02*
X18711039Y-14586079D01*
X18711039Y-14586079D02*
X18720563Y-14567031D01*
X18720563Y-14567031D02*
X18730087Y-14557508D01*
X18730087Y-14557508D02*
X18749134Y-14547984D01*
X18901515Y-14728936D02*
X18911039Y-14738460D01*
X18911039Y-14738460D02*
X18901515Y-14747984D01*
X18901515Y-14747984D02*
X18891991Y-14738460D01*
X18891991Y-14738460D02*
X18901515Y-14728936D01*
X18901515Y-14728936D02*
X18901515Y-14747984D01*
X19034848Y-14547984D02*
X19053896Y-14547984D01*
X19053896Y-14547984D02*
X19072944Y-14557508D01*
X19072944Y-14557508D02*
X19082468Y-14567031D01*
X19082468Y-14567031D02*
X19091991Y-14586079D01*
X19091991Y-14586079D02*
X19101515Y-14624174D01*
X19101515Y-14624174D02*
X19101515Y-14671793D01*
X19101515Y-14671793D02*
X19091991Y-14709888D01*
X19091991Y-14709888D02*
X19082468Y-14728936D01*
X19082468Y-14728936D02*
X19072944Y-14738460D01*
X19072944Y-14738460D02*
X19053896Y-14747984D01*
X19053896Y-14747984D02*
X19034848Y-14747984D01*
X19034848Y-14747984D02*
X19015801Y-14738460D01*
X19015801Y-14738460D02*
X19006277Y-14728936D01*
X19006277Y-14728936D02*
X18996753Y-14709888D01*
X18996753Y-14709888D02*
X18987229Y-14671793D01*
X18987229Y-14671793D02*
X18987229Y-14624174D01*
X18987229Y-14624174D02*
X18996753Y-14586079D01*
X18996753Y-14586079D02*
X19006277Y-14567031D01*
X19006277Y-14567031D02*
X19015801Y-14557508D01*
X19015801Y-14557508D02*
X19034848Y-14547984D01*
X19282468Y-14547984D02*
X19187229Y-14547984D01*
X19187229Y-14547984D02*
X19177706Y-14643222D01*
X19177706Y-14643222D02*
X19187229Y-14633698D01*
X19187229Y-14633698D02*
X19206277Y-14624174D01*
X19206277Y-14624174D02*
X19253896Y-14624174D01*
X19253896Y-14624174D02*
X19272944Y-14633698D01*
X19272944Y-14633698D02*
X19282468Y-14643222D01*
X19282468Y-14643222D02*
X19291991Y-14662269D01*
X19291991Y-14662269D02*
X19291991Y-14709888D01*
X19291991Y-14709888D02*
X19282468Y-14728936D01*
X19282468Y-14728936D02*
X19272944Y-14738460D01*
X19272944Y-14738460D02*
X19253896Y-14747984D01*
X19253896Y-14747984D02*
X19206277Y-14747984D01*
X19206277Y-14747984D02*
X19187229Y-14738460D01*
X19187229Y-14738460D02*
X19177706Y-14728936D01*
X19387229Y-14747984D02*
X19425325Y-14747984D01*
X19425325Y-14747984D02*
X19444372Y-14738460D01*
X19444372Y-14738460D02*
X19453896Y-14728936D01*
X19453896Y-14728936D02*
X19472944Y-14700365D01*
X19472944Y-14700365D02*
X19482468Y-14662269D01*
X19482468Y-14662269D02*
X19482468Y-14586079D01*
X19482468Y-14586079D02*
X19472944Y-14567031D01*
X19472944Y-14567031D02*
X19463420Y-14557508D01*
X19463420Y-14557508D02*
X19444372Y-14547984D01*
X19444372Y-14547984D02*
X19406277Y-14547984D01*
X19406277Y-14547984D02*
X19387229Y-14557508D01*
X19387229Y-14557508D02*
X19377706Y-14567031D01*
X19377706Y-14567031D02*
X19368182Y-14586079D01*
X19368182Y-14586079D02*
X19368182Y-14633698D01*
X19368182Y-14633698D02*
X19377706Y-14652746D01*
X19377706Y-14652746D02*
X19387229Y-14662269D01*
X19387229Y-14662269D02*
X19406277Y-14671793D01*
X19406277Y-14671793D02*
X19444372Y-14671793D01*
X19444372Y-14671793D02*
X19463420Y-14662269D01*
X19463420Y-14662269D02*
X19472944Y-14652746D01*
X19472944Y-14652746D02*
X19482468Y-14633698D01*
X19672944Y-14747984D02*
X19558658Y-14747984D01*
X19615801Y-14747984D02*
X19615801Y-14547984D01*
X19615801Y-14547984D02*
X19596753Y-14576555D01*
X19596753Y-14576555D02*
X19577706Y-14595603D01*
X19577706Y-14595603D02*
X19558658Y-14605127D01*
X19749134Y-14547984D02*
X19749134Y-14586079D01*
X19825325Y-14547984D02*
X19825325Y-14586079D01*
X20120563Y-14824174D02*
X20111039Y-14814650D01*
X20111039Y-14814650D02*
X20091991Y-14786079D01*
X20091991Y-14786079D02*
X20082468Y-14767031D01*
X20082468Y-14767031D02*
X20072944Y-14738460D01*
X20072944Y-14738460D02*
X20063420Y-14690841D01*
X20063420Y-14690841D02*
X20063420Y-14652746D01*
X20063420Y-14652746D02*
X20072944Y-14605127D01*
X20072944Y-14605127D02*
X20082468Y-14576555D01*
X20082468Y-14576555D02*
X20091991Y-14557508D01*
X20091991Y-14557508D02*
X20111039Y-14528936D01*
X20111039Y-14528936D02*
X20120563Y-14519412D01*
X20225325Y-14633698D02*
X20206277Y-14624174D01*
X20206277Y-14624174D02*
X20196753Y-14614650D01*
X20196753Y-14614650D02*
X20187230Y-14595603D01*
X20187230Y-14595603D02*
X20187230Y-14586079D01*
X20187230Y-14586079D02*
X20196753Y-14567031D01*
X20196753Y-14567031D02*
X20206277Y-14557508D01*
X20206277Y-14557508D02*
X20225325Y-14547984D01*
X20225325Y-14547984D02*
X20263420Y-14547984D01*
X20263420Y-14547984D02*
X20282468Y-14557508D01*
X20282468Y-14557508D02*
X20291991Y-14567031D01*
X20291991Y-14567031D02*
X20301515Y-14586079D01*
X20301515Y-14586079D02*
X20301515Y-14595603D01*
X20301515Y-14595603D02*
X20291991Y-14614650D01*
X20291991Y-14614650D02*
X20282468Y-14624174D01*
X20282468Y-14624174D02*
X20263420Y-14633698D01*
X20263420Y-14633698D02*
X20225325Y-14633698D01*
X20225325Y-14633698D02*
X20206277Y-14643222D01*
X20206277Y-14643222D02*
X20196753Y-14652746D01*
X20196753Y-14652746D02*
X20187230Y-14671793D01*
X20187230Y-14671793D02*
X20187230Y-14709888D01*
X20187230Y-14709888D02*
X20196753Y-14728936D01*
X20196753Y-14728936D02*
X20206277Y-14738460D01*
X20206277Y-14738460D02*
X20225325Y-14747984D01*
X20225325Y-14747984D02*
X20263420Y-14747984D01*
X20263420Y-14747984D02*
X20282468Y-14738460D01*
X20282468Y-14738460D02*
X20291991Y-14728936D01*
X20291991Y-14728936D02*
X20301515Y-14709888D01*
X20301515Y-14709888D02*
X20301515Y-14671793D01*
X20301515Y-14671793D02*
X20291991Y-14652746D01*
X20291991Y-14652746D02*
X20282468Y-14643222D01*
X20282468Y-14643222D02*
X20263420Y-14633698D01*
X20539611Y-14747984D02*
X20539611Y-14547984D01*
X20625325Y-14747984D02*
X20625325Y-14643222D01*
X20625325Y-14643222D02*
X20615801Y-14624174D01*
X20615801Y-14624174D02*
X20596753Y-14614650D01*
X20596753Y-14614650D02*
X20568182Y-14614650D01*
X20568182Y-14614650D02*
X20549134Y-14624174D01*
X20549134Y-14624174D02*
X20539611Y-14633698D01*
X20749134Y-14747984D02*
X20730087Y-14738460D01*
X20730087Y-14738460D02*
X20720563Y-14728936D01*
X20720563Y-14728936D02*
X20711039Y-14709888D01*
X20711039Y-14709888D02*
X20711039Y-14652746D01*
X20711039Y-14652746D02*
X20720563Y-14633698D01*
X20720563Y-14633698D02*
X20730087Y-14624174D01*
X20730087Y-14624174D02*
X20749134Y-14614650D01*
X20749134Y-14614650D02*
X20777706Y-14614650D01*
X20777706Y-14614650D02*
X20796753Y-14624174D01*
X20796753Y-14624174D02*
X20806277Y-14633698D01*
X20806277Y-14633698D02*
X20815801Y-14652746D01*
X20815801Y-14652746D02*
X20815801Y-14709888D01*
X20815801Y-14709888D02*
X20806277Y-14728936D01*
X20806277Y-14728936D02*
X20796753Y-14738460D01*
X20796753Y-14738460D02*
X20777706Y-14747984D01*
X20777706Y-14747984D02*
X20749134Y-14747984D01*
X20930087Y-14747984D02*
X20911039Y-14738460D01*
X20911039Y-14738460D02*
X20901515Y-14719412D01*
X20901515Y-14719412D02*
X20901515Y-14547984D01*
X21082468Y-14738460D02*
X21063420Y-14747984D01*
X21063420Y-14747984D02*
X21025325Y-14747984D01*
X21025325Y-14747984D02*
X21006277Y-14738460D01*
X21006277Y-14738460D02*
X20996753Y-14719412D01*
X20996753Y-14719412D02*
X20996753Y-14643222D01*
X20996753Y-14643222D02*
X21006277Y-14624174D01*
X21006277Y-14624174D02*
X21025325Y-14614650D01*
X21025325Y-14614650D02*
X21063420Y-14614650D01*
X21063420Y-14614650D02*
X21082468Y-14624174D01*
X21082468Y-14624174D02*
X21091992Y-14643222D01*
X21091992Y-14643222D02*
X21091992Y-14662269D01*
X21091992Y-14662269D02*
X20996753Y-14681317D01*
X21168182Y-14738460D02*
X21187230Y-14747984D01*
X21187230Y-14747984D02*
X21225325Y-14747984D01*
X21225325Y-14747984D02*
X21244373Y-14738460D01*
X21244373Y-14738460D02*
X21253896Y-14719412D01*
X21253896Y-14719412D02*
X21253896Y-14709888D01*
X21253896Y-14709888D02*
X21244373Y-14690841D01*
X21244373Y-14690841D02*
X21225325Y-14681317D01*
X21225325Y-14681317D02*
X21196753Y-14681317D01*
X21196753Y-14681317D02*
X21177706Y-14671793D01*
X21177706Y-14671793D02*
X21168182Y-14652746D01*
X21168182Y-14652746D02*
X21168182Y-14643222D01*
X21168182Y-14643222D02*
X21177706Y-14624174D01*
X21177706Y-14624174D02*
X21196753Y-14614650D01*
X21196753Y-14614650D02*
X21225325Y-14614650D01*
X21225325Y-14614650D02*
X21244373Y-14624174D01*
X21320563Y-14824174D02*
X21330087Y-14814650D01*
X21330087Y-14814650D02*
X21349134Y-14786079D01*
X21349134Y-14786079D02*
X21358658Y-14767031D01*
X21358658Y-14767031D02*
X21368182Y-14738460D01*
X21368182Y-14738460D02*
X21377706Y-14690841D01*
X21377706Y-14690841D02*
X21377706Y-14652746D01*
X21377706Y-14652746D02*
X21368182Y-14605127D01*
X21368182Y-14605127D02*
X21358658Y-14576555D01*
X21358658Y-14576555D02*
X21349134Y-14557508D01*
X21349134Y-14557508D02*
X21330087Y-14528936D01*
X21330087Y-14528936D02*
X21320563Y-14519412D01*
M02*
