M48
; DRILL file {KiCad 9.0.2} date 2025-06-30T11:24:57-0400
; FORMAT={-:-/ absolute / metric / decimal}
; #@! TF.CreationDate,2025-06-30T11:24:57-04:00
; #@! TF.GenerationSoftware,Kicad,Pcbnew,9.0.2
; #@! TF.FileFunction,Plated,1,2,PTH
FMAT,2
METRIC
; #@! TA.AperFunction,Plated,PTH,ViaDrill
T1C0.300
; #@! TA.AperFunction,Plated,PTH,ComponentDrill
T2C0.700
; #@! TA.AperFunction,Plated,PTH,ComponentDrill
T3C0.889
; #@! TA.AperFunction,Plated,PTH,ComponentDrill
T4C1.210
; #@! TA.AperFunction,Plated,PTH,ComponentDrill
T5C1.500
%
G90
G05
T1
X177.749Y-73.512
X179.2Y-71.4
X179.5Y-77.0
X183.0Y-73.5
X183.5Y-83.0
X183.566Y-58.156
X184.34Y-57.956
X184.45Y-84.04
X184.83Y-58.588
X185.58Y-58.31
X187.77Y-60.688
X189.25Y-59.22
X191.6Y-60.0
X192.4Y-60.0
X192.56Y-82.1
X192.56Y-83.91
X193.5Y-83.0
X194.0Y-73.5
X194.902Y-73.446
X195.5Y-71.0
X196.01Y-76.99
X196.349Y-73.499
X197.5Y-77.0
X198.0Y-71.0
X198.556Y-72.394
X198.6Y-67.5
X199.384Y-71.526
X199.434Y-66.414
X199.47Y-64.68
X200.37Y-73.36
T2
X168.0Y-76.5
X168.0Y-81.58
X185.901Y-63.27
X190.981Y-63.27
X203.16Y-64.01
X203.16Y-69.09
X209.0Y-76.46
X209.0Y-81.54
T3
X191.2Y-40.4
X191.2Y-42.94
X191.2Y-45.48
X191.2Y-48.02
X191.2Y-50.56
X191.2Y-53.1
X191.2Y-55.64
X206.44Y-40.4
X206.44Y-42.94
X206.44Y-45.48
X206.44Y-48.02
X206.44Y-50.56
X206.44Y-53.1
X206.44Y-55.64
T4
X173.46Y-78.0
X176.0Y-78.0
X188.441Y-66.23
X188.441Y-68.77
X200.96Y-78.0
X203.5Y-78.0
X205.82Y-66.603
X208.36Y-66.603
T5
X174.56Y-96.79
X174.56Y-116.79
X180.91Y-94.25
X180.91Y-114.25
X194.41Y-96.75
X194.41Y-116.75
X200.76Y-94.21
X200.76Y-114.21
M30
