%TF.GenerationSoftware,KiCad,Pcbnew,9.0.2*%
%TF.CreationDate,2025-06-30T11:25:01-04:00*%
%TF.ProjectId,magi_controller,6d616769-5f63-46f6-9e74-726f6c6c6572,rev?*%
%TF.SameCoordinates,Original*%
%TF.FileFunction,Legend,Top*%
%TF.FilePolarity,Positive*%
%FSLAX46Y46*%
G04 Gerber Fmt 4.6, Leading zero omitted, Abs format (unit mm)*
G04 Created by KiCad (PCBNEW 9.0.2) date 2025-06-30 11:25:01*
%MOMM*%
%LPD*%
G01*
G04 APERTURE LIST*
%ADD10C,0.100000*%
%ADD11C,0.000000*%
%ADD12C,0.052916*%
%ADD13C,0.240000*%
%ADD14C,0.280000*%
%ADD15C,0.150000*%
%ADD16C,0.101600*%
%ADD17C,0.120000*%
%ADD18C,0.127000*%
%ADD19C,0.200000*%
%ADD20C,0.504000*%
G04 APERTURE END LIST*
D10*
X197500000Y-71000000D02*
X192500000Y-75000000D01*
X184000000Y-83500000D02*
X193000000Y-83500000D01*
X193875000Y-73900000D02*
X196900000Y-76925000D01*
X179500000Y-61000000D02*
X197500000Y-61000000D01*
D11*
G36*
X172241000Y-45704750D02*
G01*
X172212374Y-45707591D01*
X172180538Y-45713954D01*
X172146192Y-45723581D01*
X172110031Y-45736211D01*
X172072754Y-45751585D01*
X172035059Y-45769444D01*
X171997643Y-45789528D01*
X171961203Y-45811576D01*
X171926438Y-45835330D01*
X171894044Y-45860529D01*
X171864721Y-45886914D01*
X171839164Y-45914226D01*
X171828016Y-45928148D01*
X171818072Y-45942204D01*
X171809419Y-45956362D01*
X171802143Y-45970589D01*
X171796332Y-45984853D01*
X171792074Y-45999122D01*
X171789455Y-46013362D01*
X171788563Y-46027542D01*
X171788563Y-49946021D01*
X171774777Y-49944102D01*
X171759391Y-49943189D01*
X171742664Y-49943114D01*
X171724856Y-49943706D01*
X171687034Y-49946207D01*
X171648003Y-49949328D01*
X171609840Y-49951706D01*
X171591733Y-49952189D01*
X171574622Y-49951974D01*
X171558767Y-49950892D01*
X171544428Y-49948770D01*
X171537907Y-49947267D01*
X171531863Y-49945440D01*
X171526328Y-49943268D01*
X171521333Y-49940729D01*
X171520093Y-49939856D01*
X171518850Y-49938732D01*
X171517604Y-49937372D01*
X171516352Y-49935789D01*
X171513822Y-49932009D01*
X171511246Y-49927500D01*
X171508608Y-49922371D01*
X171505892Y-49916731D01*
X171500167Y-49904349D01*
X171493945Y-49891223D01*
X171490609Y-49884653D01*
X171487103Y-49878221D01*
X171483411Y-49872038D01*
X171479517Y-49866212D01*
X171477489Y-49863466D01*
X171475406Y-49860850D01*
X171473264Y-49858378D01*
X171471063Y-49856062D01*
X171092398Y-49462810D01*
X170717827Y-49065496D01*
X169977490Y-48262279D01*
X168507730Y-46646667D01*
X168399250Y-46617563D01*
X168399250Y-49263396D01*
X168425378Y-49360630D01*
X168445015Y-49433060D01*
X168457459Y-49477708D01*
X168466944Y-49499990D01*
X168477038Y-49521213D01*
X168487728Y-49541403D01*
X168499001Y-49560587D01*
X168510846Y-49578790D01*
X168523251Y-49596038D01*
X168536203Y-49612358D01*
X168549691Y-49627777D01*
X168563701Y-49642319D01*
X168578223Y-49656011D01*
X168593244Y-49668880D01*
X168608752Y-49680952D01*
X168624734Y-49692252D01*
X168641179Y-49702807D01*
X168658075Y-49712643D01*
X168675409Y-49721786D01*
X168693170Y-49730263D01*
X168711344Y-49738099D01*
X168729921Y-49745321D01*
X168748888Y-49751955D01*
X168768233Y-49758027D01*
X168787943Y-49763563D01*
X168828413Y-49773132D01*
X168870200Y-49780872D01*
X168913209Y-49786992D01*
X168957341Y-49791701D01*
X169002500Y-49795208D01*
X169002500Y-49975126D01*
X167491730Y-49975126D01*
X167491730Y-49795208D01*
X167550617Y-49791992D01*
X167607128Y-49787085D01*
X167661120Y-49780163D01*
X167712450Y-49770900D01*
X167760973Y-49758971D01*
X167806547Y-49744049D01*
X167828184Y-49735364D01*
X167849029Y-49725810D01*
X167869065Y-49715344D01*
X167888274Y-49703927D01*
X167906638Y-49691518D01*
X167924139Y-49678076D01*
X167940760Y-49663561D01*
X167956481Y-49647931D01*
X167971287Y-49631146D01*
X167985157Y-49613165D01*
X167998076Y-49593949D01*
X168010023Y-49573455D01*
X168020983Y-49551643D01*
X168030936Y-49528473D01*
X168039865Y-49503904D01*
X168047752Y-49477894D01*
X168054579Y-49450405D01*
X168060329Y-49421394D01*
X168064982Y-49390821D01*
X168068521Y-49358646D01*
X168068521Y-46212750D01*
X168066596Y-46206289D01*
X168063353Y-46198854D01*
X168053220Y-46181326D01*
X168038738Y-46160690D01*
X168020524Y-46137468D01*
X167999194Y-46112185D01*
X167975364Y-46085363D01*
X167922670Y-46029196D01*
X167867371Y-45973153D01*
X167814397Y-45921419D01*
X167768679Y-45878182D01*
X167735146Y-45847626D01*
X167712218Y-45828567D01*
X167689263Y-45811736D01*
X167666563Y-45796635D01*
X167644402Y-45782761D01*
X167602829Y-45756701D01*
X167583982Y-45743514D01*
X167566805Y-45729555D01*
X167558932Y-45722131D01*
X167551582Y-45714326D01*
X167544791Y-45706078D01*
X167538595Y-45697325D01*
X167533028Y-45688004D01*
X167528127Y-45678053D01*
X167523926Y-45667409D01*
X167520462Y-45656009D01*
X167517768Y-45643792D01*
X167515881Y-45630695D01*
X167514836Y-45616655D01*
X167514669Y-45601609D01*
X167515414Y-45585496D01*
X167517107Y-45568253D01*
X167519784Y-45549817D01*
X167523480Y-45530125D01*
X168989271Y-45530125D01*
X168989271Y-45530124D01*
X171362583Y-48080708D01*
X171455187Y-48101875D01*
X171455187Y-46241854D01*
X171429060Y-46144620D01*
X171409423Y-46072190D01*
X171396979Y-46027542D01*
X171388222Y-46006942D01*
X171378831Y-45987292D01*
X171368822Y-45968565D01*
X171358211Y-45950735D01*
X171347015Y-45933775D01*
X171335250Y-45917659D01*
X171322933Y-45902359D01*
X171310080Y-45887850D01*
X171296707Y-45874104D01*
X171282832Y-45861095D01*
X171268470Y-45848797D01*
X171253639Y-45837181D01*
X171238354Y-45826223D01*
X171222632Y-45815895D01*
X171206489Y-45806171D01*
X171189942Y-45797024D01*
X171173008Y-45788427D01*
X171155703Y-45780353D01*
X171120045Y-45765672D01*
X171083100Y-45752765D01*
X171045000Y-45741420D01*
X171005877Y-45731424D01*
X170965863Y-45722563D01*
X170925089Y-45714625D01*
X170883687Y-45707396D01*
X170883687Y-45527479D01*
X172241000Y-45527479D01*
X172241000Y-45704750D01*
G37*
D10*
X184000000Y-82625000D02*
X193000000Y-82625000D01*
X192500000Y-75000000D02*
X184500000Y-75000000D01*
X166500000Y-85250000D02*
X166500000Y-74500000D01*
X179500000Y-71000000D02*
X184500000Y-75000000D01*
X179500000Y-61000000D02*
X179500000Y-71000000D01*
X184000000Y-85250000D02*
X166500000Y-85250000D01*
X193000000Y-85250000D02*
X210500000Y-85250000D01*
X182550000Y-73460000D02*
X179512500Y-76487500D01*
X193000000Y-80000000D02*
X193000000Y-85250000D01*
X200000000Y-74500000D02*
X193000000Y-80000000D01*
X210500000Y-74500000D02*
X200000000Y-74500000D01*
X177000000Y-74500000D02*
X184000000Y-80000000D01*
X210500000Y-85250000D02*
X210500000Y-74500000D01*
D11*
G36*
X174536921Y-50277411D02*
G01*
X174825082Y-50294395D01*
X175104018Y-50324354D01*
X175369033Y-50370033D01*
X175615429Y-50434177D01*
X175730177Y-50474030D01*
X175838508Y-50519528D01*
X175939836Y-50571014D01*
X176033574Y-50628832D01*
X176119134Y-50693323D01*
X176195928Y-50764831D01*
X176263371Y-50843699D01*
X176320874Y-50930270D01*
X176355032Y-50994231D01*
X176384167Y-51058540D01*
X176408402Y-51123078D01*
X176427860Y-51187728D01*
X176442665Y-51252372D01*
X176452942Y-51316892D01*
X176458812Y-51381172D01*
X176460400Y-51445092D01*
X176457830Y-51508535D01*
X176451225Y-51571384D01*
X176440708Y-51633521D01*
X176426402Y-51694828D01*
X176408433Y-51755188D01*
X176386922Y-51814482D01*
X176361994Y-51872593D01*
X176333773Y-51929403D01*
X176302380Y-51984795D01*
X176267941Y-52038650D01*
X176230579Y-52090852D01*
X176190417Y-52141282D01*
X176147579Y-52189822D01*
X176102188Y-52236355D01*
X176054368Y-52280764D01*
X176004242Y-52322930D01*
X175951935Y-52362735D01*
X175897569Y-52400063D01*
X175841268Y-52434794D01*
X175783155Y-52466812D01*
X175723355Y-52495999D01*
X175661990Y-52522237D01*
X175599185Y-52545409D01*
X175535062Y-52565396D01*
X177228395Y-54412186D01*
X177532666Y-54592104D01*
X177533276Y-54617549D01*
X177533143Y-54629892D01*
X177532584Y-54641878D01*
X177531497Y-54653431D01*
X177529783Y-54664471D01*
X177527340Y-54674923D01*
X177524067Y-54684708D01*
X177522089Y-54689326D01*
X177519865Y-54693749D01*
X177517383Y-54697966D01*
X177514631Y-54701968D01*
X177511596Y-54705745D01*
X177508266Y-54709288D01*
X177504627Y-54712587D01*
X177500668Y-54715631D01*
X177496376Y-54718412D01*
X177491737Y-54720920D01*
X177486740Y-54723145D01*
X177481372Y-54725078D01*
X177475620Y-54726708D01*
X177469472Y-54728026D01*
X177462915Y-54729022D01*
X177455937Y-54729687D01*
X175929291Y-54713812D01*
X174127479Y-52763832D01*
X174021645Y-52732083D01*
X174021645Y-54200520D01*
X174024291Y-54197874D01*
X174028640Y-54219391D01*
X174034213Y-54240283D01*
X174040963Y-54260542D01*
X174048843Y-54280164D01*
X174057806Y-54299143D01*
X174067806Y-54317472D01*
X174078795Y-54335146D01*
X174090727Y-54352160D01*
X174103553Y-54368506D01*
X174117228Y-54384181D01*
X174131705Y-54399177D01*
X174146935Y-54413489D01*
X174162873Y-54427111D01*
X174179471Y-54440038D01*
X174196683Y-54452263D01*
X174214461Y-54463780D01*
X174232758Y-54474585D01*
X174251528Y-54484671D01*
X174270723Y-54494031D01*
X174290296Y-54502662D01*
X174310201Y-54510555D01*
X174330390Y-54517707D01*
X174350816Y-54524111D01*
X174371433Y-54529760D01*
X174392193Y-54534651D01*
X174413050Y-54538775D01*
X174433956Y-54542129D01*
X174454865Y-54544705D01*
X174475729Y-54546498D01*
X174496501Y-54547503D01*
X174517135Y-54547713D01*
X174537583Y-54547123D01*
X174538353Y-54570476D01*
X174539774Y-54596030D01*
X174540312Y-54609235D01*
X174540513Y-54622514D01*
X174540210Y-54635708D01*
X174539237Y-54648658D01*
X174537426Y-54661204D01*
X174534612Y-54673188D01*
X174532776Y-54678920D01*
X174530627Y-54684452D01*
X174528143Y-54689764D01*
X174525305Y-54694836D01*
X174522090Y-54699648D01*
X174518479Y-54704181D01*
X174514450Y-54708414D01*
X174509983Y-54712328D01*
X174505056Y-54715903D01*
X174499649Y-54719119D01*
X174493742Y-54721956D01*
X174487312Y-54724394D01*
X172386521Y-54711165D01*
X172360062Y-54547123D01*
X172386952Y-54546426D01*
X172413054Y-54544835D01*
X172438370Y-54542355D01*
X172462903Y-54538990D01*
X172486655Y-54534745D01*
X172509628Y-54529625D01*
X172531826Y-54523635D01*
X172553249Y-54516779D01*
X172573901Y-54509063D01*
X172593785Y-54500492D01*
X172612902Y-54491070D01*
X172631255Y-54480802D01*
X172648846Y-54469693D01*
X172665678Y-54457748D01*
X172681754Y-54444972D01*
X172697075Y-54431369D01*
X172711644Y-54416944D01*
X172725464Y-54401703D01*
X172738537Y-54385649D01*
X172750865Y-54368789D01*
X172762451Y-54351126D01*
X172773297Y-54332666D01*
X172783406Y-54313413D01*
X172792780Y-54293372D01*
X172801421Y-54272549D01*
X172809332Y-54250947D01*
X172816516Y-54228572D01*
X172822974Y-54205429D01*
X172833725Y-54156857D01*
X172841603Y-54105270D01*
X172830436Y-53721645D01*
X172831640Y-53332190D01*
X172853179Y-52544228D01*
X172855691Y-52456916D01*
X174021645Y-52456916D01*
X174024291Y-52456916D01*
X174261217Y-52440586D01*
X174372921Y-52429104D01*
X174479540Y-52414087D01*
X174580640Y-52394543D01*
X174675786Y-52369480D01*
X174764546Y-52337905D01*
X174806395Y-52319366D01*
X174846484Y-52298828D01*
X174884759Y-52276165D01*
X174921167Y-52251254D01*
X174955652Y-52223972D01*
X174988160Y-52194193D01*
X175018637Y-52161795D01*
X175047030Y-52126652D01*
X175073283Y-52088642D01*
X175097342Y-52047639D01*
X175119153Y-52003520D01*
X175138662Y-51956161D01*
X175155815Y-51905438D01*
X175170557Y-51851227D01*
X175182834Y-51793404D01*
X175192592Y-51731844D01*
X175199776Y-51666424D01*
X175204333Y-51597020D01*
X175206970Y-51486735D01*
X175203728Y-51378636D01*
X175194246Y-51273482D01*
X175178164Y-51172033D01*
X175155121Y-51075049D01*
X175124757Y-50983290D01*
X175106716Y-50939607D01*
X175086710Y-50897515D01*
X175064694Y-50857109D01*
X175040622Y-50818484D01*
X175014450Y-50781734D01*
X174986131Y-50746956D01*
X174955622Y-50714243D01*
X174922877Y-50683691D01*
X174887852Y-50655395D01*
X174850500Y-50629449D01*
X174810777Y-50605949D01*
X174768639Y-50584989D01*
X174724039Y-50566665D01*
X174676933Y-50551071D01*
X174627276Y-50538303D01*
X174575023Y-50528455D01*
X174520128Y-50521623D01*
X174462547Y-50517901D01*
X174402234Y-50517384D01*
X174339145Y-50520167D01*
X174321627Y-50521835D01*
X174301194Y-50524833D01*
X174278405Y-50529126D01*
X174253817Y-50534677D01*
X174227990Y-50541454D01*
X174201480Y-50549421D01*
X174174845Y-50558542D01*
X174148645Y-50568784D01*
X174123438Y-50580111D01*
X174099780Y-50592488D01*
X174078231Y-50605880D01*
X174068422Y-50612946D01*
X174059348Y-50620253D01*
X174051082Y-50627797D01*
X174043690Y-50635572D01*
X174037245Y-50643575D01*
X174031815Y-50651802D01*
X174027471Y-50660247D01*
X174024281Y-50668907D01*
X174022316Y-50677777D01*
X174021645Y-50686854D01*
X174021645Y-52456916D01*
X172855691Y-52456916D01*
X172864522Y-52149937D01*
X172870253Y-51758251D01*
X172865876Y-51371277D01*
X172858492Y-51180216D01*
X172846895Y-50991124D01*
X172843604Y-50950542D01*
X172839537Y-50911165D01*
X172834478Y-50873021D01*
X172828209Y-50836136D01*
X172820515Y-50800538D01*
X172811177Y-50766254D01*
X172799978Y-50733311D01*
X172786703Y-50701736D01*
X172779025Y-50686854D01*
X172771133Y-50671556D01*
X172753051Y-50642799D01*
X172743001Y-50628962D01*
X172732241Y-50615491D01*
X172720745Y-50602390D01*
X172708485Y-50589660D01*
X172695435Y-50577307D01*
X172681567Y-50565333D01*
X172666854Y-50553742D01*
X172651269Y-50542537D01*
X172634785Y-50531721D01*
X172617374Y-50521298D01*
X172599010Y-50511272D01*
X172579666Y-50501645D01*
X172561852Y-50494424D01*
X172542454Y-50488396D01*
X172521931Y-50483205D01*
X172500746Y-50478495D01*
X172458232Y-50469090D01*
X172437825Y-50463682D01*
X172418601Y-50457328D01*
X172401020Y-50449672D01*
X172392990Y-50445245D01*
X172385544Y-50440358D01*
X172378739Y-50434967D01*
X172372633Y-50429027D01*
X172367284Y-50422495D01*
X172362749Y-50415325D01*
X172359086Y-50407474D01*
X172356353Y-50398895D01*
X172354608Y-50389545D01*
X172353907Y-50379379D01*
X172354309Y-50368353D01*
X172355872Y-50356422D01*
X172358652Y-50343541D01*
X172362708Y-50329666D01*
X172364280Y-50325565D01*
X172366017Y-50321690D01*
X172367912Y-50318034D01*
X172369958Y-50314592D01*
X172372150Y-50311358D01*
X172374480Y-50308325D01*
X172376944Y-50305486D01*
X172379534Y-50302836D01*
X172382244Y-50300368D01*
X172385067Y-50298076D01*
X172387999Y-50295953D01*
X172391032Y-50293994D01*
X172394159Y-50292192D01*
X172397375Y-50290540D01*
X172400674Y-50289033D01*
X172404049Y-50287664D01*
X172407493Y-50286426D01*
X172411001Y-50285314D01*
X172414566Y-50284322D01*
X172418182Y-50283442D01*
X172425542Y-50281995D01*
X172433029Y-50280925D01*
X172440594Y-50280180D01*
X172448186Y-50279711D01*
X172455754Y-50279466D01*
X172463249Y-50279395D01*
X172656098Y-50291356D01*
X172877302Y-50294340D01*
X173385984Y-50284356D01*
X173951717Y-50271396D01*
X174244234Y-50270659D01*
X174536921Y-50277411D01*
G37*
D10*
X183112500Y-73912500D02*
X180087500Y-76937500D01*
D11*
G36*
X178446470Y-38304354D02*
G01*
X178556786Y-38307554D01*
X178666276Y-38313831D01*
X178774270Y-38323411D01*
X178880097Y-38336517D01*
X178983088Y-38353375D01*
X179082571Y-38374210D01*
X179177875Y-38399246D01*
X179268332Y-38428708D01*
X179308805Y-38443260D01*
X179318274Y-38446937D01*
X179327352Y-38450846D01*
X179335972Y-38455096D01*
X179344069Y-38459796D01*
X179351577Y-38465055D01*
X179355090Y-38467927D01*
X179358430Y-38470979D01*
X179361590Y-38474225D01*
X179364562Y-38477679D01*
X179367337Y-38481354D01*
X179369907Y-38485263D01*
X179372264Y-38489420D01*
X179374400Y-38493838D01*
X179376306Y-38498532D01*
X179377974Y-38503515D01*
X179379396Y-38508800D01*
X179380564Y-38514400D01*
X179381469Y-38520331D01*
X179382103Y-38526604D01*
X179375809Y-38573740D01*
X179370693Y-38621787D01*
X179363251Y-38720039D01*
X179354322Y-38921164D01*
X179349857Y-39021741D01*
X179343407Y-39120800D01*
X179338974Y-39169401D01*
X179333485Y-39217192D01*
X179326757Y-39264030D01*
X179318603Y-39309770D01*
X179312900Y-39335441D01*
X179305844Y-39360853D01*
X179297633Y-39385993D01*
X179288465Y-39410850D01*
X179278537Y-39435412D01*
X179268048Y-39459668D01*
X179246173Y-39507216D01*
X179224422Y-39553399D01*
X179204377Y-39598125D01*
X179195488Y-39619912D01*
X179187618Y-39641301D01*
X179180965Y-39662278D01*
X179175727Y-39682833D01*
X179169436Y-39714246D01*
X179164343Y-39746860D01*
X179160280Y-39780513D01*
X179157082Y-39815042D01*
X179152612Y-39886076D01*
X179149600Y-39958661D01*
X179146711Y-40031494D01*
X179142613Y-40103272D01*
X179139694Y-40138359D01*
X179135973Y-40172694D01*
X179131283Y-40206115D01*
X179125457Y-40238458D01*
X179118640Y-40267919D01*
X179110233Y-40296795D01*
X179100447Y-40325121D01*
X179089490Y-40352931D01*
X179077572Y-40380261D01*
X179064903Y-40407145D01*
X179038145Y-40459716D01*
X178984815Y-40561043D01*
X178972742Y-40585783D01*
X178961591Y-40610357D01*
X178951573Y-40634800D01*
X178942895Y-40659145D01*
X178891389Y-40823884D01*
X178842891Y-40998267D01*
X178748095Y-41361945D01*
X178698388Y-41544233D01*
X178644867Y-41722150D01*
X178616143Y-41808374D01*
X178585827Y-41892191D01*
X178553704Y-41973164D01*
X178519562Y-42050854D01*
X178514632Y-42060230D01*
X178508340Y-42070462D01*
X178492049Y-42093244D01*
X178471449Y-42118716D01*
X178447298Y-42146393D01*
X178391384Y-42206425D01*
X178330385Y-42269466D01*
X178270378Y-42331637D01*
X178242646Y-42361187D01*
X178217441Y-42389065D01*
X178195522Y-42414789D01*
X178177650Y-42437874D01*
X178164584Y-42457834D01*
X178160090Y-42466492D01*
X178157083Y-42474187D01*
X178153686Y-42485550D01*
X178150494Y-42498619D01*
X178147589Y-42513115D01*
X178145053Y-42528757D01*
X178142966Y-42545268D01*
X178141410Y-42562368D01*
X178140466Y-42579777D01*
X178140216Y-42597218D01*
X178140741Y-42614411D01*
X178142123Y-42631077D01*
X178144443Y-42646936D01*
X178147782Y-42661711D01*
X178152221Y-42675121D01*
X178154879Y-42681227D01*
X178157843Y-42686887D01*
X178161123Y-42692067D01*
X178164728Y-42696732D01*
X178168670Y-42700846D01*
X178172959Y-42704375D01*
X178180670Y-42709412D01*
X178188422Y-42713638D01*
X178196208Y-42717092D01*
X178204021Y-42719815D01*
X178211856Y-42721849D01*
X178219706Y-42723234D01*
X178227564Y-42724010D01*
X178235425Y-42724218D01*
X178243282Y-42723899D01*
X178251129Y-42723094D01*
X178258959Y-42721843D01*
X178266767Y-42720187D01*
X178282288Y-42715823D01*
X178297643Y-42710327D01*
X178312781Y-42704025D01*
X178327652Y-42697243D01*
X178356389Y-42683538D01*
X178370155Y-42677267D01*
X178383452Y-42671818D01*
X178396229Y-42667516D01*
X178402407Y-42665897D01*
X178408437Y-42664687D01*
X178412158Y-42664274D01*
X178415877Y-42664022D01*
X178423304Y-42663953D01*
X178430709Y-42664396D01*
X178438079Y-42665266D01*
X178445402Y-42666476D01*
X178452667Y-42667942D01*
X178466976Y-42671301D01*
X178480913Y-42674660D01*
X178487713Y-42676127D01*
X178494385Y-42677337D01*
X178500918Y-42678207D01*
X178507299Y-42678650D01*
X178513518Y-42678581D01*
X178516562Y-42678328D01*
X178519562Y-42677916D01*
X178530417Y-42675392D01*
X178541627Y-42670875D01*
X178553162Y-42664478D01*
X178564991Y-42656315D01*
X178577081Y-42646501D01*
X178589401Y-42635151D01*
X178614605Y-42608297D01*
X178640352Y-42576669D01*
X178666390Y-42541180D01*
X178692467Y-42502746D01*
X178718330Y-42462281D01*
X178887332Y-42175208D01*
X179157538Y-41765765D01*
X179236949Y-41650537D01*
X179311865Y-41547897D01*
X179346193Y-41504069D01*
X179377664Y-41466713D01*
X179405702Y-41436939D01*
X179429728Y-41415854D01*
X179460393Y-41395881D01*
X179516792Y-41361242D01*
X179671822Y-41268679D01*
X179824866Y-41179589D01*
X179878785Y-41149291D01*
X179905977Y-41135395D01*
X179925084Y-41129633D01*
X179943732Y-41125137D01*
X179961963Y-41121751D01*
X179979813Y-41119313D01*
X179997322Y-41117667D01*
X180014529Y-41116652D01*
X180048191Y-41115882D01*
X180081109Y-41115732D01*
X180113593Y-41114931D01*
X180129769Y-41113890D01*
X180145953Y-41112208D01*
X180162183Y-41109728D01*
X180178498Y-41106291D01*
X180184424Y-41104491D01*
X180190774Y-41102090D01*
X180204647Y-41095630D01*
X180219914Y-41087193D01*
X180236376Y-41077063D01*
X180253830Y-41065522D01*
X180272074Y-41052853D01*
X180310129Y-41025262D01*
X180348927Y-40996556D01*
X180386858Y-40968997D01*
X180404994Y-40956355D01*
X180422308Y-40944849D01*
X180438599Y-40934761D01*
X180453665Y-40926374D01*
X180772819Y-40748773D01*
X180858266Y-40702435D01*
X180940705Y-40659600D01*
X181017501Y-40622408D01*
X181052960Y-40606597D01*
X181086019Y-40592999D01*
X181108908Y-40585119D01*
X181130973Y-40579751D01*
X181152255Y-40576772D01*
X181172799Y-40576060D01*
X181192647Y-40577491D01*
X181211843Y-40580942D01*
X181230429Y-40586290D01*
X181248448Y-40593413D01*
X181265945Y-40602186D01*
X181282961Y-40612488D01*
X181299541Y-40624194D01*
X181315726Y-40637183D01*
X181331561Y-40651330D01*
X181347088Y-40666513D01*
X181377392Y-40699494D01*
X181406982Y-40735142D01*
X181436205Y-40772472D01*
X181494925Y-40848240D01*
X181525112Y-40884709D01*
X181556311Y-40918923D01*
X181572398Y-40934876D01*
X181588866Y-40949896D01*
X181605761Y-40963860D01*
X181623123Y-40976645D01*
X181666321Y-41005039D01*
X181708162Y-41030287D01*
X181748732Y-41052531D01*
X181788116Y-41071911D01*
X181826399Y-41088568D01*
X181863667Y-41102643D01*
X181900004Y-41114278D01*
X181935497Y-41123613D01*
X181970230Y-41130789D01*
X182004289Y-41135947D01*
X182037758Y-41139229D01*
X182070724Y-41140775D01*
X182103271Y-41140725D01*
X182135485Y-41139222D01*
X182199253Y-41132418D01*
X182262712Y-41121491D01*
X182326543Y-41107567D01*
X182458049Y-41075244D01*
X182527088Y-41059099D01*
X182599228Y-41044470D01*
X182675151Y-41032485D01*
X182755539Y-41024270D01*
X182827322Y-41020030D01*
X182889645Y-41018255D01*
X182943650Y-41018991D01*
X182990481Y-41022286D01*
X183011563Y-41024907D01*
X183031281Y-41028185D01*
X183049777Y-41032125D01*
X183067195Y-41036735D01*
X183083676Y-41042018D01*
X183099364Y-41047982D01*
X183114402Y-41054632D01*
X183128932Y-41061973D01*
X183157044Y-41078755D01*
X183184841Y-41098374D01*
X183213468Y-41120877D01*
X183244068Y-41146309D01*
X183315759Y-41206151D01*
X183359137Y-41240652D01*
X183409061Y-41278270D01*
X183422378Y-41287228D01*
X183437338Y-41296233D01*
X183453663Y-41305269D01*
X183471073Y-41314320D01*
X183508032Y-41332406D01*
X183545983Y-41350369D01*
X183582694Y-41368084D01*
X183599887Y-41376809D01*
X183615932Y-41385426D01*
X183630551Y-41393919D01*
X183643465Y-41402273D01*
X183654394Y-41410471D01*
X183663060Y-41418499D01*
X183669423Y-41425372D01*
X183675140Y-41432582D01*
X183680251Y-41440111D01*
X183684790Y-41447939D01*
X183688797Y-41456049D01*
X183692309Y-41464421D01*
X183695362Y-41473036D01*
X183697994Y-41481875D01*
X183702144Y-41500151D01*
X183705058Y-41519098D01*
X183707033Y-41538564D01*
X183708370Y-41558398D01*
X183710318Y-41598566D01*
X183711526Y-41618598D01*
X183713289Y-41638393D01*
X183715904Y-41657801D01*
X183719671Y-41676670D01*
X183722079Y-41685855D01*
X183724887Y-41694849D01*
X183728132Y-41703632D01*
X183731851Y-41712187D01*
X183734605Y-41717644D01*
X183737889Y-41723105D01*
X183741671Y-41728571D01*
X183745922Y-41734046D01*
X183750614Y-41739532D01*
X183755716Y-41745034D01*
X183767032Y-41756091D01*
X183779636Y-41767241D01*
X183793289Y-41778508D01*
X183822802Y-41801484D01*
X183853678Y-41825203D01*
X183869037Y-41837400D01*
X183884028Y-41849853D01*
X183898414Y-41862584D01*
X183911959Y-41875619D01*
X183924427Y-41888978D01*
X183930183Y-41895787D01*
X183935580Y-41902687D01*
X183950839Y-41924435D01*
X183965000Y-41946942D01*
X183978270Y-41970101D01*
X183990854Y-41993803D01*
X184014785Y-42042399D01*
X184038438Y-42091864D01*
X184050673Y-42116650D01*
X184063455Y-42141328D01*
X184076988Y-42165790D01*
X184091479Y-42189925D01*
X184107132Y-42213626D01*
X184124154Y-42236785D01*
X184142749Y-42259293D01*
X184163123Y-42281041D01*
X184177432Y-42295080D01*
X184191120Y-42307964D01*
X184204230Y-42319746D01*
X184216810Y-42330480D01*
X184228903Y-42340220D01*
X184240554Y-42349019D01*
X184251810Y-42356932D01*
X184262714Y-42364013D01*
X184273312Y-42370314D01*
X184283648Y-42375890D01*
X184293769Y-42380794D01*
X184303719Y-42385081D01*
X184313542Y-42388804D01*
X184323285Y-42392017D01*
X184342709Y-42397127D01*
X184362349Y-42400842D01*
X184382567Y-42403592D01*
X184426176Y-42407917D01*
X184450289Y-42410353D01*
X184476422Y-42413545D01*
X184504933Y-42417922D01*
X184536185Y-42423916D01*
X184553359Y-42427745D01*
X184569205Y-42431789D01*
X184583795Y-42436046D01*
X184597195Y-42440515D01*
X184609475Y-42445192D01*
X184620704Y-42450077D01*
X184630950Y-42455168D01*
X184640283Y-42460462D01*
X184648770Y-42465957D01*
X184656482Y-42471652D01*
X184663486Y-42477545D01*
X184669852Y-42483633D01*
X184675648Y-42489915D01*
X184680943Y-42496390D01*
X184685806Y-42503054D01*
X184690306Y-42509906D01*
X184698490Y-42524166D01*
X184706046Y-42539154D01*
X184721477Y-42571256D01*
X184730452Y-42588337D01*
X184741000Y-42606086D01*
X184747037Y-42615205D01*
X184753673Y-42624485D01*
X184760977Y-42633924D01*
X184769019Y-42643520D01*
X184810675Y-42693006D01*
X184865136Y-42759606D01*
X184994245Y-42917364D01*
X185059775Y-42995127D01*
X185119880Y-43063216D01*
X185146474Y-43091539D01*
X185170002Y-43114933D01*
X185189894Y-43132560D01*
X185205581Y-43143583D01*
X185213503Y-43147819D01*
X185221397Y-43151618D01*
X185229265Y-43155004D01*
X185237109Y-43158006D01*
X185252735Y-43162959D01*
X185268296Y-43166692D01*
X185283810Y-43169418D01*
X185299297Y-43171348D01*
X185314776Y-43172698D01*
X185330267Y-43173679D01*
X185361360Y-43175389D01*
X185377002Y-43176545D01*
X185392733Y-43178185D01*
X185408572Y-43180523D01*
X185424540Y-43183771D01*
X185440654Y-43188144D01*
X185456935Y-43193854D01*
X185485791Y-43213051D01*
X185543917Y-43255659D01*
X185708289Y-43380716D01*
X185870678Y-43508253D01*
X185926323Y-43553961D01*
X185943418Y-43568976D01*
X185951707Y-43577500D01*
X185957380Y-43586372D01*
X185962492Y-43595147D01*
X185967037Y-43603853D01*
X185971013Y-43612516D01*
X185974415Y-43621163D01*
X185977240Y-43629822D01*
X185979483Y-43638520D01*
X185981141Y-43647283D01*
X185982210Y-43656140D01*
X185982686Y-43665117D01*
X185982565Y-43674241D01*
X185981844Y-43683540D01*
X185980518Y-43693040D01*
X185978583Y-43702768D01*
X185976036Y-43712753D01*
X185972873Y-43723020D01*
X185954513Y-43745504D01*
X185937986Y-43769188D01*
X185923080Y-43793912D01*
X185909580Y-43819511D01*
X185897274Y-43845823D01*
X185885949Y-43872686D01*
X185875391Y-43899936D01*
X185865387Y-43927411D01*
X185846189Y-43982384D01*
X185826650Y-44036304D01*
X185816220Y-44062461D01*
X185805065Y-44087866D01*
X185792972Y-44112357D01*
X185779727Y-44135770D01*
X185774630Y-44143850D01*
X185769273Y-44151734D01*
X185757858Y-44166988D01*
X185745637Y-44181692D01*
X185732764Y-44196004D01*
X185677863Y-44252517D01*
X185664060Y-44267256D01*
X185650536Y-44282557D01*
X185637446Y-44298579D01*
X185624946Y-44315480D01*
X185618965Y-44324310D01*
X185613189Y-44333420D01*
X185607639Y-44342829D01*
X185602332Y-44352558D01*
X185597289Y-44362626D01*
X185592529Y-44373052D01*
X185588072Y-44383858D01*
X185583936Y-44395062D01*
X185575130Y-44422302D01*
X185567441Y-44451260D01*
X185560681Y-44481667D01*
X185554666Y-44513256D01*
X185544124Y-44578911D01*
X185534326Y-44646085D01*
X185523785Y-44712639D01*
X185517770Y-44745015D01*
X185511010Y-44776434D01*
X185503321Y-44806628D01*
X185494516Y-44835329D01*
X185484408Y-44862272D01*
X185472812Y-44887187D01*
X185463681Y-44898996D01*
X185446891Y-44916048D01*
X185423466Y-44937573D01*
X185394429Y-44962800D01*
X185323611Y-45021272D01*
X185242624Y-45085294D01*
X185159652Y-45148695D01*
X185082881Y-45205307D01*
X185020497Y-45248958D01*
X184997258Y-45263995D01*
X184980685Y-45273479D01*
X184944255Y-45290566D01*
X184906535Y-45306247D01*
X184867721Y-45320726D01*
X184828013Y-45334209D01*
X184746700Y-45359008D01*
X184664178Y-45382289D01*
X184582028Y-45405693D01*
X184501831Y-45430864D01*
X184462960Y-45444626D01*
X184425169Y-45459447D01*
X184388658Y-45475530D01*
X184353624Y-45493083D01*
X184329811Y-45506844D01*
X184305999Y-45522182D01*
X184282187Y-45538877D01*
X184258374Y-45556707D01*
X184234562Y-45575452D01*
X184210749Y-45594891D01*
X184163124Y-45634966D01*
X184115499Y-45675165D01*
X184067874Y-45713721D01*
X184044062Y-45731830D01*
X184020250Y-45748866D01*
X183996437Y-45764607D01*
X183972625Y-45778833D01*
X183954121Y-45788338D01*
X183935350Y-45797080D01*
X183916355Y-45805163D01*
X183897177Y-45812691D01*
X183858445Y-45826504D01*
X183819496Y-45839356D01*
X183780672Y-45852084D01*
X183742312Y-45865525D01*
X183723414Y-45872775D01*
X183704759Y-45880517D01*
X183686391Y-45888855D01*
X183668353Y-45897896D01*
X183638898Y-45915141D01*
X183608202Y-45935774D01*
X183576451Y-45959276D01*
X183543833Y-45985125D01*
X183476736Y-46041794D01*
X183408400Y-46101625D01*
X183340311Y-46160463D01*
X183306824Y-46188212D01*
X183273958Y-46214155D01*
X183241898Y-46237773D01*
X183210830Y-46258545D01*
X183180941Y-46275954D01*
X183166496Y-46283234D01*
X183152415Y-46289479D01*
X183140887Y-46293424D01*
X183123689Y-46298222D01*
X183075397Y-46309818D01*
X183013773Y-46323151D01*
X182945048Y-46337104D01*
X182811227Y-46362404D01*
X182758594Y-46371520D01*
X182723790Y-46376791D01*
X182697136Y-46379467D01*
X182670667Y-46380713D01*
X182644261Y-46380773D01*
X182617792Y-46379892D01*
X182564173Y-46376279D01*
X182508817Y-46371830D01*
X182480178Y-46369902D01*
X182450733Y-46368497D01*
X182420357Y-46367859D01*
X182388927Y-46368233D01*
X182356320Y-46369863D01*
X182322409Y-46372993D01*
X182287073Y-46377867D01*
X182250186Y-46384729D01*
X182159259Y-46405824D01*
X182064874Y-46430581D01*
X181968227Y-46459253D01*
X181870509Y-46492092D01*
X181772916Y-46529349D01*
X181676640Y-46571276D01*
X181582875Y-46618125D01*
X181492816Y-46670148D01*
X181407656Y-46727598D01*
X181328589Y-46790725D01*
X181291713Y-46824496D01*
X181256807Y-46859782D01*
X181224022Y-46896613D01*
X181193506Y-46935021D01*
X181165409Y-46975037D01*
X181139879Y-47016694D01*
X181117066Y-47060021D01*
X181097120Y-47105052D01*
X181080188Y-47151817D01*
X181066421Y-47200348D01*
X181055968Y-47250676D01*
X181048978Y-47302833D01*
X181046496Y-47334249D01*
X181045458Y-47362606D01*
X181045807Y-47388041D01*
X181047485Y-47410687D01*
X181050431Y-47430680D01*
X181054588Y-47448156D01*
X181059897Y-47463248D01*
X181066300Y-47476094D01*
X181073737Y-47486827D01*
X181082151Y-47495583D01*
X181091482Y-47502497D01*
X181101672Y-47507704D01*
X181112663Y-47511340D01*
X181124395Y-47513539D01*
X181136810Y-47514437D01*
X181149850Y-47514169D01*
X181163456Y-47512870D01*
X181177569Y-47510675D01*
X181207082Y-47504138D01*
X181269616Y-47486263D01*
X181301698Y-47477087D01*
X181333700Y-47469194D01*
X181365151Y-47463666D01*
X181380523Y-47462126D01*
X181395582Y-47461582D01*
X181406180Y-47461810D01*
X181416644Y-47462475D01*
X181437202Y-47464998D01*
X181457311Y-47468925D01*
X181477024Y-47474026D01*
X181496396Y-47480073D01*
X181515482Y-47486837D01*
X181553009Y-47501601D01*
X181590040Y-47516489D01*
X181608506Y-47523408D01*
X181627010Y-47529672D01*
X181645607Y-47535052D01*
X181664351Y-47539320D01*
X181683297Y-47542247D01*
X181692862Y-47543136D01*
X181702499Y-47543604D01*
X181717970Y-47543010D01*
X181733624Y-47541330D01*
X181749455Y-47538721D01*
X181765462Y-47535336D01*
X181781638Y-47531331D01*
X181797982Y-47526861D01*
X181831153Y-47517145D01*
X181864944Y-47507430D01*
X181882062Y-47502960D01*
X181899324Y-47498955D01*
X181916726Y-47495570D01*
X181934262Y-47492961D01*
X181951931Y-47491281D01*
X181969728Y-47490687D01*
X182016879Y-47492418D01*
X182067639Y-47497467D01*
X182121398Y-47505616D01*
X182177549Y-47516649D01*
X182235483Y-47530349D01*
X182294591Y-47546497D01*
X182354265Y-47564879D01*
X182413897Y-47585276D01*
X182472877Y-47607471D01*
X182530598Y-47631247D01*
X182586450Y-47656388D01*
X182639826Y-47682676D01*
X182690117Y-47709894D01*
X182736714Y-47737825D01*
X182779009Y-47766252D01*
X182816394Y-47794958D01*
X182825653Y-47805520D01*
X182841850Y-47827241D01*
X182891056Y-47897939D01*
X183028722Y-48104852D01*
X183165396Y-48316229D01*
X183213362Y-48392508D01*
X183237082Y-48432604D01*
X183264470Y-48499690D01*
X183310339Y-48621037D01*
X183430228Y-48951849D01*
X183542180Y-49275715D01*
X183578127Y-49388380D01*
X183588108Y-49424229D01*
X183591624Y-49443312D01*
X183582033Y-49727739D01*
X183582991Y-49759932D01*
X183585294Y-49792800D01*
X183589201Y-49826768D01*
X183594973Y-49862263D01*
X183602868Y-49899712D01*
X183613147Y-49939540D01*
X183626069Y-49982175D01*
X183641895Y-50028041D01*
X183648458Y-50045113D01*
X183655243Y-50061153D01*
X183662238Y-50076227D01*
X183669433Y-50090404D01*
X183676815Y-50103752D01*
X183684374Y-50116338D01*
X183692099Y-50128230D01*
X183699978Y-50139497D01*
X183708001Y-50150205D01*
X183716156Y-50160423D01*
X183732818Y-50179660D01*
X183749876Y-50197749D01*
X183767240Y-50215234D01*
X183802530Y-50250560D01*
X183820277Y-50269486D01*
X183837975Y-50289979D01*
X183846777Y-50300982D01*
X183855533Y-50312580D01*
X183864231Y-50324840D01*
X183872862Y-50337832D01*
X183881413Y-50351621D01*
X183889873Y-50366277D01*
X183898232Y-50381867D01*
X183906478Y-50398459D01*
X183928332Y-50447285D01*
X183947488Y-50496499D01*
X183964288Y-50546054D01*
X183979073Y-50595904D01*
X183992183Y-50646001D01*
X184003960Y-50696300D01*
X184024879Y-50797317D01*
X184044557Y-50898582D01*
X184065724Y-50999724D01*
X184077718Y-51050131D01*
X184091107Y-51100368D01*
X184106232Y-51150389D01*
X184123435Y-51200145D01*
X184117645Y-51223025D01*
X184110261Y-51243624D01*
X184101378Y-51262067D01*
X184091091Y-51278476D01*
X184079496Y-51292975D01*
X184066689Y-51305685D01*
X184052764Y-51316731D01*
X184037818Y-51326236D01*
X184021945Y-51334322D01*
X184005242Y-51341112D01*
X183987803Y-51346730D01*
X183969724Y-51351299D01*
X183951100Y-51354941D01*
X183932028Y-51357780D01*
X183892917Y-51361541D01*
X183813506Y-51364838D01*
X183774732Y-51366343D01*
X183737598Y-51369065D01*
X183702867Y-51373989D01*
X183686641Y-51377584D01*
X183671302Y-51382098D01*
X183656946Y-51387655D01*
X183643668Y-51394378D01*
X183631563Y-51402389D01*
X183620727Y-51411812D01*
X183618141Y-51415441D01*
X183613554Y-51422984D01*
X183599560Y-51447613D01*
X183560534Y-51519629D01*
X183522500Y-51592638D01*
X183509746Y-51618507D01*
X183505966Y-51626857D01*
X183504310Y-51631417D01*
X183500196Y-51653113D01*
X183499151Y-51674546D01*
X183501004Y-51695717D01*
X183505582Y-51716626D01*
X183512713Y-51737273D01*
X183522228Y-51757659D01*
X183533954Y-51777784D01*
X183547719Y-51797650D01*
X183563352Y-51817255D01*
X183580682Y-51836601D01*
X183599537Y-51855689D01*
X183619746Y-51874518D01*
X183663538Y-51911404D01*
X183710686Y-51947263D01*
X183759819Y-51982099D01*
X183809564Y-52015915D01*
X183905403Y-52080505D01*
X183948753Y-52111287D01*
X183987227Y-52141065D01*
X184019454Y-52169843D01*
X184032796Y-52183858D01*
X184044061Y-52197624D01*
X184064649Y-52229974D01*
X184102600Y-52294198D01*
X184206779Y-52476099D01*
X184308974Y-52658992D01*
X184344445Y-52724456D01*
X184361560Y-52758541D01*
X184374978Y-52797381D01*
X184387414Y-52841927D01*
X184398820Y-52891371D01*
X184409145Y-52944907D01*
X184418337Y-53001731D01*
X184426348Y-53061035D01*
X184433126Y-53122013D01*
X184438621Y-53183859D01*
X184442783Y-53245767D01*
X184445561Y-53306932D01*
X184446906Y-53366546D01*
X184446765Y-53423803D01*
X184445090Y-53477898D01*
X184441830Y-53528024D01*
X184436934Y-53573375D01*
X184430352Y-53613145D01*
X184427815Y-53624006D01*
X184424691Y-53634766D01*
X184421010Y-53645432D01*
X184416808Y-53656011D01*
X184412115Y-53666510D01*
X184406964Y-53676938D01*
X184395419Y-53697605D01*
X184382432Y-53718071D01*
X184368263Y-53738393D01*
X184353171Y-53758630D01*
X184337417Y-53778840D01*
X184304959Y-53819411D01*
X184272966Y-53860571D01*
X184257794Y-53881518D01*
X184243516Y-53902786D01*
X184230394Y-53924433D01*
X184218686Y-53946519D01*
X184187955Y-54017931D01*
X184161103Y-54094774D01*
X184137918Y-54176337D01*
X184118186Y-54261911D01*
X184101694Y-54350787D01*
X184088229Y-54442256D01*
X184077578Y-54535609D01*
X184069527Y-54630137D01*
X184063864Y-54725129D01*
X184060375Y-54819877D01*
X184059068Y-55005804D01*
X184063900Y-55182243D01*
X184073165Y-55343520D01*
X184079378Y-55406238D01*
X184088761Y-55466618D01*
X184100827Y-55524992D01*
X184115085Y-55581687D01*
X184131050Y-55637033D01*
X184148231Y-55691360D01*
X184184291Y-55798273D01*
X184219358Y-55905063D01*
X184235299Y-55959235D01*
X184249527Y-56014364D01*
X184261553Y-56070779D01*
X184270890Y-56128811D01*
X184277048Y-56188789D01*
X184279540Y-56251042D01*
X184279186Y-56260994D01*
X184278192Y-56271009D01*
X184276663Y-56281086D01*
X184274703Y-56291225D01*
X184269913Y-56311688D01*
X184264657Y-56332400D01*
X184259774Y-56353360D01*
X184257733Y-56363933D01*
X184256100Y-56374568D01*
X184254978Y-56385265D01*
X184254472Y-56396025D01*
X184254687Y-56406846D01*
X184255097Y-56412279D01*
X184255727Y-56417729D01*
X180474832Y-52425165D01*
X180474832Y-54724394D01*
X180247290Y-54724394D01*
X176633082Y-50805915D01*
X176601715Y-50771995D01*
X176570047Y-50738818D01*
X176537959Y-50706572D01*
X176505337Y-50675442D01*
X176472064Y-50645615D01*
X176438023Y-50617275D01*
X176403099Y-50590610D01*
X176367175Y-50565805D01*
X176330135Y-50543047D01*
X176291862Y-50522521D01*
X176272227Y-50513154D01*
X176252240Y-50504414D01*
X176231887Y-50496325D01*
X176211154Y-50488911D01*
X176190025Y-50482194D01*
X176168486Y-50476199D01*
X176146523Y-50470947D01*
X176124121Y-50466463D01*
X176101265Y-50462769D01*
X176077941Y-50459890D01*
X176054135Y-50457847D01*
X176029832Y-50456665D01*
X176029832Y-50276748D01*
X178342289Y-50276748D01*
X178387268Y-50459310D01*
X178302806Y-50465184D01*
X178264874Y-50469192D01*
X178229743Y-50473929D01*
X178197366Y-50479405D01*
X178167694Y-50485628D01*
X178140681Y-50492611D01*
X178116277Y-50500362D01*
X178094435Y-50508892D01*
X178075107Y-50518212D01*
X178058245Y-50528331D01*
X178043801Y-50539259D01*
X178031727Y-50551007D01*
X178021974Y-50563585D01*
X178014496Y-50577003D01*
X178009245Y-50591271D01*
X178006171Y-50606400D01*
X178005227Y-50622399D01*
X178006366Y-50639279D01*
X178009539Y-50657050D01*
X178014698Y-50675722D01*
X178021796Y-50695306D01*
X178030784Y-50715811D01*
X178041615Y-50737247D01*
X178054240Y-50759625D01*
X178068611Y-50782955D01*
X178102402Y-50832512D01*
X178142603Y-50885999D01*
X178188831Y-50943498D01*
X178364531Y-51150364D01*
X178552137Y-51362656D01*
X178748425Y-51578110D01*
X178950169Y-51794464D01*
X179357132Y-52220815D01*
X179747226Y-52623602D01*
X179788583Y-52667522D01*
X179833009Y-52715999D01*
X179880102Y-52766151D01*
X179904522Y-52790954D01*
X179929458Y-52815094D01*
X179954859Y-52838211D01*
X179980674Y-52859944D01*
X180006854Y-52879933D01*
X180033348Y-52897818D01*
X180046697Y-52905858D01*
X180060106Y-52913237D01*
X180073568Y-52919910D01*
X180087076Y-52925832D01*
X180100626Y-52930957D01*
X180114210Y-52935240D01*
X180127822Y-52938637D01*
X180141456Y-52941102D01*
X180141456Y-52017706D01*
X175423935Y-46921830D01*
X175423935Y-48781851D01*
X175419348Y-48787589D01*
X175414525Y-48792907D01*
X175409477Y-48797818D01*
X175404215Y-48802336D01*
X175398753Y-48806473D01*
X175393100Y-48810245D01*
X175387269Y-48813664D01*
X175381271Y-48816743D01*
X175375118Y-48819497D01*
X175368822Y-48821939D01*
X175362394Y-48824083D01*
X175355846Y-48825942D01*
X175342436Y-48828859D01*
X175328685Y-48830799D01*
X175314686Y-48831871D01*
X175300532Y-48832184D01*
X175286316Y-48831846D01*
X175272130Y-48830964D01*
X175258069Y-48829649D01*
X175244225Y-48828009D01*
X175217560Y-48824185D01*
X175198057Y-48699444D01*
X175185585Y-48639913D01*
X175171299Y-48582303D01*
X175155199Y-48526632D01*
X175137286Y-48472921D01*
X175117558Y-48421190D01*
X175096017Y-48371458D01*
X175072662Y-48323745D01*
X175047493Y-48278071D01*
X175020510Y-48234457D01*
X174991713Y-48192921D01*
X174961103Y-48153484D01*
X174928678Y-48116165D01*
X174894440Y-48080985D01*
X174858388Y-48047963D01*
X174820522Y-48017120D01*
X174780843Y-47988474D01*
X174739349Y-47962046D01*
X174696042Y-47937856D01*
X174650920Y-47915924D01*
X174603985Y-47896269D01*
X174555236Y-47878912D01*
X174504673Y-47863871D01*
X174452297Y-47851168D01*
X174398106Y-47840822D01*
X174342102Y-47832852D01*
X174284284Y-47827279D01*
X174224652Y-47824123D01*
X174163206Y-47823403D01*
X174099946Y-47825139D01*
X174034873Y-47829352D01*
X174034873Y-49509455D01*
X174035582Y-49520080D01*
X174037661Y-49530614D01*
X174041038Y-49541043D01*
X174045642Y-49551354D01*
X174051401Y-49561534D01*
X174058243Y-49571568D01*
X174066097Y-49581443D01*
X174074891Y-49591145D01*
X174084553Y-49600662D01*
X174095011Y-49609979D01*
X174106194Y-49619083D01*
X174118031Y-49627960D01*
X174130448Y-49636596D01*
X174143375Y-49644979D01*
X174170472Y-49660929D01*
X174198747Y-49675701D01*
X174227626Y-49689186D01*
X174256536Y-49701276D01*
X174284904Y-49711861D01*
X174312156Y-49720835D01*
X174337718Y-49728088D01*
X174361016Y-49733511D01*
X174381477Y-49736997D01*
X174509430Y-49748204D01*
X174636154Y-49752981D01*
X174761413Y-49751223D01*
X174884971Y-49742826D01*
X175006591Y-49727686D01*
X175126036Y-49705697D01*
X175243071Y-49676755D01*
X175357459Y-49640755D01*
X175468963Y-49597593D01*
X175577347Y-49547164D01*
X175682375Y-49489363D01*
X175783810Y-49424086D01*
X175881416Y-49351228D01*
X175974956Y-49270684D01*
X176064194Y-49182351D01*
X176148894Y-49086122D01*
X176177855Y-49048619D01*
X176205464Y-49008101D01*
X176232103Y-48965397D01*
X176258158Y-48921336D01*
X176310046Y-48832463D01*
X176336647Y-48789309D01*
X176364198Y-48748116D01*
X176393082Y-48709714D01*
X176423683Y-48674932D01*
X176439747Y-48659158D01*
X176456384Y-48644600D01*
X176473643Y-48631361D01*
X176491570Y-48619546D01*
X176510215Y-48609257D01*
X176529624Y-48600600D01*
X176549846Y-48593677D01*
X176570930Y-48588591D01*
X176592922Y-48585448D01*
X176615871Y-48584350D01*
X176639825Y-48585401D01*
X176664831Y-48588705D01*
X176667993Y-48595508D01*
X176669600Y-48607748D01*
X176668500Y-48647162D01*
X176662238Y-48704187D01*
X176651519Y-48776063D01*
X176619531Y-48953334D01*
X176578180Y-49156898D01*
X176489958Y-49554599D01*
X176431998Y-49792559D01*
X176426179Y-49816139D01*
X176420174Y-49842292D01*
X176413301Y-49869624D01*
X176409326Y-49883296D01*
X176404878Y-49896739D01*
X176399872Y-49909778D01*
X176394222Y-49922241D01*
X176387844Y-49933951D01*
X176384355Y-49939470D01*
X176380652Y-49944736D01*
X176376724Y-49949726D01*
X176372561Y-49954419D01*
X176368151Y-49958794D01*
X176363485Y-49962828D01*
X176358551Y-49966499D01*
X176353340Y-49969787D01*
X176347839Y-49972668D01*
X176342039Y-49975122D01*
X172397102Y-49967184D01*
X172381227Y-49826955D01*
X172446425Y-49804946D01*
X172505318Y-49782343D01*
X172558234Y-49758803D01*
X172582554Y-49746573D01*
X172605503Y-49733979D01*
X172627123Y-49720979D01*
X172647454Y-49707528D01*
X172666539Y-49693584D01*
X172684418Y-49679104D01*
X172701132Y-49664045D01*
X172716723Y-49648363D01*
X172731231Y-49632015D01*
X172744699Y-49614958D01*
X172757166Y-49597150D01*
X172768674Y-49578547D01*
X172779265Y-49559105D01*
X172788980Y-49538782D01*
X172797859Y-49517535D01*
X172805945Y-49495321D01*
X172813277Y-49472095D01*
X172819898Y-49447816D01*
X172831169Y-49395925D01*
X172840088Y-49339301D01*
X172846984Y-49277600D01*
X172852185Y-49210477D01*
X172870091Y-48882053D01*
X172883812Y-48516359D01*
X172892881Y-48125985D01*
X172896834Y-47723518D01*
X172896277Y-47585938D01*
X174024291Y-47585938D01*
X174122084Y-47582677D01*
X174223721Y-47577711D01*
X174327342Y-47569334D01*
X174379316Y-47563334D01*
X174431088Y-47555841D01*
X174482426Y-47546643D01*
X174533097Y-47535527D01*
X174582869Y-47522279D01*
X174631510Y-47506686D01*
X174678786Y-47488536D01*
X174724465Y-47467614D01*
X174768315Y-47443708D01*
X174810104Y-47416604D01*
X174825793Y-47404520D01*
X174842044Y-47390185D01*
X174875872Y-47355321D01*
X174910871Y-47313116D01*
X174946323Y-47264676D01*
X174981511Y-47211103D01*
X175015719Y-47153504D01*
X175048229Y-47092983D01*
X175078325Y-47030643D01*
X175105289Y-46967591D01*
X175128405Y-46904930D01*
X175146954Y-46843765D01*
X175160222Y-46785201D01*
X175164650Y-46757239D01*
X175167489Y-46730342D01*
X175168649Y-46704647D01*
X175168040Y-46680292D01*
X175165573Y-46657417D01*
X175161158Y-46636157D01*
X175154705Y-46616653D01*
X175146125Y-46599041D01*
X174400000Y-45800000D01*
X174390549Y-45794801D01*
X174380113Y-45790593D01*
X174368776Y-45787343D01*
X174356623Y-45785019D01*
X174343736Y-45783588D01*
X174330202Y-45783019D01*
X174316103Y-45783277D01*
X174301525Y-45784332D01*
X174271267Y-45788699D01*
X174240103Y-45795861D01*
X174208705Y-45805557D01*
X174177750Y-45817529D01*
X174147910Y-45831516D01*
X174119862Y-45847258D01*
X174094278Y-45864497D01*
X174082621Y-45873596D01*
X174071834Y-45882972D01*
X174062000Y-45892592D01*
X174053203Y-45902424D01*
X174045529Y-45912435D01*
X174039061Y-45922592D01*
X174033883Y-45932864D01*
X174030080Y-45943218D01*
X174027737Y-45953622D01*
X174026937Y-45964042D01*
X174026937Y-47583292D01*
X174024291Y-47585938D01*
X172896277Y-47585938D01*
X172895206Y-47321548D01*
X172887532Y-46932663D01*
X172873347Y-46569450D01*
X172852185Y-46244498D01*
X172845885Y-46185795D01*
X172837752Y-46131564D01*
X172827565Y-46081566D01*
X172815102Y-46035560D01*
X172807949Y-46013979D01*
X172800144Y-45993305D01*
X172791660Y-45973510D01*
X172782469Y-45954562D01*
X172772543Y-45936432D01*
X172761856Y-45919090D01*
X172750378Y-45902506D01*
X172738084Y-45886649D01*
X172724944Y-45871490D01*
X172710933Y-45856998D01*
X172696020Y-45843144D01*
X172680181Y-45829898D01*
X172663385Y-45817229D01*
X172645607Y-45805107D01*
X172626818Y-45793503D01*
X172606991Y-45782386D01*
X172564112Y-45761495D01*
X172516749Y-45742192D01*
X172464680Y-45724239D01*
X172407685Y-45707393D01*
X172399748Y-45532769D01*
X174124831Y-45532769D01*
X174116895Y-45530124D01*
X169883562Y-40860229D01*
X170592646Y-40296666D01*
X170599488Y-40302253D01*
X170605652Y-40308093D01*
X170611171Y-40314173D01*
X170616081Y-40320484D01*
X170620415Y-40327014D01*
X170624208Y-40333751D01*
X170627494Y-40340685D01*
X170630307Y-40347805D01*
X170632683Y-40355099D01*
X170634655Y-40362557D01*
X170636258Y-40370167D01*
X170637527Y-40377917D01*
X170639196Y-40393797D01*
X170639940Y-40410106D01*
X170640032Y-40426757D01*
X170639749Y-40443660D01*
X170639154Y-40477864D01*
X170639394Y-40494988D01*
X170640358Y-40512007D01*
X170642323Y-40528832D01*
X170643766Y-40537144D01*
X170645562Y-40545374D01*
X170685724Y-40682444D01*
X170747210Y-40839248D01*
X170827842Y-41012206D01*
X170925442Y-41197738D01*
X171037831Y-41392261D01*
X171162833Y-41592194D01*
X171298268Y-41793957D01*
X171441958Y-41993968D01*
X171591725Y-42188646D01*
X171745392Y-42374410D01*
X171900779Y-42547679D01*
X172055709Y-42704871D01*
X172208003Y-42842405D01*
X172355484Y-42956700D01*
X172426738Y-43004014D01*
X172495973Y-43044175D01*
X172562914Y-43076736D01*
X172627291Y-43101250D01*
X172657333Y-43109819D01*
X172688786Y-43116721D01*
X172721448Y-43122027D01*
X172755118Y-43125806D01*
X172789594Y-43128128D01*
X172824675Y-43129062D01*
X172860158Y-43128678D01*
X172895843Y-43127046D01*
X172931529Y-43124236D01*
X172967012Y-43120318D01*
X173002093Y-43115361D01*
X173036569Y-43109435D01*
X173070239Y-43102610D01*
X173102901Y-43094955D01*
X173134353Y-43086541D01*
X173164396Y-43077437D01*
X173183750Y-43069347D01*
X173210336Y-43055505D01*
X173243077Y-43036672D01*
X173280895Y-43013606D01*
X173367453Y-42957816D01*
X173461390Y-42894213D01*
X173554087Y-42828873D01*
X173636925Y-42767874D01*
X173701283Y-42717294D01*
X173723838Y-42697809D01*
X173738541Y-42683208D01*
X173757025Y-42656726D01*
X173778384Y-42618070D01*
X173802084Y-42568895D01*
X173827590Y-42510857D01*
X173881881Y-42374808D01*
X173936979Y-42223164D01*
X173988604Y-42069163D01*
X174032477Y-41926045D01*
X174064320Y-41807049D01*
X174074393Y-41760735D01*
X174079854Y-41725416D01*
X174083280Y-41687078D01*
X174085183Y-41649425D01*
X174084784Y-41575999D01*
X174079377Y-41504790D01*
X174069684Y-41435449D01*
X174056425Y-41367628D01*
X174040322Y-41300977D01*
X174022094Y-41235148D01*
X174002463Y-41169791D01*
X173961877Y-41039101D01*
X173942362Y-40973071D01*
X173924329Y-40906117D01*
X173908496Y-40837893D01*
X173895586Y-40768048D01*
X173886319Y-40696235D01*
X173881417Y-40622104D01*
X173917094Y-40541098D01*
X173956368Y-40462584D01*
X173998805Y-40386264D01*
X174043970Y-40311838D01*
X174091430Y-40239010D01*
X174140750Y-40167480D01*
X174243234Y-40027122D01*
X174451428Y-39748855D01*
X174501616Y-39678057D01*
X174550192Y-39606171D01*
X174596721Y-39532897D01*
X174640770Y-39457937D01*
X174653813Y-39456205D01*
X174666175Y-39454000D01*
X174677887Y-39451347D01*
X174688979Y-39448268D01*
X174699485Y-39444789D01*
X174709435Y-39440932D01*
X174718861Y-39436722D01*
X174727794Y-39432182D01*
X174736265Y-39427335D01*
X174744308Y-39422206D01*
X174751951Y-39416818D01*
X174759228Y-39411196D01*
X174766170Y-39405362D01*
X174772808Y-39399340D01*
X174785299Y-39386830D01*
X174796953Y-39373855D01*
X174808021Y-39360604D01*
X174829410Y-39334038D01*
X174840234Y-39321101D01*
X174851481Y-39308649D01*
X174863402Y-39296871D01*
X174869694Y-39291295D01*
X174876250Y-39285958D01*
X174919414Y-39256422D01*
X174978972Y-39221941D01*
X175052715Y-39183336D01*
X175138435Y-39141429D01*
X175336966Y-39050995D01*
X175556890Y-38957213D01*
X175780535Y-38866655D01*
X175990228Y-38785895D01*
X176168294Y-38721507D01*
X176297061Y-38680062D01*
X176345849Y-38667571D01*
X176394047Y-38657645D01*
X176441750Y-38649936D01*
X176489049Y-38644095D01*
X176536039Y-38639774D01*
X176582811Y-38636623D01*
X176676077Y-38632437D01*
X176769591Y-38628747D01*
X176864097Y-38622763D01*
X176911954Y-38618039D01*
X176960339Y-38611694D01*
X177009344Y-38603381D01*
X177059062Y-38592750D01*
X177098120Y-38582636D01*
X177136003Y-38570379D01*
X177172840Y-38556316D01*
X177208758Y-38540784D01*
X177243886Y-38524120D01*
X177278351Y-38506662D01*
X177345804Y-38470711D01*
X177412141Y-38435627D01*
X177445210Y-38419254D01*
X177478385Y-38404110D01*
X177511792Y-38390531D01*
X177545559Y-38378856D01*
X177579814Y-38369420D01*
X177614686Y-38362562D01*
X177804788Y-38337189D01*
X178010362Y-38317831D01*
X178226044Y-38306286D01*
X178335999Y-38304006D01*
X178446470Y-38304354D01*
G37*
D10*
X166500000Y-74500000D02*
X177000000Y-74500000D01*
X184000000Y-80000000D02*
X184000000Y-85250000D01*
D12*
X199142708Y-86372398D02*
X199360162Y-86415393D01*
X199463619Y-86437510D01*
X199552812Y-86458387D01*
X199612705Y-86467108D01*
X199709495Y-86473580D01*
X199992682Y-86480712D01*
X200769895Y-86478231D01*
X201986978Y-86458387D01*
X204421145Y-86352554D01*
X204937909Y-86377359D01*
X205816821Y-86431929D01*
X207014061Y-86511304D01*
X206180623Y-86570835D01*
X205540663Y-86622925D01*
X205282074Y-86648040D01*
X205109061Y-86670054D01*
X204834556Y-86717183D01*
X204540207Y-86769273D01*
X204209478Y-86828804D01*
X203865520Y-86795731D01*
X203539752Y-86761831D01*
X203204061Y-86722971D01*
X202921081Y-86707778D01*
X202438424Y-86700646D01*
X201166770Y-86703127D01*
X199446979Y-86722971D01*
X198997187Y-86802346D01*
X198915332Y-86799038D01*
X198826965Y-86796765D01*
X198719375Y-86795731D01*
X198601863Y-86797178D01*
X198483730Y-86802346D01*
X198427338Y-86806712D01*
X198374279Y-86812474D01*
X198325716Y-86819787D01*
X198282812Y-86828804D01*
X198263127Y-86834219D01*
X198243771Y-86840496D01*
X198224763Y-86847567D01*
X198206124Y-86855366D01*
X198187873Y-86863823D01*
X198170028Y-86872871D01*
X198152610Y-86882443D01*
X198135638Y-86892469D01*
X198119130Y-86902884D01*
X198103107Y-86913618D01*
X198087588Y-86924604D01*
X198072592Y-86935774D01*
X198044248Y-86958396D01*
X198018229Y-86980939D01*
X197994690Y-87002863D01*
X197973787Y-87023624D01*
X197955674Y-87042680D01*
X197940507Y-87059488D01*
X197919630Y-87084189D01*
X197912395Y-87093387D01*
X197947949Y-87136382D01*
X197987740Y-87182684D01*
X198038073Y-87238908D01*
X198095847Y-87300093D01*
X198126556Y-87330996D01*
X198157962Y-87361278D01*
X198189678Y-87390320D01*
X198221317Y-87417502D01*
X198252491Y-87442203D01*
X198282812Y-87463804D01*
X198297994Y-87473571D01*
X198313727Y-87483028D01*
X198346581Y-87501011D01*
X198380829Y-87517754D01*
X198415931Y-87533257D01*
X198451342Y-87547520D01*
X198486521Y-87560542D01*
X198520924Y-87572324D01*
X198554010Y-87582866D01*
X198614058Y-87600230D01*
X198662324Y-87612632D01*
X198706146Y-87622554D01*
X199647850Y-87641240D01*
X200591560Y-87651017D01*
X201643021Y-87649012D01*
X202056064Y-87642289D01*
X202451821Y-87631743D01*
X202820088Y-87618828D01*
X203150662Y-87604999D01*
X203891978Y-87569637D01*
X203934585Y-87569043D01*
X203982309Y-87567363D01*
X204088762Y-87561369D01*
X204202657Y-87552894D01*
X204315311Y-87543179D01*
X204502173Y-87524989D01*
X204579895Y-87516720D01*
X207014061Y-87781304D01*
X204474061Y-87992971D01*
X204453391Y-87983875D01*
X204426622Y-87973437D01*
X204388072Y-87959898D01*
X204337119Y-87943878D01*
X204273143Y-87925998D01*
X204195525Y-87906878D01*
X204103645Y-87887137D01*
X203838545Y-87871944D01*
X203302453Y-87864813D01*
X201781926Y-87867293D01*
X199499896Y-87887137D01*
X199456694Y-87888920D01*
X199407291Y-87893959D01*
X199352928Y-87901788D01*
X199294844Y-87911942D01*
X199234279Y-87923957D01*
X199172474Y-87937367D01*
X199050104Y-87966512D01*
X198937656Y-87995658D01*
X198845052Y-88021082D01*
X198759062Y-88045887D01*
X198722682Y-88028524D01*
X198680928Y-88009610D01*
X198626771Y-87986356D01*
X198562692Y-87960621D01*
X198491172Y-87934266D01*
X198414690Y-87909151D01*
X198375365Y-87897640D01*
X198335729Y-87887137D01*
X198295499Y-87876634D01*
X198254494Y-87865123D01*
X198213178Y-87852837D01*
X198172018Y-87840008D01*
X198092023Y-87813653D01*
X198018229Y-87787918D01*
X197954357Y-87764664D01*
X197904127Y-87745750D01*
X197859479Y-87728387D01*
X197858652Y-87710197D01*
X197856688Y-87689320D01*
X197852864Y-87662241D01*
X197850061Y-87646764D01*
X197846560Y-87630202D01*
X197842284Y-87612709D01*
X197837155Y-87594442D01*
X197831096Y-87575554D01*
X197824029Y-87556201D01*
X197815877Y-87536538D01*
X197806562Y-87516720D01*
X197801451Y-87506802D01*
X197796059Y-87496903D01*
X197790415Y-87487042D01*
X197784548Y-87477240D01*
X197772262Y-87457887D01*
X197759433Y-87438999D01*
X197746295Y-87420732D01*
X197733079Y-87403239D01*
X197720017Y-87386677D01*
X197707344Y-87371200D01*
X197695290Y-87356963D01*
X197684089Y-87344121D01*
X197665176Y-87323244D01*
X197647813Y-87305054D01*
X197638097Y-87318697D01*
X197609779Y-87354663D01*
X197589031Y-87378693D01*
X197564097Y-87405513D01*
X197535132Y-87434193D01*
X197502292Y-87463804D01*
X197465731Y-87493415D01*
X197425604Y-87522095D01*
X197382066Y-87548915D01*
X197359067Y-87561337D01*
X197335274Y-87572945D01*
X197310705Y-87583622D01*
X197285380Y-87593253D01*
X197259319Y-87601722D01*
X197232541Y-87608911D01*
X197205065Y-87614706D01*
X197176911Y-87618988D01*
X197148099Y-87621643D01*
X197118646Y-87622554D01*
X197088966Y-87621415D01*
X197059490Y-87618097D01*
X197030265Y-87612743D01*
X197001341Y-87605501D01*
X196972765Y-87596514D01*
X196944587Y-87585928D01*
X196916855Y-87573889D01*
X196889616Y-87560542D01*
X196862921Y-87546032D01*
X196836816Y-87530505D01*
X196811351Y-87514106D01*
X196786573Y-87496980D01*
X196762533Y-87479273D01*
X196739277Y-87461130D01*
X196695313Y-87424116D01*
X196655070Y-87387103D01*
X196618935Y-87351253D01*
X196587296Y-87317728D01*
X196560541Y-87287691D01*
X196523230Y-87242732D01*
X196510104Y-87225679D01*
X196506074Y-87238185D01*
X196492741Y-87271154D01*
X196482005Y-87293181D01*
X196468247Y-87317766D01*
X196451232Y-87344057D01*
X196430730Y-87371200D01*
X196406506Y-87398343D01*
X196392927Y-87411648D01*
X196378330Y-87424633D01*
X196362686Y-87437192D01*
X196345967Y-87449218D01*
X196328144Y-87460605D01*
X196309187Y-87471245D01*
X196289067Y-87481033D01*
X196267755Y-87489862D01*
X196245223Y-87497624D01*
X196221440Y-87504215D01*
X196196379Y-87509526D01*
X196170010Y-87513452D01*
X196142303Y-87515886D01*
X196113230Y-87516720D01*
X196084081Y-87515962D01*
X196056154Y-87513749D01*
X196029427Y-87510180D01*
X196003883Y-87505352D01*
X195979501Y-87499360D01*
X195956263Y-87492303D01*
X195934149Y-87484277D01*
X195913139Y-87475379D01*
X195893214Y-87465706D01*
X195874356Y-87455355D01*
X195856543Y-87444422D01*
X195839758Y-87433005D01*
X195823981Y-87421200D01*
X195809191Y-87409104D01*
X195795371Y-87396815D01*
X195782501Y-87384429D01*
X195770560Y-87372043D01*
X195759530Y-87359753D01*
X195740126Y-87335853D01*
X195724132Y-87313503D01*
X195711394Y-87293478D01*
X195701756Y-87276554D01*
X195695064Y-87263506D01*
X195689896Y-87252137D01*
X195687209Y-87261232D01*
X195678321Y-87285210D01*
X195671163Y-87301230D01*
X195661991Y-87319110D01*
X195650648Y-87338230D01*
X195636980Y-87357971D01*
X195629225Y-87367880D01*
X195620831Y-87377711D01*
X195611778Y-87387387D01*
X195602046Y-87396831D01*
X195591618Y-87405965D01*
X195580472Y-87414711D01*
X195568589Y-87422992D01*
X195555951Y-87430731D01*
X195542538Y-87437849D01*
X195528330Y-87444270D01*
X195513308Y-87449916D01*
X195497454Y-87454709D01*
X195480746Y-87458572D01*
X195463166Y-87461427D01*
X195444695Y-87463197D01*
X195425313Y-87463804D01*
X195405324Y-87463045D01*
X195385083Y-87460833D01*
X195364648Y-87457264D01*
X195344078Y-87452435D01*
X195323430Y-87446444D01*
X195302763Y-87439387D01*
X195282134Y-87431361D01*
X195261602Y-87422463D01*
X195241226Y-87412790D01*
X195221062Y-87402438D01*
X195201170Y-87391505D01*
X195181607Y-87380088D01*
X195143702Y-87356188D01*
X195107813Y-87331512D01*
X195074404Y-87306837D01*
X195043941Y-87282936D01*
X195016888Y-87260586D01*
X194993711Y-87240562D01*
X194960845Y-87210590D01*
X194949063Y-87199221D01*
X194923431Y-87232294D01*
X194896043Y-87266193D01*
X194863073Y-87305054D01*
X194845464Y-87324794D01*
X194827623Y-87343915D01*
X194809937Y-87361795D01*
X194792793Y-87377814D01*
X194776580Y-87391354D01*
X194768943Y-87396999D01*
X194761684Y-87401792D01*
X194754852Y-87405655D01*
X194748494Y-87408510D01*
X194742659Y-87410280D01*
X194737396Y-87410887D01*
X194731678Y-87410432D01*
X194724516Y-87409104D01*
X194706287Y-87404066D01*
X194683563Y-87396237D01*
X194657195Y-87386083D01*
X194596940Y-87360658D01*
X194532344Y-87331512D01*
X194417416Y-87276942D01*
X194366980Y-87252137D01*
X169654899Y-87622554D01*
X169707816Y-87516720D01*
X190273152Y-87014012D01*
X194644991Y-87014012D01*
X194645028Y-87015567D01*
X194645139Y-87017119D01*
X194645324Y-87018665D01*
X194645584Y-87020203D01*
X194645917Y-87021728D01*
X194646325Y-87023240D01*
X194646806Y-87024734D01*
X194647362Y-87026208D01*
X194647992Y-87027659D01*
X194648696Y-87029084D01*
X194649474Y-87030480D01*
X194650326Y-87031844D01*
X194651252Y-87033173D01*
X194652253Y-87034465D01*
X194653327Y-87035717D01*
X194654476Y-87036925D01*
X194689507Y-87071956D01*
X194690640Y-87073033D01*
X194691812Y-87074040D01*
X194693021Y-87074977D01*
X194694266Y-87075845D01*
X194695543Y-87076644D01*
X194696849Y-87077373D01*
X194698181Y-87078033D01*
X194699538Y-87078624D01*
X194700916Y-87079145D01*
X194702313Y-87079596D01*
X194703726Y-87079978D01*
X194705153Y-87080290D01*
X194706590Y-87080534D01*
X194708035Y-87080707D01*
X194709485Y-87080811D01*
X194710938Y-87080846D01*
X194712391Y-87080811D01*
X194713842Y-87080707D01*
X194715287Y-87080534D01*
X194716724Y-87080290D01*
X194718150Y-87079978D01*
X194719564Y-87079596D01*
X194720960Y-87079145D01*
X194722339Y-87078624D01*
X194723696Y-87078033D01*
X194725028Y-87077373D01*
X194726334Y-87076644D01*
X194727611Y-87075845D01*
X194728856Y-87074977D01*
X194730065Y-87074040D01*
X194731238Y-87073033D01*
X194732370Y-87071956D01*
X194769094Y-87035232D01*
X194770161Y-87034110D01*
X194771159Y-87032948D01*
X194772088Y-87031750D01*
X194772949Y-87030517D01*
X194773740Y-87029253D01*
X194774463Y-87027960D01*
X194775117Y-87026640D01*
X194775702Y-87025297D01*
X194776218Y-87023932D01*
X194776666Y-87022549D01*
X194777044Y-87021151D01*
X194777354Y-87019739D01*
X194777595Y-87018316D01*
X194777767Y-87016886D01*
X194777870Y-87015451D01*
X194777905Y-87014012D01*
X194777870Y-87012574D01*
X194777767Y-87011138D01*
X194777595Y-87009708D01*
X194777354Y-87008286D01*
X194777044Y-87006874D01*
X194776666Y-87005475D01*
X194776414Y-87004696D01*
X195086037Y-87004696D01*
X195086110Y-87007329D01*
X195086353Y-87009945D01*
X195086765Y-87012537D01*
X195087345Y-87015097D01*
X195088090Y-87017619D01*
X195089000Y-87020094D01*
X195090073Y-87022516D01*
X195091307Y-87024878D01*
X195092700Y-87027172D01*
X195094252Y-87029391D01*
X195095960Y-87031528D01*
X195119571Y-87058395D01*
X195151696Y-87092664D01*
X195170257Y-87111302D01*
X195190114Y-87130263D01*
X195210989Y-87149039D01*
X195232604Y-87167120D01*
X195254681Y-87183998D01*
X195276944Y-87199162D01*
X195299114Y-87212106D01*
X195310077Y-87217585D01*
X195320913Y-87222318D01*
X195331587Y-87226241D01*
X195342065Y-87229291D01*
X195352311Y-87231403D01*
X195362291Y-87232514D01*
X195371970Y-87232561D01*
X195381313Y-87231480D01*
X195390286Y-87229207D01*
X195398855Y-87225679D01*
X195407193Y-87221058D01*
X195415082Y-87215787D01*
X195422533Y-87209910D01*
X195429559Y-87203471D01*
X195436173Y-87196512D01*
X195442387Y-87189078D01*
X195448214Y-87181213D01*
X195453665Y-87172959D01*
X195458754Y-87164361D01*
X195463493Y-87155463D01*
X195471971Y-87136938D01*
X195479198Y-87117735D01*
X195485274Y-87098203D01*
X195490299Y-87078690D01*
X195494373Y-87059546D01*
X195497595Y-87041121D01*
X195500065Y-87023764D01*
X195500276Y-87021704D01*
X195775716Y-87021704D01*
X195775782Y-87024866D01*
X195776057Y-87028028D01*
X195776543Y-87031179D01*
X195777240Y-87034310D01*
X195778149Y-87037411D01*
X195779272Y-87040471D01*
X195794217Y-87074884D01*
X195804207Y-87095665D01*
X195815874Y-87118137D01*
X195829220Y-87141785D01*
X195844243Y-87166091D01*
X195860945Y-87190537D01*
X195879325Y-87214606D01*
X195899383Y-87237781D01*
X195910041Y-87248872D01*
X195921118Y-87259545D01*
X195932616Y-87269735D01*
X195944532Y-87279379D01*
X195956868Y-87288411D01*
X195969624Y-87296768D01*
X195982799Y-87304383D01*
X195996394Y-87311192D01*
X196010408Y-87317132D01*
X196024842Y-87322136D01*
X196039695Y-87326141D01*
X196054968Y-87329082D01*
X196070660Y-87330894D01*
X196086771Y-87331512D01*
X196107049Y-87330875D01*
X196126480Y-87329009D01*
X196145080Y-87325982D01*
X196162867Y-87321861D01*
X196179857Y-87316714D01*
X196196067Y-87310608D01*
X196211515Y-87303612D01*
X196226217Y-87295793D01*
X196240190Y-87287218D01*
X196253451Y-87277956D01*
X196266016Y-87268073D01*
X196277904Y-87257639D01*
X196289130Y-87246719D01*
X196299712Y-87235383D01*
X196309666Y-87223697D01*
X196319009Y-87211729D01*
X196335932Y-87187219D01*
X196350615Y-87162393D01*
X196363193Y-87137794D01*
X196373801Y-87113963D01*
X196382575Y-87091440D01*
X196389651Y-87070767D01*
X196390746Y-87066929D01*
X196680073Y-87066929D01*
X196680224Y-87070860D01*
X196680678Y-87074775D01*
X196681435Y-87078656D01*
X196682494Y-87082488D01*
X196683856Y-87086254D01*
X196685520Y-87089936D01*
X196687487Y-87093519D01*
X196689757Y-87096986D01*
X196715918Y-87132959D01*
X196750396Y-87178087D01*
X196791537Y-87228732D01*
X196814088Y-87254986D01*
X196837685Y-87281255D01*
X196862121Y-87307083D01*
X196887188Y-87332016D01*
X196912679Y-87355599D01*
X196938389Y-87377378D01*
X196964110Y-87396896D01*
X196989635Y-87413701D01*
X197002260Y-87420943D01*
X197014758Y-87427335D01*
X197027104Y-87432822D01*
X197039271Y-87437346D01*
X197051776Y-87440572D01*
X197065044Y-87442236D01*
X197079017Y-87442416D01*
X197093637Y-87441191D01*
X197108849Y-87438637D01*
X197124593Y-87434835D01*
X197140814Y-87429861D01*
X197157453Y-87423794D01*
X197174454Y-87416712D01*
X197191759Y-87408693D01*
X197227052Y-87390158D01*
X197262875Y-87368813D01*
X197298768Y-87345284D01*
X197334273Y-87320196D01*
X197368933Y-87294174D01*
X197402288Y-87267844D01*
X197433881Y-87241830D01*
X197489945Y-87193254D01*
X197533459Y-87153448D01*
X197535296Y-87151642D01*
X197537028Y-87149770D01*
X197538652Y-87147836D01*
X197540171Y-87145843D01*
X197541582Y-87143795D01*
X197542886Y-87141696D01*
X197544083Y-87139551D01*
X197545171Y-87137364D01*
X197546152Y-87135137D01*
X197547024Y-87132875D01*
X197547787Y-87130583D01*
X197548442Y-87128263D01*
X197548987Y-87125921D01*
X197549422Y-87123559D01*
X197549748Y-87121182D01*
X197549963Y-87118794D01*
X197550068Y-87116399D01*
X197550061Y-87114000D01*
X197549944Y-87111602D01*
X197549715Y-87109208D01*
X197549375Y-87106823D01*
X197548922Y-87104450D01*
X197548357Y-87102094D01*
X197547680Y-87099758D01*
X197546890Y-87097446D01*
X197545986Y-87095163D01*
X197544969Y-87092911D01*
X197543838Y-87090696D01*
X197542592Y-87088521D01*
X197541233Y-87086390D01*
X197539758Y-87084306D01*
X197538169Y-87082275D01*
X197495818Y-87031923D01*
X197440035Y-86968853D01*
X197408312Y-86934631D01*
X197374678Y-86899728D01*
X197339614Y-86864977D01*
X197303603Y-86831212D01*
X197267127Y-86799264D01*
X197230668Y-86769968D01*
X197194708Y-86744156D01*
X197177066Y-86732817D01*
X197159730Y-86722661D01*
X197142759Y-86713793D01*
X197126214Y-86706317D01*
X197110156Y-86700336D01*
X197094645Y-86695955D01*
X197079740Y-86693278D01*
X197065503Y-86692409D01*
X197051993Y-86693453D01*
X197039271Y-86696512D01*
X197027104Y-86701036D01*
X197014758Y-86706523D01*
X197002260Y-86712915D01*
X196989635Y-86720157D01*
X196964110Y-86736962D01*
X196938389Y-86756480D01*
X196912679Y-86778259D01*
X196887188Y-86801842D01*
X196862121Y-86826775D01*
X196837685Y-86852603D01*
X196814088Y-86878872D01*
X196791537Y-86905126D01*
X196750396Y-86955771D01*
X196715918Y-87000899D01*
X196689757Y-87036872D01*
X196687487Y-87040339D01*
X196685520Y-87043922D01*
X196683856Y-87047604D01*
X196682494Y-87051370D01*
X196681435Y-87055202D01*
X196680678Y-87059083D01*
X196680224Y-87062998D01*
X196680073Y-87066929D01*
X196390746Y-87066929D01*
X196399244Y-87037137D01*
X196399844Y-87034383D01*
X196400273Y-87031624D01*
X196400535Y-87028864D01*
X196400631Y-87026111D01*
X196400562Y-87023371D01*
X196400330Y-87020650D01*
X196399936Y-87017953D01*
X196399383Y-87015289D01*
X196398672Y-87012662D01*
X196397804Y-87010080D01*
X196396781Y-87007547D01*
X196395605Y-87005072D01*
X196394278Y-87002659D01*
X196392800Y-87000316D01*
X196391174Y-86998048D01*
X196389401Y-86995862D01*
X196368585Y-86972825D01*
X196339652Y-86943993D01*
X196322354Y-86928258D01*
X196303284Y-86912099D01*
X196282526Y-86895857D01*
X196260166Y-86879875D01*
X196236289Y-86864494D01*
X196210981Y-86850055D01*
X196184326Y-86836901D01*
X196156411Y-86825372D01*
X196127321Y-86815810D01*
X196112363Y-86811874D01*
X196097142Y-86808558D01*
X196081670Y-86805904D01*
X196065958Y-86803956D01*
X196050016Y-86802755D01*
X196033855Y-86802346D01*
X196025806Y-86802737D01*
X196017578Y-86803886D01*
X196009191Y-86805752D01*
X196000664Y-86808295D01*
X195992017Y-86811475D01*
X195983271Y-86815252D01*
X195974445Y-86819586D01*
X195965560Y-86824438D01*
X195947691Y-86835535D01*
X195929823Y-86848222D01*
X195912116Y-86862180D01*
X195894730Y-86877090D01*
X195877825Y-86892633D01*
X195861560Y-86908489D01*
X195846095Y-86924339D01*
X195831590Y-86939863D01*
X195806099Y-86968657D01*
X195786364Y-86992317D01*
X195784390Y-86994921D01*
X195782615Y-86997626D01*
X195781040Y-87000423D01*
X195779667Y-87003301D01*
X195778497Y-87006250D01*
X195777530Y-87009260D01*
X195776767Y-87012320D01*
X195776210Y-87015421D01*
X195775859Y-87018553D01*
X195775716Y-87021704D01*
X195500276Y-87021704D01*
X195503150Y-86993649D01*
X195504424Y-86971996D01*
X195504465Y-86970566D01*
X195504468Y-86969150D01*
X195504434Y-86967748D01*
X195504362Y-86966359D01*
X195504251Y-86964982D01*
X195504103Y-86963616D01*
X195503915Y-86962259D01*
X195503689Y-86960910D01*
X195503424Y-86959570D01*
X195503120Y-86958235D01*
X195502776Y-86956906D01*
X195502392Y-86955581D01*
X195501968Y-86954259D01*
X195501505Y-86952939D01*
X195501000Y-86951620D01*
X195500455Y-86950301D01*
X195492610Y-86933673D01*
X195487050Y-86923363D01*
X195480337Y-86912092D01*
X195472424Y-86900134D01*
X195463266Y-86887767D01*
X195452817Y-86875266D01*
X195441029Y-86862909D01*
X195427858Y-86850970D01*
X195420739Y-86845245D01*
X195413256Y-86839728D01*
X195405404Y-86834453D01*
X195397178Y-86829456D01*
X195388570Y-86824772D01*
X195379577Y-86820433D01*
X195370191Y-86816476D01*
X195360407Y-86812934D01*
X195350219Y-86809843D01*
X195339622Y-86807236D01*
X195328609Y-86805148D01*
X195317176Y-86803614D01*
X195305315Y-86802669D01*
X195293022Y-86802346D01*
X195281347Y-86802734D01*
X195270062Y-86803871D01*
X195259161Y-86805720D01*
X195248641Y-86808239D01*
X195238495Y-86811390D01*
X195228720Y-86815133D01*
X195219309Y-86819430D01*
X195210259Y-86824240D01*
X195201564Y-86829525D01*
X195193220Y-86835244D01*
X195185220Y-86841360D01*
X195177562Y-86847831D01*
X195170238Y-86854620D01*
X195163246Y-86861687D01*
X195150233Y-86876495D01*
X195138482Y-86891943D01*
X195127956Y-86907714D01*
X195118614Y-86923495D01*
X195110417Y-86938970D01*
X195103325Y-86953825D01*
X195097299Y-86967745D01*
X195088287Y-86991523D01*
X195087484Y-86994134D01*
X195086859Y-86996764D01*
X195086410Y-86999406D01*
X195086137Y-87002052D01*
X195086037Y-87004696D01*
X194776414Y-87004696D01*
X194776218Y-87004092D01*
X194775702Y-87002728D01*
X194775117Y-87001384D01*
X194774463Y-87000065D01*
X194773740Y-86998772D01*
X194772949Y-86997507D01*
X194772088Y-86996275D01*
X194771159Y-86995076D01*
X194770161Y-86993915D01*
X194769094Y-86992793D01*
X194734750Y-86958450D01*
X194733497Y-86957258D01*
X194732197Y-86956143D01*
X194730856Y-86955105D01*
X194729475Y-86954144D01*
X194728057Y-86953259D01*
X194726607Y-86952452D01*
X194725126Y-86951722D01*
X194723618Y-86951068D01*
X194722086Y-86950491D01*
X194720533Y-86949991D01*
X194718962Y-86949569D01*
X194717375Y-86949222D01*
X194715776Y-86948953D01*
X194714169Y-86948761D01*
X194712555Y-86948646D01*
X194710938Y-86948607D01*
X194709321Y-86948646D01*
X194707708Y-86948761D01*
X194706100Y-86948953D01*
X194704501Y-86949222D01*
X194702915Y-86949569D01*
X194701343Y-86949991D01*
X194699790Y-86950491D01*
X194698258Y-86951068D01*
X194696750Y-86951722D01*
X194695269Y-86952452D01*
X194693819Y-86953259D01*
X194692402Y-86954144D01*
X194691021Y-86955105D01*
X194689679Y-86956143D01*
X194688380Y-86957258D01*
X194687126Y-86958450D01*
X194654476Y-86991099D01*
X194653327Y-86992308D01*
X194652253Y-86993559D01*
X194651252Y-86994851D01*
X194650326Y-86996181D01*
X194649474Y-86997545D01*
X194648696Y-86998941D01*
X194647992Y-87000366D01*
X194647362Y-87001817D01*
X194646806Y-87003291D01*
X194646325Y-87004785D01*
X194645917Y-87006296D01*
X194645584Y-87007822D01*
X194645324Y-87009360D01*
X194645139Y-87010906D01*
X194645028Y-87012458D01*
X194644991Y-87014012D01*
X190273152Y-87014012D01*
X193520313Y-86934637D01*
X193620358Y-86925542D01*
X193844427Y-86901564D01*
X193967314Y-86885545D01*
X194078418Y-86867665D01*
X194125095Y-86858221D01*
X194163478Y-86848544D01*
X194191784Y-86838713D01*
X194201600Y-86833763D01*
X194208230Y-86828804D01*
X194213492Y-86824148D01*
X194219327Y-86820084D01*
X194225685Y-86816581D01*
X194232517Y-86813611D01*
X194239776Y-86811145D01*
X194247413Y-86809154D01*
X194255379Y-86807609D01*
X194263627Y-86806480D01*
X194272106Y-86805739D01*
X194280770Y-86805356D01*
X194298456Y-86805550D01*
X194316298Y-86806829D01*
X194333906Y-86808960D01*
X194350895Y-86811712D01*
X194366876Y-86814851D01*
X194381462Y-86818146D01*
X194394265Y-86821363D01*
X194419896Y-86828804D01*
X194424754Y-86821983D01*
X194438913Y-86803999D01*
X194449287Y-86791985D01*
X194461754Y-86778575D01*
X194476236Y-86764234D01*
X194492657Y-86749429D01*
X194510937Y-86734624D01*
X194531001Y-86720284D01*
X194552769Y-86706874D01*
X194564269Y-86700663D01*
X194576166Y-86694859D01*
X194588451Y-86689520D01*
X194601113Y-86684704D01*
X194614143Y-86680470D01*
X194627533Y-86676875D01*
X194641270Y-86673978D01*
X194655347Y-86671837D01*
X194669754Y-86670509D01*
X194684480Y-86670054D01*
X194699206Y-86670509D01*
X194710938Y-86671591D01*
X194713613Y-86671837D01*
X194727690Y-86673978D01*
X194741427Y-86676875D01*
X194754816Y-86680470D01*
X194767847Y-86684704D01*
X194780509Y-86689520D01*
X194792794Y-86694859D01*
X194804691Y-86700663D01*
X194816190Y-86706874D01*
X194827283Y-86713433D01*
X194837959Y-86720284D01*
X194848209Y-86727366D01*
X194858022Y-86734624D01*
X194867390Y-86741997D01*
X194876303Y-86749429D01*
X194892723Y-86764234D01*
X194907205Y-86778575D01*
X194919672Y-86791985D01*
X194930046Y-86803999D01*
X194938250Y-86814154D01*
X194944205Y-86821983D01*
X194949063Y-86828804D01*
X194984616Y-86787463D01*
X195024407Y-86745088D01*
X195048449Y-86721188D01*
X195074740Y-86696512D01*
X195102891Y-86671837D01*
X195132514Y-86647937D01*
X195163223Y-86625587D01*
X195194629Y-86605562D01*
X195210473Y-86596664D01*
X195226346Y-86588638D01*
X195242199Y-86581581D01*
X195257984Y-86575590D01*
X195273654Y-86570761D01*
X195289158Y-86567192D01*
X195293022Y-86566633D01*
X195304450Y-86564980D01*
X195319479Y-86564221D01*
X195334357Y-86564828D01*
X195349206Y-86566598D01*
X195363997Y-86569453D01*
X195378701Y-86573316D01*
X195393288Y-86578109D01*
X195407730Y-86583754D01*
X195421998Y-86590175D01*
X195436062Y-86597294D01*
X195449893Y-86605032D01*
X195463463Y-86613313D01*
X195476742Y-86622060D01*
X195489702Y-86631193D01*
X195514545Y-86650314D01*
X195537761Y-86670054D01*
X195559116Y-86689794D01*
X195578379Y-86708915D01*
X195595316Y-86726795D01*
X195609695Y-86742814D01*
X195629848Y-86766792D01*
X195636980Y-86775887D01*
X195644318Y-86766792D01*
X195665919Y-86742814D01*
X195681874Y-86726795D01*
X195701162Y-86708915D01*
X195723706Y-86689794D01*
X195749428Y-86670054D01*
X195778250Y-86650314D01*
X195810096Y-86631193D01*
X195844887Y-86613313D01*
X195882546Y-86597294D01*
X195902427Y-86590175D01*
X195922996Y-86583754D01*
X195944243Y-86578109D01*
X195966158Y-86573316D01*
X195988733Y-86569453D01*
X196011957Y-86566598D01*
X196033855Y-86564974D01*
X196035820Y-86564828D01*
X196060313Y-86564221D01*
X196084958Y-86564980D01*
X196109263Y-86567192D01*
X196133201Y-86570761D01*
X196156741Y-86575590D01*
X196179855Y-86581581D01*
X196202514Y-86588638D01*
X196224688Y-86596664D01*
X196246348Y-86605562D01*
X196267466Y-86615235D01*
X196288012Y-86625587D01*
X196307958Y-86636519D01*
X196327274Y-86647937D01*
X196345930Y-86659741D01*
X196363899Y-86671837D01*
X196397657Y-86696512D01*
X196428314Y-86721188D01*
X196455638Y-86745088D01*
X196479396Y-86767438D01*
X196499356Y-86787463D01*
X196526951Y-86817435D01*
X196536563Y-86828804D01*
X196545658Y-86811441D01*
X196556097Y-86792527D01*
X196569636Y-86769273D01*
X196585655Y-86743538D01*
X196594402Y-86730322D01*
X196603535Y-86717183D01*
X196612979Y-86704354D01*
X196622656Y-86692068D01*
X196632487Y-86680557D01*
X196642396Y-86670054D01*
X196654140Y-86659551D01*
X196669371Y-86648040D01*
X196687859Y-86635754D01*
X196709369Y-86622925D01*
X196733670Y-86609786D01*
X196760529Y-86596570D01*
X196789713Y-86583509D01*
X196820990Y-86570835D01*
X196854128Y-86558782D01*
X196888893Y-86547581D01*
X196925054Y-86537465D01*
X196962377Y-86528667D01*
X197000630Y-86521420D01*
X197039581Y-86515955D01*
X197065503Y-86513686D01*
X197078998Y-86512506D01*
X197118646Y-86511304D01*
X197138939Y-86512367D01*
X197160065Y-86515464D01*
X197181927Y-86520461D01*
X197204429Y-86527220D01*
X197227474Y-86535608D01*
X197250964Y-86545488D01*
X197274803Y-86556724D01*
X197298894Y-86569182D01*
X197323139Y-86582724D01*
X197347443Y-86597216D01*
X197395838Y-86628506D01*
X197443303Y-86661967D01*
X197489063Y-86696512D01*
X197532342Y-86731058D01*
X197572365Y-86764519D01*
X197608357Y-86795809D01*
X197639544Y-86823843D01*
X197700729Y-86881721D01*
X197806562Y-86775887D01*
X197811370Y-86770473D01*
X197815877Y-86764196D01*
X197820093Y-86757124D01*
X197824029Y-86749326D01*
X197827693Y-86740869D01*
X197831096Y-86731820D01*
X197837155Y-86712222D01*
X197842284Y-86691073D01*
X197846560Y-86668917D01*
X197850061Y-86646296D01*
X197852864Y-86623752D01*
X197855048Y-86601828D01*
X197856688Y-86581067D01*
X197858652Y-86545204D01*
X197859479Y-86511304D01*
X197908104Y-86512587D01*
X197961194Y-86513090D01*
X198026630Y-86512521D01*
X198099283Y-86510147D01*
X198174027Y-86505232D01*
X198210580Y-86501593D01*
X198245732Y-86497043D01*
X198278843Y-86491491D01*
X198309271Y-86484846D01*
X198395054Y-86462832D01*
X198489518Y-86437717D01*
X198679687Y-86385627D01*
X198891354Y-86326096D01*
X199142708Y-86372398D01*
D10*
X197500000Y-61000000D02*
X197500000Y-71000000D01*
X194470000Y-73460000D02*
X197475000Y-76475000D01*
D13*
G36*
X183093499Y-71599749D02*
G01*
X183178030Y-71610403D01*
X183231132Y-71624806D01*
X183278176Y-71648492D01*
X183321077Y-71682428D01*
X183360215Y-71728267D01*
X183389240Y-71779342D01*
X183406843Y-71834915D01*
X183412873Y-71896062D01*
X183407721Y-71952596D01*
X183392670Y-72004305D01*
X183367908Y-72052060D01*
X183334081Y-72095377D01*
X183295290Y-72129343D01*
X183251221Y-72155082D01*
X183315001Y-72181139D01*
X183367944Y-72216571D01*
X183411420Y-72262060D01*
X183442860Y-72314590D01*
X183462421Y-72375407D01*
X183469293Y-72446341D01*
X183460564Y-72532111D01*
X183435698Y-72605516D01*
X183395605Y-72668871D01*
X183341186Y-72723691D01*
X183283516Y-72760184D01*
X183221558Y-72781198D01*
X183129220Y-72791088D01*
X182897399Y-72796000D01*
X182506220Y-72796000D01*
X182506220Y-72594353D01*
X182737627Y-72594353D01*
X182952793Y-72594353D01*
X183081895Y-72590153D01*
X183134534Y-72581603D01*
X183170689Y-72563196D01*
X183201982Y-72531265D01*
X183221959Y-72490247D01*
X183229252Y-72435863D01*
X183221449Y-72380077D01*
X183200016Y-72338044D01*
X183165864Y-72305494D01*
X183122566Y-72285214D01*
X183061785Y-72275417D01*
X182925096Y-72270780D01*
X182737627Y-72270780D01*
X182737627Y-72594353D01*
X182506220Y-72594353D01*
X182506220Y-72069133D01*
X182737627Y-72069133D01*
X182890646Y-72069133D01*
X183060846Y-72065103D01*
X183114558Y-72050201D01*
X183153597Y-72023044D01*
X183178129Y-71984425D01*
X183187108Y-71930354D01*
X183179816Y-71881671D01*
X183159838Y-71845724D01*
X183129027Y-71818915D01*
X183093843Y-71805204D01*
X183037765Y-71799951D01*
X182871497Y-71797144D01*
X182737627Y-71797144D01*
X182737627Y-72069133D01*
X182506220Y-72069133D01*
X182506220Y-71595497D01*
X182966214Y-71595497D01*
X183093499Y-71599749D01*
G37*
G36*
X184702757Y-72796000D02*
G01*
X184450319Y-72796000D01*
X184349874Y-72524011D01*
X183890820Y-72524011D01*
X183796103Y-72796000D01*
X183549393Y-72796000D01*
X183725985Y-72322364D01*
X183961602Y-72322364D01*
X184275246Y-72322364D01*
X184117441Y-71876059D01*
X183961602Y-72322364D01*
X183725985Y-72322364D01*
X183996992Y-71595497D01*
X184242762Y-71595497D01*
X184702757Y-72796000D01*
G37*
G36*
X184832608Y-72796000D02*
G01*
X184832608Y-71604876D01*
X185064102Y-71604876D01*
X185064102Y-72594353D01*
X185641724Y-72594353D01*
X185641724Y-72796000D01*
X184832608Y-72796000D01*
G37*
G36*
X186007001Y-72796000D02*
G01*
X186007001Y-71797144D01*
X185665574Y-71797144D01*
X185665574Y-71595497D01*
X186578896Y-71595497D01*
X186578896Y-71797144D01*
X186238409Y-71797144D01*
X186238409Y-72796000D01*
X186007001Y-72796000D01*
G37*
G36*
X186670621Y-72796000D02*
G01*
X186670621Y-71595497D01*
X186902029Y-71595497D01*
X186902029Y-72069133D01*
X187357322Y-72069133D01*
X187357322Y-71595497D01*
X187589670Y-71595497D01*
X187589670Y-72796000D01*
X187357322Y-72796000D01*
X187357322Y-72270780D01*
X186902029Y-72270780D01*
X186902029Y-72796000D01*
X186670621Y-72796000D01*
G37*
G36*
X188866218Y-72796000D02*
G01*
X188613781Y-72796000D01*
X188513336Y-72524011D01*
X188054281Y-72524011D01*
X187959564Y-72796000D01*
X187712854Y-72796000D01*
X187889446Y-72322364D01*
X188125063Y-72322364D01*
X188438707Y-72322364D01*
X188280902Y-71876059D01*
X188125063Y-72322364D01*
X187889446Y-72322364D01*
X188160454Y-71595497D01*
X188406223Y-71595497D01*
X188866218Y-72796000D01*
G37*
G36*
X188931015Y-72402085D02*
G01*
X189157722Y-72378637D01*
X189177904Y-72456018D01*
X189207239Y-72513477D01*
X189244269Y-72555240D01*
X189288969Y-72584304D01*
X189342754Y-72602126D01*
X189408278Y-72608421D01*
X189476359Y-72602690D01*
X189530488Y-72586787D01*
X189573692Y-72561600D01*
X189607378Y-72527568D01*
X189627190Y-72489331D01*
X189633959Y-72445389D01*
X189628445Y-72406820D01*
X189612929Y-72376073D01*
X189587196Y-72350712D01*
X189548815Y-72329251D01*
X189490368Y-72309276D01*
X189340403Y-72268069D01*
X189242073Y-72239263D01*
X189171679Y-72211625D01*
X189123271Y-72185417D01*
X189062073Y-72134187D01*
X189013765Y-72067667D01*
X188983403Y-71992312D01*
X188973160Y-71910790D01*
X188979131Y-71846827D01*
X188996555Y-71788530D01*
X189025220Y-71734862D01*
X189064677Y-71686664D01*
X189112397Y-71647539D01*
X189169177Y-71616673D01*
X189232066Y-71595277D01*
X189306869Y-71581615D01*
X189395883Y-71576739D01*
X189496816Y-71583358D01*
X189581385Y-71601966D01*
X189652488Y-71631395D01*
X189712348Y-71671481D01*
X189760779Y-71721589D01*
X189797335Y-71782028D01*
X189821818Y-71854798D01*
X189832882Y-71942517D01*
X189600534Y-71951896D01*
X189584605Y-71889022D01*
X189562110Y-71845641D01*
X189534539Y-71816854D01*
X189498187Y-71796379D01*
X189451058Y-71783206D01*
X189390070Y-71778386D01*
X189328614Y-71782594D01*
X189281526Y-71793986D01*
X189245686Y-71811359D01*
X189216915Y-71835769D01*
X189200503Y-71862674D01*
X189194993Y-71893205D01*
X189200055Y-71923545D01*
X189215026Y-71950254D01*
X189240899Y-71974391D01*
X189303037Y-72004118D01*
X189452303Y-72046858D01*
X189568792Y-72079316D01*
X189650514Y-72109613D01*
X189705253Y-72137570D01*
X189753117Y-72172604D01*
X189792645Y-72213644D01*
X189824334Y-72261327D01*
X189846399Y-72313010D01*
X189860455Y-72373771D01*
X189865452Y-72445242D01*
X189858073Y-72522159D01*
X189836728Y-72590702D01*
X189801886Y-72652370D01*
X189753039Y-72708292D01*
X189693194Y-72752480D01*
X189617303Y-72785549D01*
X189521707Y-72806965D01*
X189401610Y-72814757D01*
X189298759Y-72807889D01*
X189212317Y-72788547D01*
X189139346Y-72757871D01*
X189077612Y-72715938D01*
X189025759Y-72661758D01*
X188983431Y-72593366D01*
X188951302Y-72507965D01*
X188931015Y-72402085D01*
G37*
G36*
X191097034Y-72796000D02*
G01*
X190844597Y-72796000D01*
X190744152Y-72524011D01*
X190285098Y-72524011D01*
X190190380Y-72796000D01*
X189943671Y-72796000D01*
X190120263Y-72322364D01*
X190355879Y-72322364D01*
X190669524Y-72322364D01*
X190511718Y-71876059D01*
X190355879Y-72322364D01*
X190120263Y-72322364D01*
X190391270Y-71595497D01*
X190637039Y-71595497D01*
X191097034Y-72796000D01*
G37*
G36*
X191836144Y-71600106D02*
G01*
X191921961Y-71611777D01*
X191977615Y-71627810D01*
X192026716Y-71653764D01*
X192070584Y-71690538D01*
X192109604Y-71739918D01*
X192137571Y-71794708D01*
X192155080Y-71857839D01*
X192161237Y-71930940D01*
X192151619Y-72022505D01*
X192124790Y-72096888D01*
X192082334Y-72157573D01*
X192023695Y-72206869D01*
X191950059Y-72242839D01*
X191858107Y-72265504D01*
X191927304Y-72314460D01*
X191981462Y-72366034D01*
X192032403Y-72432381D01*
X192114477Y-72561526D01*
X192254074Y-72796000D01*
X191977615Y-72796000D01*
X191809381Y-72535661D01*
X191724177Y-72407983D01*
X191685940Y-72358121D01*
X191651180Y-72326471D01*
X191617125Y-72308002D01*
X191575113Y-72298340D01*
X191500438Y-72294227D01*
X191452566Y-72294227D01*
X191452566Y-72796000D01*
X191221158Y-72796000D01*
X191221158Y-72101959D01*
X191452566Y-72101959D01*
X191624733Y-72101959D01*
X191768491Y-72098017D01*
X191825537Y-72090089D01*
X191864110Y-72072467D01*
X191895379Y-72042168D01*
X191914911Y-72002249D01*
X191922221Y-71946254D01*
X191914945Y-71892631D01*
X191895379Y-71854077D01*
X191863812Y-71824680D01*
X191822716Y-71806157D01*
X191775436Y-71800288D01*
X191634307Y-71797144D01*
X191452566Y-71797144D01*
X191452566Y-72101959D01*
X191221158Y-72101959D01*
X191221158Y-71595497D01*
X191709876Y-71595497D01*
X191836144Y-71600106D01*
G37*
G36*
X193224756Y-72202343D02*
G01*
X193216581Y-72269322D01*
X193193189Y-72326251D01*
X193154915Y-72375267D01*
X193104242Y-72414557D01*
X193050677Y-72436881D01*
X192992322Y-72444290D01*
X192934636Y-72436912D01*
X192881376Y-72414619D01*
X192830670Y-72375267D01*
X192792446Y-72326256D01*
X192769080Y-72269327D01*
X192760914Y-72202343D01*
X192769089Y-72135418D01*
X192792460Y-72078669D01*
X192830670Y-72029932D01*
X192881345Y-71990806D01*
X192934607Y-71968622D01*
X192992322Y-71961275D01*
X193050706Y-71968652D01*
X193104273Y-71990868D01*
X193154915Y-72029932D01*
X193193174Y-72078674D01*
X193216572Y-72135423D01*
X193224756Y-72202343D01*
G37*
G36*
X194530197Y-72580284D02*
G01*
X194530197Y-72796000D01*
X193757498Y-72796000D01*
X193771465Y-72716230D01*
X193796728Y-72639363D01*
X193833494Y-72564824D01*
X193881605Y-72493960D01*
X193960894Y-72399834D01*
X194080717Y-72276935D01*
X194210299Y-72144627D01*
X194259552Y-72084740D01*
X194287746Y-72034673D01*
X194303996Y-71985927D01*
X194309304Y-71937755D01*
X194304040Y-71886236D01*
X194289855Y-71847506D01*
X194268186Y-71818613D01*
X194238084Y-71796361D01*
X194202627Y-71783028D01*
X194160133Y-71778386D01*
X194109207Y-71785212D01*
X194069443Y-71804688D01*
X194038007Y-71837982D01*
X194014772Y-71889469D01*
X194002327Y-71965965D01*
X193783315Y-71942517D01*
X193800125Y-71850750D01*
X193826473Y-71777850D01*
X193860804Y-71720488D01*
X193902395Y-71675951D01*
X193954773Y-71639374D01*
X194015036Y-71612984D01*
X194084711Y-71596571D01*
X194165860Y-71590808D01*
X194254736Y-71597756D01*
X194327851Y-71617254D01*
X194388351Y-71648305D01*
X194438386Y-71691338D01*
X194489435Y-71761659D01*
X194519852Y-71837809D01*
X194530197Y-71921708D01*
X194524309Y-71994336D01*
X194506774Y-72064297D01*
X194477566Y-72132456D01*
X194434539Y-72203222D01*
X194375479Y-72276202D01*
X194272033Y-72381715D01*
X194137650Y-72516537D01*
X194092258Y-72580284D01*
X194530197Y-72580284D01*
G37*
G36*
X172109663Y-83355190D02*
G01*
X172334403Y-83430221D01*
X172300867Y-83530486D01*
X172259930Y-83610548D01*
X172212646Y-83673666D01*
X172159416Y-83722507D01*
X172095332Y-83762536D01*
X172024677Y-83791145D01*
X171946178Y-83808691D01*
X171858166Y-83814757D01*
X171770115Y-83808622D01*
X171691059Y-83790823D01*
X171619383Y-83761697D01*
X171553863Y-83720806D01*
X171493744Y-83666966D01*
X171438393Y-83597624D01*
X171394143Y-83518445D01*
X171361222Y-83428024D01*
X171340431Y-83324653D01*
X171333118Y-83206373D01*
X171340610Y-83080670D01*
X171361792Y-82972011D01*
X171395108Y-82878123D01*
X171439564Y-82797012D01*
X171494770Y-82727022D01*
X171555172Y-82672680D01*
X171622026Y-82631165D01*
X171696205Y-82601399D01*
X171779100Y-82583088D01*
X171872528Y-82576739D01*
X171966767Y-82584066D01*
X172050805Y-82605329D01*
X172126655Y-82640300D01*
X172195747Y-82689872D01*
X172249038Y-82747894D01*
X172294736Y-82825858D01*
X172331582Y-82928449D01*
X172102055Y-82984722D01*
X172081377Y-82922118D01*
X172051993Y-82873097D01*
X172014518Y-82835173D01*
X171967967Y-82806091D01*
X171917035Y-82788915D01*
X171860133Y-82783076D01*
X171799463Y-82789001D01*
X171745647Y-82806323D01*
X171697002Y-82835395D01*
X171652575Y-82877891D01*
X171621040Y-82925684D01*
X171595801Y-82990657D01*
X171578645Y-83077298D01*
X171572219Y-83190839D01*
X171578571Y-83309104D01*
X171595445Y-83398514D01*
X171620095Y-83464773D01*
X171650609Y-83512800D01*
X171694207Y-83555770D01*
X171741945Y-83585061D01*
X171794751Y-83602471D01*
X171854320Y-83608421D01*
X171912538Y-83601734D01*
X171964854Y-83581898D01*
X172013065Y-83547751D01*
X172050590Y-83503877D01*
X172083271Y-83441425D01*
X172109663Y-83355190D01*
G37*
G36*
X173569833Y-83796000D02*
G01*
X173317395Y-83796000D01*
X173216950Y-83524011D01*
X172757896Y-83524011D01*
X172663179Y-83796000D01*
X172416469Y-83796000D01*
X172593061Y-83322364D01*
X172828678Y-83322364D01*
X173142322Y-83322364D01*
X172984517Y-82876059D01*
X172828678Y-83322364D01*
X172593061Y-83322364D01*
X172864068Y-82595497D01*
X173109838Y-82595497D01*
X173569833Y-83796000D01*
G37*
G36*
X173634630Y-83402085D02*
G01*
X173861336Y-83378637D01*
X173881519Y-83456018D01*
X173910853Y-83513477D01*
X173947884Y-83555240D01*
X173992583Y-83584304D01*
X174046369Y-83602126D01*
X174111893Y-83608421D01*
X174179974Y-83602690D01*
X174234102Y-83586787D01*
X174277306Y-83561600D01*
X174310992Y-83527568D01*
X174330805Y-83489331D01*
X174337573Y-83445389D01*
X174332059Y-83406820D01*
X174316544Y-83376073D01*
X174290811Y-83350712D01*
X174252430Y-83329251D01*
X174193983Y-83309276D01*
X174044018Y-83268069D01*
X173945688Y-83239263D01*
X173875293Y-83211625D01*
X173826886Y-83185417D01*
X173765688Y-83134187D01*
X173717380Y-83067667D01*
X173687017Y-82992312D01*
X173676774Y-82910790D01*
X173682745Y-82846827D01*
X173700170Y-82788530D01*
X173728835Y-82734862D01*
X173768291Y-82686664D01*
X173816012Y-82647539D01*
X173872791Y-82616673D01*
X173935681Y-82595277D01*
X174010483Y-82581615D01*
X174099498Y-82576739D01*
X174200430Y-82583358D01*
X174285000Y-82601966D01*
X174356102Y-82631395D01*
X174415963Y-82671481D01*
X174464394Y-82721589D01*
X174500950Y-82782028D01*
X174525433Y-82854798D01*
X174536497Y-82942517D01*
X174304149Y-82951896D01*
X174288220Y-82889022D01*
X174265724Y-82845641D01*
X174238154Y-82816854D01*
X174201802Y-82796379D01*
X174154673Y-82783206D01*
X174093685Y-82778386D01*
X174032229Y-82782594D01*
X173985141Y-82793986D01*
X173949300Y-82811359D01*
X173920530Y-82835769D01*
X173904118Y-82862674D01*
X173898608Y-82893205D01*
X173903670Y-82923545D01*
X173918641Y-82950254D01*
X173944513Y-82974391D01*
X174006652Y-83004118D01*
X174155918Y-83046858D01*
X174272407Y-83079316D01*
X174354129Y-83109613D01*
X174408868Y-83137570D01*
X174456732Y-83172604D01*
X174496260Y-83213644D01*
X174527948Y-83261327D01*
X174550014Y-83313010D01*
X174564069Y-83373771D01*
X174569067Y-83445242D01*
X174561688Y-83522159D01*
X174540343Y-83590702D01*
X174505500Y-83652370D01*
X174456654Y-83708292D01*
X174396809Y-83752480D01*
X174320918Y-83785549D01*
X174225322Y-83806965D01*
X174105225Y-83814757D01*
X174002374Y-83807889D01*
X173915932Y-83788547D01*
X173842961Y-83757871D01*
X173781227Y-83715938D01*
X173729374Y-83661758D01*
X173687046Y-83593366D01*
X173654917Y-83507965D01*
X173634630Y-83402085D01*
G37*
G36*
X175327648Y-82601062D02*
G01*
X175409555Y-82612643D01*
X175472508Y-82637458D01*
X175528441Y-82676207D01*
X175578302Y-82731052D01*
X175613861Y-82793954D01*
X175636622Y-82870770D01*
X175644810Y-82964646D01*
X175637828Y-83050062D01*
X175618226Y-83121833D01*
X175587364Y-83182266D01*
X175544215Y-83236773D01*
X175496516Y-83277188D01*
X175443920Y-83305584D01*
X175384058Y-83323100D01*
X175289408Y-83335989D01*
X175147458Y-83341122D01*
X174995380Y-83341122D01*
X174995380Y-83796000D01*
X174763972Y-83796000D01*
X174763972Y-83139475D01*
X174995380Y-83139475D01*
X175123522Y-83139475D01*
X175242342Y-83134567D01*
X175299023Y-83123868D01*
X175340695Y-83102334D01*
X175375105Y-83067448D01*
X175396953Y-83023414D01*
X175404768Y-82967503D01*
X175396706Y-82910828D01*
X175374164Y-82866314D01*
X175339129Y-82831320D01*
X175298596Y-82811139D01*
X175241223Y-82801679D01*
X175108221Y-82797144D01*
X174995380Y-82797144D01*
X174995380Y-83139475D01*
X174763972Y-83139475D01*
X174763972Y-82595497D01*
X175136943Y-82595497D01*
X175327648Y-82601062D01*
G37*
G36*
X175835869Y-83796000D02*
G01*
X175835869Y-82595497D01*
X176688924Y-82595497D01*
X176688924Y-82797144D01*
X176067277Y-82797144D01*
X176067277Y-83064443D01*
X176644984Y-83064443D01*
X176644984Y-83266090D01*
X176067277Y-83266090D01*
X176067277Y-83594353D01*
X176709953Y-83594353D01*
X176709953Y-83796000D01*
X175835869Y-83796000D01*
G37*
G36*
X177521810Y-82600106D02*
G01*
X177607627Y-82611777D01*
X177663282Y-82627810D01*
X177712382Y-82653764D01*
X177756250Y-82690538D01*
X177795270Y-82739918D01*
X177823237Y-82794708D01*
X177840747Y-82857839D01*
X177846903Y-82930940D01*
X177837285Y-83022505D01*
X177810456Y-83096888D01*
X177768001Y-83157573D01*
X177709361Y-83206869D01*
X177635725Y-83242839D01*
X177543774Y-83265504D01*
X177612970Y-83314460D01*
X177667128Y-83366034D01*
X177718069Y-83432381D01*
X177800143Y-83561526D01*
X177939740Y-83796000D01*
X177663282Y-83796000D01*
X177495047Y-83535661D01*
X177409844Y-83407983D01*
X177371607Y-83358121D01*
X177336846Y-83326471D01*
X177302791Y-83308002D01*
X177260779Y-83298340D01*
X177186104Y-83294227D01*
X177138233Y-83294227D01*
X177138233Y-83796000D01*
X176906825Y-83796000D01*
X176906825Y-83101959D01*
X177138233Y-83101959D01*
X177310399Y-83101959D01*
X177454157Y-83098017D01*
X177511204Y-83090089D01*
X177549777Y-83072467D01*
X177581045Y-83042168D01*
X177600577Y-83002249D01*
X177607887Y-82946254D01*
X177600611Y-82892631D01*
X177581045Y-82854077D01*
X177549478Y-82824680D01*
X177508383Y-82806157D01*
X177461102Y-82800288D01*
X177319974Y-82797144D01*
X177138233Y-82797144D01*
X177138233Y-83101959D01*
X176906825Y-83101959D01*
X176906825Y-82595497D01*
X177395543Y-82595497D01*
X177521810Y-82600106D01*
G37*
G36*
X178910422Y-83202343D02*
G01*
X178902247Y-83269322D01*
X178878855Y-83326251D01*
X178840581Y-83375267D01*
X178789908Y-83414557D01*
X178736344Y-83436881D01*
X178677988Y-83444290D01*
X178620302Y-83436912D01*
X178567042Y-83414619D01*
X178516336Y-83375267D01*
X178478112Y-83326256D01*
X178454747Y-83269327D01*
X178446581Y-83202343D01*
X178454756Y-83135418D01*
X178478127Y-83078669D01*
X178516336Y-83029932D01*
X178567011Y-82990806D01*
X178620274Y-82968622D01*
X178677988Y-82961275D01*
X178736372Y-82968652D01*
X178789939Y-82990868D01*
X178840581Y-83029932D01*
X178878840Y-83078674D01*
X178902238Y-83135423D01*
X178910422Y-83202343D01*
G37*
G36*
X179910511Y-83477116D02*
G01*
X180123796Y-83453669D01*
X180134627Y-83508556D01*
X180153167Y-83550666D01*
X180178336Y-83582629D01*
X180211630Y-83607888D01*
X180247227Y-83622350D01*
X180286389Y-83627179D01*
X180328643Y-83621443D01*
X180366368Y-83604238D01*
X180401110Y-83573836D01*
X180425952Y-83536159D01*
X180442061Y-83487814D01*
X180447955Y-83425972D01*
X180442327Y-83368539D01*
X180426897Y-83323434D01*
X180402990Y-83288072D01*
X180369762Y-83259498D01*
X180333908Y-83243334D01*
X180293997Y-83237953D01*
X180250333Y-83241835D01*
X180193552Y-83255173D01*
X180217488Y-83069133D01*
X180272345Y-83065065D01*
X180316465Y-83051623D01*
X180352298Y-83029346D01*
X180378601Y-82999270D01*
X180395140Y-82961125D01*
X180401110Y-82912549D01*
X180396723Y-82871616D01*
X180384638Y-82839390D01*
X180365719Y-82813997D01*
X180339775Y-82794147D01*
X180309925Y-82782422D01*
X180274848Y-82778386D01*
X180239942Y-82782749D01*
X180208266Y-82795819D01*
X180178678Y-82818686D01*
X180156585Y-82847496D01*
X180140134Y-82886304D01*
X180130464Y-82937828D01*
X179926753Y-82900312D01*
X179948442Y-82818321D01*
X179976874Y-82753552D01*
X180010930Y-82703046D01*
X180050108Y-82664374D01*
X180115717Y-82623923D01*
X180191879Y-82599367D01*
X180281602Y-82590808D01*
X180357942Y-82597144D01*
X180423592Y-82615302D01*
X180480705Y-82644906D01*
X180530705Y-82686795D01*
X180582627Y-82754125D01*
X180612907Y-82824385D01*
X180623029Y-82899286D01*
X180618257Y-82950798D01*
X180604325Y-82997836D01*
X180581397Y-83041216D01*
X180530675Y-83099320D01*
X180456589Y-83151931D01*
X180516650Y-83172317D01*
X180568685Y-83204232D01*
X180613882Y-83248944D01*
X180646783Y-83301277D01*
X180667375Y-83363053D01*
X180674662Y-83436450D01*
X180667057Y-83517237D01*
X180645193Y-83588286D01*
X180609746Y-83651299D01*
X180560368Y-83707559D01*
X180498955Y-83755447D01*
X180433935Y-83788452D01*
X180364240Y-83808096D01*
X180288269Y-83814757D01*
X180214702Y-83808955D01*
X180148468Y-83792039D01*
X180088060Y-83764081D01*
X180032413Y-83724265D01*
X179986885Y-83676603D01*
X179951237Y-83620514D01*
X179925518Y-83554615D01*
X179910511Y-83477116D01*
G37*
D14*
G36*
X186854841Y-79262000D02*
G01*
X186836465Y-79256266D01*
X186830563Y-79239688D01*
X186836205Y-79222078D01*
X186852447Y-79215410D01*
X186922302Y-79204232D01*
X186957850Y-79191474D01*
X186979739Y-79170370D01*
X186987343Y-79137704D01*
X186987343Y-78059739D01*
X186982214Y-78050677D01*
X186973067Y-78060593D01*
X186579066Y-79203271D01*
X186562978Y-79238485D01*
X186549574Y-79252767D01*
X186531595Y-79259278D01*
X186500078Y-79262000D01*
X186466929Y-79258697D01*
X186448531Y-79250801D01*
X186434602Y-79235289D01*
X186417158Y-79201476D01*
X185960497Y-78047087D01*
X185951264Y-78035033D01*
X185948044Y-78038023D01*
X185946221Y-78053840D01*
X185946221Y-79055382D01*
X185951834Y-79096633D01*
X185968039Y-79131061D01*
X185995375Y-79160358D01*
X186050412Y-79192908D01*
X186126252Y-79215496D01*
X186142323Y-79222078D01*
X186148051Y-79239688D01*
X186142149Y-79256266D01*
X186123773Y-79262000D01*
X185690621Y-79262000D01*
X185672245Y-79256266D01*
X185666343Y-79239688D01*
X185673011Y-79221993D01*
X185690108Y-79215496D01*
X185763753Y-79192197D01*
X185809103Y-79159503D01*
X185836905Y-79114157D01*
X185846631Y-79055382D01*
X185846631Y-78000925D01*
X185842175Y-77957377D01*
X185829779Y-77922724D01*
X185810043Y-77895009D01*
X185783137Y-77873794D01*
X185743781Y-77856087D01*
X185688142Y-77842863D01*
X185673096Y-77837478D01*
X185668390Y-77831986D01*
X185666343Y-77818671D01*
X185672245Y-77802093D01*
X185690621Y-77796359D01*
X186141383Y-77796359D01*
X186160013Y-77799542D01*
X186170704Y-77807814D01*
X186187032Y-77835169D01*
X186594026Y-78837908D01*
X186944429Y-77835340D01*
X186958791Y-77807900D01*
X186970278Y-77799771D01*
X186994010Y-77796359D01*
X187448705Y-77796359D01*
X187467081Y-77802093D01*
X187472983Y-77818671D01*
X187470684Y-77831905D01*
X187465204Y-77837478D01*
X187449133Y-77842949D01*
X187374405Y-77854827D01*
X187338771Y-77868765D01*
X187317839Y-77891843D01*
X187310305Y-77928434D01*
X187310305Y-79137704D01*
X187317921Y-79170187D01*
X187339712Y-79190534D01*
X187375769Y-79202890D01*
X187449133Y-79215410D01*
X187466230Y-79221993D01*
X187472983Y-79239688D01*
X187467081Y-79256266D01*
X187448705Y-79262000D01*
X186854841Y-79262000D01*
G37*
G36*
X188215802Y-77763996D02*
G01*
X188230380Y-77771398D01*
X188252862Y-77805848D01*
X188813473Y-79124967D01*
X188834767Y-79158663D01*
X188870150Y-79185405D01*
X188914713Y-79203524D01*
X188971962Y-79215410D01*
X188988595Y-79222216D01*
X188993932Y-79237722D01*
X188988198Y-79256097D01*
X188971620Y-79262000D01*
X188346383Y-79262000D01*
X188327828Y-79256614D01*
X188322105Y-79241654D01*
X188327662Y-79223104D01*
X188353820Y-79213444D01*
X188437767Y-79197202D01*
X188455801Y-79185445D01*
X188461275Y-79169077D01*
X188457428Y-79150356D01*
X188340570Y-78848423D01*
X187848433Y-78848423D01*
X187770727Y-79052561D01*
X187759187Y-79104451D01*
X187768564Y-79139909D01*
X187798510Y-79170018D01*
X187845847Y-79192098D01*
X187935457Y-79215496D01*
X187953494Y-79224044D01*
X187959051Y-79241654D01*
X187956800Y-79253170D01*
X187951100Y-79258580D01*
X187926994Y-79262000D01*
X187474180Y-79262000D01*
X187448962Y-79258580D01*
X187442037Y-79241654D01*
X187447794Y-79224312D01*
X187465717Y-79215496D01*
X187540426Y-79187768D01*
X187589926Y-79153348D01*
X187627451Y-79107539D01*
X187657801Y-79046663D01*
X187767272Y-78758664D01*
X187879891Y-78758664D01*
X188307060Y-78758664D01*
X188091552Y-78204550D01*
X187879891Y-78758664D01*
X187767272Y-78758664D01*
X188130192Y-77803882D01*
X188152674Y-77771398D01*
X188167325Y-77763993D01*
X188191570Y-77761054D01*
X188215802Y-77763996D01*
G37*
G36*
X190052749Y-78694807D02*
G01*
X190045519Y-78662157D01*
X190025223Y-78642062D01*
X189992381Y-78629514D01*
X189929736Y-78617186D01*
X189911783Y-78609512D01*
X189905800Y-78590942D01*
X189908036Y-78579341D01*
X189913665Y-78573931D01*
X189937943Y-78570511D01*
X190469061Y-78570511D01*
X190492313Y-78574016D01*
X190499237Y-78590942D01*
X190495818Y-78608210D01*
X190475387Y-78617186D01*
X190423279Y-78629291D01*
X190393492Y-78641977D01*
X190374750Y-78661887D01*
X190367932Y-78694807D01*
X190367932Y-79127959D01*
X190364684Y-79146851D01*
X190347245Y-79163521D01*
X190290875Y-79197897D01*
X190215531Y-79230307D01*
X190117034Y-79259948D01*
X190016829Y-79280158D01*
X189905254Y-79292870D01*
X189781078Y-79297305D01*
X189656244Y-79290490D01*
X189546826Y-79271086D01*
X189450764Y-79240286D01*
X189360115Y-79196421D01*
X189281489Y-79143319D01*
X189213628Y-79080857D01*
X189155707Y-79008967D01*
X189107885Y-78928296D01*
X189070014Y-78837823D01*
X189043619Y-78742944D01*
X189027375Y-78640711D01*
X189021800Y-78530162D01*
X189027446Y-78420966D01*
X189043968Y-78319017D01*
X189070954Y-78223442D01*
X189109304Y-78132150D01*
X189156847Y-78051179D01*
X189213628Y-77979468D01*
X189280050Y-77916674D01*
X189356128Y-77863292D01*
X189442899Y-77819098D01*
X189535106Y-77787547D01*
X189638119Y-77767894D01*
X189753637Y-77761054D01*
X189836216Y-77764986D01*
X189928539Y-77775757D01*
X190018897Y-77791487D01*
X190095577Y-77812174D01*
X190140115Y-77821919D01*
X190190722Y-77825766D01*
X190204485Y-77825766D01*
X190220984Y-77824826D01*
X190233892Y-77823800D01*
X190257229Y-77829356D01*
X190266034Y-77851668D01*
X190275779Y-77932024D01*
X190287576Y-78029990D01*
X190299288Y-78129922D01*
X190311085Y-78214295D01*
X190311085Y-78222416D01*
X190307663Y-78233601D01*
X190297493Y-78238830D01*
X190286807Y-78240881D01*
X190271163Y-78234384D01*
X190262871Y-78221818D01*
X190212743Y-78123598D01*
X190164051Y-78049651D01*
X190109148Y-77986703D01*
X190051980Y-77938521D01*
X189988990Y-77901936D01*
X189921444Y-77878168D01*
X189849115Y-77865158D01*
X189765434Y-77860558D01*
X189679587Y-77869940D01*
X189604599Y-77897139D01*
X189538010Y-77942317D01*
X189478375Y-78007678D01*
X189434270Y-78082564D01*
X189400459Y-78175912D01*
X189378356Y-78291571D01*
X189370322Y-78434077D01*
X189375248Y-78568519D01*
X189389023Y-78683094D01*
X189410329Y-78780292D01*
X189441568Y-78875019D01*
X189477232Y-78953349D01*
X189516758Y-79017512D01*
X189564554Y-79075432D01*
X189614786Y-79120400D01*
X189667725Y-79153946D01*
X189754303Y-79186945D01*
X189841858Y-79197715D01*
X189949447Y-79189563D01*
X190005732Y-79170872D01*
X190030722Y-79148918D01*
X190046709Y-79115804D01*
X190052749Y-79067179D01*
X190052749Y-78694807D01*
G37*
G36*
X190664651Y-79262000D02*
G01*
X190646275Y-79256266D01*
X190640373Y-79239688D01*
X190646015Y-79222078D01*
X190662257Y-79215410D01*
X190742758Y-79203075D01*
X190780483Y-79191474D01*
X190803001Y-79171795D01*
X190810830Y-79139670D01*
X190810830Y-77918603D01*
X190803003Y-77886569D01*
X190780483Y-77866970D01*
X190742755Y-77855310D01*
X190662257Y-77842949D01*
X190646100Y-77837392D01*
X190640373Y-77818671D01*
X190646275Y-77802093D01*
X190664651Y-77796359D01*
X191289888Y-77796359D01*
X191308263Y-77802093D01*
X191314166Y-77818671D01*
X191312119Y-77831986D01*
X191307412Y-77837478D01*
X191292367Y-77842949D01*
X191211783Y-77855307D01*
X191173970Y-77866970D01*
X191151450Y-77886569D01*
X191143623Y-77918603D01*
X191143623Y-79139670D01*
X191151452Y-79171795D01*
X191173970Y-79191474D01*
X191211780Y-79203078D01*
X191292367Y-79215410D01*
X191307498Y-79221993D01*
X191314166Y-79239688D01*
X191308263Y-79256266D01*
X191289888Y-79262000D01*
X190664651Y-79262000D01*
G37*
D13*
G36*
X196157786Y-83796000D02*
G01*
X196157786Y-82595497D01*
X196504941Y-82595497D01*
X196713439Y-83419084D01*
X196920056Y-82595497D01*
X197268151Y-82595497D01*
X197268151Y-83796000D01*
X197052985Y-83796000D01*
X197052985Y-82846310D01*
X196824398Y-83796000D01*
X196600598Y-83796000D01*
X196373978Y-82846310D01*
X196373978Y-83796000D01*
X196157786Y-83796000D01*
G37*
G36*
X197499302Y-83796000D02*
G01*
X197499302Y-82595497D01*
X198352357Y-82595497D01*
X198352357Y-82797144D01*
X197730710Y-82797144D01*
X197730710Y-83064443D01*
X198308418Y-83064443D01*
X198308418Y-83266090D01*
X197730710Y-83266090D01*
X197730710Y-83594353D01*
X198373386Y-83594353D01*
X198373386Y-83796000D01*
X197499302Y-83796000D01*
G37*
G36*
X198575986Y-83796000D02*
G01*
X198575986Y-82604876D01*
X198807479Y-82604876D01*
X198807479Y-83594353D01*
X199385101Y-83594353D01*
X199385101Y-83796000D01*
X198575986Y-83796000D01*
G37*
G36*
X200286369Y-83355190D02*
G01*
X200511109Y-83430221D01*
X200477573Y-83530486D01*
X200436636Y-83610548D01*
X200389352Y-83673666D01*
X200336122Y-83722507D01*
X200272038Y-83762536D01*
X200201383Y-83791145D01*
X200122885Y-83808691D01*
X200034873Y-83814757D01*
X199946821Y-83808622D01*
X199867765Y-83790823D01*
X199796089Y-83761697D01*
X199730569Y-83720806D01*
X199670450Y-83666966D01*
X199615099Y-83597624D01*
X199570849Y-83518445D01*
X199537928Y-83428024D01*
X199517137Y-83324653D01*
X199509824Y-83206373D01*
X199517316Y-83080670D01*
X199538498Y-82972011D01*
X199571814Y-82878123D01*
X199616271Y-82797012D01*
X199671476Y-82727022D01*
X199731878Y-82672680D01*
X199798732Y-82631165D01*
X199872911Y-82601399D01*
X199955806Y-82583088D01*
X200049234Y-82576739D01*
X200143473Y-82584066D01*
X200227511Y-82605329D01*
X200303361Y-82640300D01*
X200372453Y-82689872D01*
X200425745Y-82747894D01*
X200471442Y-82825858D01*
X200508288Y-82928449D01*
X200278761Y-82984722D01*
X200258083Y-82922118D01*
X200228700Y-82873097D01*
X200191225Y-82835173D01*
X200144674Y-82806091D01*
X200093741Y-82788915D01*
X200036839Y-82783076D01*
X199976169Y-82789001D01*
X199922353Y-82806323D01*
X199873708Y-82835395D01*
X199829281Y-82877891D01*
X199797746Y-82925684D01*
X199772507Y-82990657D01*
X199755352Y-83077298D01*
X199748925Y-83190839D01*
X199755277Y-83309104D01*
X199772152Y-83398514D01*
X199796802Y-83464773D01*
X199827315Y-83512800D01*
X199870913Y-83555770D01*
X199918651Y-83585061D01*
X199971457Y-83602471D01*
X200031026Y-83608421D01*
X200089244Y-83601734D01*
X200141560Y-83581898D01*
X200189771Y-83547751D01*
X200227296Y-83503877D01*
X200259977Y-83441425D01*
X200286369Y-83355190D01*
G37*
G36*
X200710802Y-83796000D02*
G01*
X200710802Y-82595497D01*
X200942210Y-82595497D01*
X200942210Y-83069133D01*
X201397503Y-83069133D01*
X201397503Y-82595497D01*
X201629852Y-82595497D01*
X201629852Y-83796000D01*
X201397503Y-83796000D01*
X201397503Y-83270780D01*
X200942210Y-83270780D01*
X200942210Y-83796000D01*
X200710802Y-83796000D01*
G37*
G36*
X201863055Y-83796000D02*
G01*
X201863055Y-82595497D01*
X202094463Y-82595497D01*
X202094463Y-83796000D01*
X201863055Y-83796000D01*
G37*
G36*
X202923976Y-82583413D02*
G01*
X203011053Y-82602791D01*
X203090194Y-82634514D01*
X203162718Y-82679047D01*
X203229447Y-82737646D01*
X203282216Y-82802686D01*
X203324886Y-82879070D01*
X203357022Y-82968567D01*
X203377560Y-83073314D01*
X203384859Y-83195748D01*
X203377263Y-83318829D01*
X203355779Y-83425209D01*
X203321948Y-83517155D01*
X203276715Y-83596639D01*
X203220385Y-83665281D01*
X203158663Y-83718953D01*
X203089813Y-83760213D01*
X203012860Y-83789967D01*
X202926315Y-83808360D01*
X202828266Y-83814757D01*
X202729228Y-83808398D01*
X202642025Y-83790139D01*
X202564712Y-83760660D01*
X202495767Y-83719880D01*
X202434180Y-83666966D01*
X202377635Y-83598215D01*
X202332367Y-83519127D01*
X202298615Y-83428190D01*
X202277244Y-83323549D01*
X202269707Y-83203076D01*
X202270238Y-83194942D01*
X202508808Y-83194942D01*
X202515740Y-83300731D01*
X202534677Y-83385272D01*
X202563413Y-83452315D01*
X202600619Y-83505033D01*
X202651097Y-83551632D01*
X202705091Y-83583329D01*
X202763566Y-83602065D01*
X202828180Y-83608421D01*
X202893388Y-83602065D01*
X202951869Y-83583402D01*
X203005342Y-83551965D01*
X203054801Y-83505912D01*
X203090952Y-83453756D01*
X203119125Y-83386315D01*
X203137840Y-83300060D01*
X203144731Y-83190839D01*
X203138001Y-83083635D01*
X203119750Y-82999224D01*
X203092322Y-82933455D01*
X203057195Y-82882800D01*
X203009114Y-82838453D01*
X202955792Y-82807823D01*
X202896108Y-82789412D01*
X202828180Y-82783076D01*
X202760354Y-82789431D01*
X202700436Y-82807942D01*
X202646587Y-82838817D01*
X202597713Y-82883606D01*
X202562036Y-82934737D01*
X202534183Y-83001175D01*
X202515645Y-83086503D01*
X202508808Y-83194942D01*
X202270238Y-83194942D01*
X202278977Y-83061188D01*
X202304560Y-82945160D01*
X202343822Y-82850706D01*
X202400619Y-82763286D01*
X202465147Y-82695526D01*
X202537446Y-82644517D01*
X202620470Y-82607639D01*
X202716131Y-82584760D01*
X202827240Y-82576739D01*
X202923976Y-82583413D01*
G37*
G36*
X204181671Y-82600106D02*
G01*
X204267488Y-82611777D01*
X204323142Y-82627810D01*
X204372242Y-82653764D01*
X204416111Y-82690538D01*
X204455131Y-82739918D01*
X204483097Y-82794708D01*
X204500607Y-82857839D01*
X204506764Y-82930940D01*
X204497146Y-83022505D01*
X204470317Y-83096888D01*
X204427861Y-83157573D01*
X204369222Y-83206869D01*
X204295585Y-83242839D01*
X204203634Y-83265504D01*
X204272831Y-83314460D01*
X204326989Y-83366034D01*
X204377930Y-83432381D01*
X204460003Y-83561526D01*
X204599600Y-83796000D01*
X204323142Y-83796000D01*
X204154907Y-83535661D01*
X204069704Y-83407983D01*
X204031467Y-83358121D01*
X203996706Y-83326471D01*
X203962652Y-83308002D01*
X203920640Y-83298340D01*
X203845965Y-83294227D01*
X203798093Y-83294227D01*
X203798093Y-83796000D01*
X203566685Y-83796000D01*
X203566685Y-83101959D01*
X203798093Y-83101959D01*
X203970260Y-83101959D01*
X204114018Y-83098017D01*
X204171064Y-83090089D01*
X204209637Y-83072467D01*
X204240905Y-83042168D01*
X204260438Y-83002249D01*
X204267748Y-82946254D01*
X204260472Y-82892631D01*
X204240905Y-82854077D01*
X204209339Y-82824680D01*
X204168243Y-82806157D01*
X204120962Y-82800288D01*
X203979834Y-82797144D01*
X203798093Y-82797144D01*
X203798093Y-83101959D01*
X203566685Y-83101959D01*
X203566685Y-82595497D01*
X204055403Y-82595497D01*
X204181671Y-82600106D01*
G37*
G36*
X205570283Y-83202343D02*
G01*
X205562108Y-83269322D01*
X205538715Y-83326251D01*
X205500441Y-83375267D01*
X205449769Y-83414557D01*
X205396204Y-83436881D01*
X205337849Y-83444290D01*
X205280162Y-83436912D01*
X205226902Y-83414619D01*
X205176197Y-83375267D01*
X205137972Y-83326256D01*
X205114607Y-83269327D01*
X205106441Y-83202343D01*
X205114616Y-83135418D01*
X205137987Y-83078669D01*
X205176197Y-83029932D01*
X205226872Y-82990806D01*
X205280134Y-82968622D01*
X205337849Y-82961275D01*
X205396232Y-82968652D01*
X205449799Y-82990868D01*
X205500441Y-83029932D01*
X205538701Y-83078674D01*
X205562099Y-83135423D01*
X205570283Y-83202343D01*
G37*
G36*
X206695009Y-83796000D02*
G01*
X206475056Y-83796000D01*
X206475056Y-82923759D01*
X206387494Y-82996297D01*
X206292771Y-83053775D01*
X206190049Y-83097270D01*
X206190049Y-82890933D01*
X206248566Y-82866101D01*
X206311721Y-82829220D01*
X206380338Y-82778093D01*
X206439940Y-82720451D01*
X206485200Y-82658260D01*
X206517114Y-82590808D01*
X206695009Y-82590808D01*
X206695009Y-83796000D01*
G37*
D15*
X208903333Y-83256033D02*
X208670000Y-82922700D01*
X208503333Y-83256033D02*
X208503333Y-82556033D01*
X208503333Y-82556033D02*
X208770000Y-82556033D01*
X208770000Y-82556033D02*
X208836667Y-82589366D01*
X208836667Y-82589366D02*
X208870000Y-82622700D01*
X208870000Y-82622700D02*
X208903333Y-82689366D01*
X208903333Y-82689366D02*
X208903333Y-82789366D01*
X208903333Y-82789366D02*
X208870000Y-82856033D01*
X208870000Y-82856033D02*
X208836667Y-82889366D01*
X208836667Y-82889366D02*
X208770000Y-82922700D01*
X208770000Y-82922700D02*
X208503333Y-82922700D01*
X209570000Y-83256033D02*
X209170000Y-83256033D01*
X209370000Y-83256033D02*
X209370000Y-82556033D01*
X209370000Y-82556033D02*
X209303333Y-82656033D01*
X209303333Y-82656033D02*
X209236667Y-82722700D01*
X209236667Y-82722700D02*
X209170000Y-82756033D01*
X177036667Y-111863200D02*
X177179524Y-111910819D01*
X177179524Y-111910819D02*
X177417619Y-111910819D01*
X177417619Y-111910819D02*
X177512857Y-111863200D01*
X177512857Y-111863200D02*
X177560476Y-111815580D01*
X177560476Y-111815580D02*
X177608095Y-111720342D01*
X177608095Y-111720342D02*
X177608095Y-111625104D01*
X177608095Y-111625104D02*
X177560476Y-111529866D01*
X177560476Y-111529866D02*
X177512857Y-111482247D01*
X177512857Y-111482247D02*
X177417619Y-111434628D01*
X177417619Y-111434628D02*
X177227143Y-111387009D01*
X177227143Y-111387009D02*
X177131905Y-111339390D01*
X177131905Y-111339390D02*
X177084286Y-111291771D01*
X177084286Y-111291771D02*
X177036667Y-111196533D01*
X177036667Y-111196533D02*
X177036667Y-111101295D01*
X177036667Y-111101295D02*
X177084286Y-111006057D01*
X177084286Y-111006057D02*
X177131905Y-110958438D01*
X177131905Y-110958438D02*
X177227143Y-110910819D01*
X177227143Y-110910819D02*
X177465238Y-110910819D01*
X177465238Y-110910819D02*
X177608095Y-110958438D01*
X177941429Y-110910819D02*
X178179524Y-111910819D01*
X178179524Y-111910819D02*
X178370000Y-111196533D01*
X178370000Y-111196533D02*
X178560476Y-111910819D01*
X178560476Y-111910819D02*
X178798572Y-110910819D01*
X179084286Y-110910819D02*
X179703333Y-110910819D01*
X179703333Y-110910819D02*
X179370000Y-111291771D01*
X179370000Y-111291771D02*
X179512857Y-111291771D01*
X179512857Y-111291771D02*
X179608095Y-111339390D01*
X179608095Y-111339390D02*
X179655714Y-111387009D01*
X179655714Y-111387009D02*
X179703333Y-111482247D01*
X179703333Y-111482247D02*
X179703333Y-111720342D01*
X179703333Y-111720342D02*
X179655714Y-111815580D01*
X179655714Y-111815580D02*
X179608095Y-111863200D01*
X179608095Y-111863200D02*
X179512857Y-111910819D01*
X179512857Y-111910819D02*
X179227143Y-111910819D01*
X179227143Y-111910819D02*
X179131905Y-111863200D01*
X179131905Y-111863200D02*
X179084286Y-111815580D01*
X206362295Y-76090475D02*
X205562295Y-76090475D01*
X205562295Y-76090475D02*
X205562295Y-75899999D01*
X205562295Y-75899999D02*
X205600390Y-75785713D01*
X205600390Y-75785713D02*
X205676580Y-75709523D01*
X205676580Y-75709523D02*
X205752771Y-75671428D01*
X205752771Y-75671428D02*
X205905152Y-75633332D01*
X205905152Y-75633332D02*
X206019438Y-75633332D01*
X206019438Y-75633332D02*
X206171819Y-75671428D01*
X206171819Y-75671428D02*
X206248009Y-75709523D01*
X206248009Y-75709523D02*
X206324200Y-75785713D01*
X206324200Y-75785713D02*
X206362295Y-75899999D01*
X206362295Y-75899999D02*
X206362295Y-76090475D01*
X206362295Y-74871428D02*
X206362295Y-75328571D01*
X206362295Y-75099999D02*
X205562295Y-75099999D01*
X205562295Y-75099999D02*
X205676580Y-75176190D01*
X205676580Y-75176190D02*
X205752771Y-75252380D01*
X205752771Y-75252380D02*
X205790866Y-75328571D01*
X177036667Y-91863200D02*
X177179524Y-91910819D01*
X177179524Y-91910819D02*
X177417619Y-91910819D01*
X177417619Y-91910819D02*
X177512857Y-91863200D01*
X177512857Y-91863200D02*
X177560476Y-91815580D01*
X177560476Y-91815580D02*
X177608095Y-91720342D01*
X177608095Y-91720342D02*
X177608095Y-91625104D01*
X177608095Y-91625104D02*
X177560476Y-91529866D01*
X177560476Y-91529866D02*
X177512857Y-91482247D01*
X177512857Y-91482247D02*
X177417619Y-91434628D01*
X177417619Y-91434628D02*
X177227143Y-91387009D01*
X177227143Y-91387009D02*
X177131905Y-91339390D01*
X177131905Y-91339390D02*
X177084286Y-91291771D01*
X177084286Y-91291771D02*
X177036667Y-91196533D01*
X177036667Y-91196533D02*
X177036667Y-91101295D01*
X177036667Y-91101295D02*
X177084286Y-91006057D01*
X177084286Y-91006057D02*
X177131905Y-90958438D01*
X177131905Y-90958438D02*
X177227143Y-90910819D01*
X177227143Y-90910819D02*
X177465238Y-90910819D01*
X177465238Y-90910819D02*
X177608095Y-90958438D01*
X177941429Y-90910819D02*
X178179524Y-91910819D01*
X178179524Y-91910819D02*
X178370000Y-91196533D01*
X178370000Y-91196533D02*
X178560476Y-91910819D01*
X178560476Y-91910819D02*
X178798572Y-90910819D01*
X179703333Y-91910819D02*
X179131905Y-91910819D01*
X179417619Y-91910819D02*
X179417619Y-90910819D01*
X179417619Y-90910819D02*
X179322381Y-91053676D01*
X179322381Y-91053676D02*
X179227143Y-91148914D01*
X179227143Y-91148914D02*
X179131905Y-91196533D01*
X196886667Y-91823200D02*
X197029524Y-91870819D01*
X197029524Y-91870819D02*
X197267619Y-91870819D01*
X197267619Y-91870819D02*
X197362857Y-91823200D01*
X197362857Y-91823200D02*
X197410476Y-91775580D01*
X197410476Y-91775580D02*
X197458095Y-91680342D01*
X197458095Y-91680342D02*
X197458095Y-91585104D01*
X197458095Y-91585104D02*
X197410476Y-91489866D01*
X197410476Y-91489866D02*
X197362857Y-91442247D01*
X197362857Y-91442247D02*
X197267619Y-91394628D01*
X197267619Y-91394628D02*
X197077143Y-91347009D01*
X197077143Y-91347009D02*
X196981905Y-91299390D01*
X196981905Y-91299390D02*
X196934286Y-91251771D01*
X196934286Y-91251771D02*
X196886667Y-91156533D01*
X196886667Y-91156533D02*
X196886667Y-91061295D01*
X196886667Y-91061295D02*
X196934286Y-90966057D01*
X196934286Y-90966057D02*
X196981905Y-90918438D01*
X196981905Y-90918438D02*
X197077143Y-90870819D01*
X197077143Y-90870819D02*
X197315238Y-90870819D01*
X197315238Y-90870819D02*
X197458095Y-90918438D01*
X197791429Y-90870819D02*
X198029524Y-91870819D01*
X198029524Y-91870819D02*
X198220000Y-91156533D01*
X198220000Y-91156533D02*
X198410476Y-91870819D01*
X198410476Y-91870819D02*
X198648572Y-90870819D01*
X198981905Y-90966057D02*
X199029524Y-90918438D01*
X199029524Y-90918438D02*
X199124762Y-90870819D01*
X199124762Y-90870819D02*
X199362857Y-90870819D01*
X199362857Y-90870819D02*
X199458095Y-90918438D01*
X199458095Y-90918438D02*
X199505714Y-90966057D01*
X199505714Y-90966057D02*
X199553333Y-91061295D01*
X199553333Y-91061295D02*
X199553333Y-91156533D01*
X199553333Y-91156533D02*
X199505714Y-91299390D01*
X199505714Y-91299390D02*
X198934286Y-91870819D01*
X198934286Y-91870819D02*
X199553333Y-91870819D01*
X201556033Y-66666666D02*
X201222700Y-66899999D01*
X201556033Y-67066666D02*
X200856033Y-67066666D01*
X200856033Y-67066666D02*
X200856033Y-66799999D01*
X200856033Y-66799999D02*
X200889366Y-66733333D01*
X200889366Y-66733333D02*
X200922700Y-66699999D01*
X200922700Y-66699999D02*
X200989366Y-66666666D01*
X200989366Y-66666666D02*
X201089366Y-66666666D01*
X201089366Y-66666666D02*
X201156033Y-66699999D01*
X201156033Y-66699999D02*
X201189366Y-66733333D01*
X201189366Y-66733333D02*
X201222700Y-66799999D01*
X201222700Y-66799999D02*
X201222700Y-67066666D01*
X201089366Y-66066666D02*
X201556033Y-66066666D01*
X200822700Y-66233333D02*
X201322700Y-66399999D01*
X201322700Y-66399999D02*
X201322700Y-65966666D01*
X192511586Y-68130475D02*
X191711586Y-68130475D01*
X191711586Y-68130475D02*
X191711586Y-67939999D01*
X191711586Y-67939999D02*
X191749681Y-67825713D01*
X191749681Y-67825713D02*
X191825871Y-67749523D01*
X191825871Y-67749523D02*
X191902062Y-67711428D01*
X191902062Y-67711428D02*
X192054443Y-67673332D01*
X192054443Y-67673332D02*
X192168729Y-67673332D01*
X192168729Y-67673332D02*
X192321110Y-67711428D01*
X192321110Y-67711428D02*
X192397300Y-67749523D01*
X192397300Y-67749523D02*
X192473491Y-67825713D01*
X192473491Y-67825713D02*
X192511586Y-67939999D01*
X192511586Y-67939999D02*
X192511586Y-68130475D01*
X191787776Y-67368571D02*
X191749681Y-67330475D01*
X191749681Y-67330475D02*
X191711586Y-67254285D01*
X191711586Y-67254285D02*
X191711586Y-67063809D01*
X191711586Y-67063809D02*
X191749681Y-66987618D01*
X191749681Y-66987618D02*
X191787776Y-66949523D01*
X191787776Y-66949523D02*
X191863967Y-66911428D01*
X191863967Y-66911428D02*
X191940157Y-66911428D01*
X191940157Y-66911428D02*
X192054443Y-66949523D01*
X192054443Y-66949523D02*
X192511586Y-67406666D01*
X192511586Y-67406666D02*
X192511586Y-66911428D01*
X193257324Y-63386666D02*
X192923991Y-63619999D01*
X193257324Y-63786666D02*
X192557324Y-63786666D01*
X192557324Y-63786666D02*
X192557324Y-63519999D01*
X192557324Y-63519999D02*
X192590657Y-63453333D01*
X192590657Y-63453333D02*
X192623991Y-63419999D01*
X192623991Y-63419999D02*
X192690657Y-63386666D01*
X192690657Y-63386666D02*
X192790657Y-63386666D01*
X192790657Y-63386666D02*
X192857324Y-63419999D01*
X192857324Y-63419999D02*
X192890657Y-63453333D01*
X192890657Y-63453333D02*
X192923991Y-63519999D01*
X192923991Y-63519999D02*
X192923991Y-63786666D01*
X192623991Y-63119999D02*
X192590657Y-63086666D01*
X192590657Y-63086666D02*
X192557324Y-63019999D01*
X192557324Y-63019999D02*
X192557324Y-62853333D01*
X192557324Y-62853333D02*
X192590657Y-62786666D01*
X192590657Y-62786666D02*
X192623991Y-62753333D01*
X192623991Y-62753333D02*
X192690657Y-62719999D01*
X192690657Y-62719999D02*
X192757324Y-62719999D01*
X192757324Y-62719999D02*
X192857324Y-62753333D01*
X192857324Y-62753333D02*
X193257324Y-63153333D01*
X193257324Y-63153333D02*
X193257324Y-62719999D01*
X167813333Y-83536033D02*
X167580000Y-83202700D01*
X167413333Y-83536033D02*
X167413333Y-82836033D01*
X167413333Y-82836033D02*
X167680000Y-82836033D01*
X167680000Y-82836033D02*
X167746667Y-82869366D01*
X167746667Y-82869366D02*
X167780000Y-82902700D01*
X167780000Y-82902700D02*
X167813333Y-82969366D01*
X167813333Y-82969366D02*
X167813333Y-83069366D01*
X167813333Y-83069366D02*
X167780000Y-83136033D01*
X167780000Y-83136033D02*
X167746667Y-83169366D01*
X167746667Y-83169366D02*
X167680000Y-83202700D01*
X167680000Y-83202700D02*
X167413333Y-83202700D01*
X168046667Y-82836033D02*
X168480000Y-82836033D01*
X168480000Y-82836033D02*
X168246667Y-83102700D01*
X168246667Y-83102700D02*
X168346667Y-83102700D01*
X168346667Y-83102700D02*
X168413333Y-83136033D01*
X168413333Y-83136033D02*
X168446667Y-83169366D01*
X168446667Y-83169366D02*
X168480000Y-83236033D01*
X168480000Y-83236033D02*
X168480000Y-83402700D01*
X168480000Y-83402700D02*
X168446667Y-83469366D01*
X168446667Y-83469366D02*
X168413333Y-83502700D01*
X168413333Y-83502700D02*
X168346667Y-83536033D01*
X168346667Y-83536033D02*
X168146667Y-83536033D01*
X168146667Y-83536033D02*
X168080000Y-83502700D01*
X168080000Y-83502700D02*
X168046667Y-83469366D01*
D16*
X189836190Y-35673479D02*
X189836190Y-36187526D01*
X189836190Y-36187526D02*
X189866428Y-36248002D01*
X189866428Y-36248002D02*
X189896666Y-36278241D01*
X189896666Y-36278241D02*
X189957142Y-36308479D01*
X189957142Y-36308479D02*
X190078095Y-36308479D01*
X190078095Y-36308479D02*
X190138571Y-36278241D01*
X190138571Y-36278241D02*
X190168809Y-36248002D01*
X190168809Y-36248002D02*
X190199047Y-36187526D01*
X190199047Y-36187526D02*
X190199047Y-35673479D01*
X190834047Y-36308479D02*
X190471190Y-36308479D01*
X190652618Y-36308479D02*
X190652618Y-35673479D01*
X190652618Y-35673479D02*
X190592142Y-35764193D01*
X190592142Y-35764193D02*
X190531666Y-35824669D01*
X190531666Y-35824669D02*
X190471190Y-35854907D01*
D15*
X196886667Y-111823200D02*
X197029524Y-111870819D01*
X197029524Y-111870819D02*
X197267619Y-111870819D01*
X197267619Y-111870819D02*
X197362857Y-111823200D01*
X197362857Y-111823200D02*
X197410476Y-111775580D01*
X197410476Y-111775580D02*
X197458095Y-111680342D01*
X197458095Y-111680342D02*
X197458095Y-111585104D01*
X197458095Y-111585104D02*
X197410476Y-111489866D01*
X197410476Y-111489866D02*
X197362857Y-111442247D01*
X197362857Y-111442247D02*
X197267619Y-111394628D01*
X197267619Y-111394628D02*
X197077143Y-111347009D01*
X197077143Y-111347009D02*
X196981905Y-111299390D01*
X196981905Y-111299390D02*
X196934286Y-111251771D01*
X196934286Y-111251771D02*
X196886667Y-111156533D01*
X196886667Y-111156533D02*
X196886667Y-111061295D01*
X196886667Y-111061295D02*
X196934286Y-110966057D01*
X196934286Y-110966057D02*
X196981905Y-110918438D01*
X196981905Y-110918438D02*
X197077143Y-110870819D01*
X197077143Y-110870819D02*
X197315238Y-110870819D01*
X197315238Y-110870819D02*
X197458095Y-110918438D01*
X197791429Y-110870819D02*
X198029524Y-111870819D01*
X198029524Y-111870819D02*
X198220000Y-111156533D01*
X198220000Y-111156533D02*
X198410476Y-111870819D01*
X198410476Y-111870819D02*
X198648572Y-110870819D01*
X199458095Y-111204152D02*
X199458095Y-111870819D01*
X199220000Y-110823200D02*
X198981905Y-111537485D01*
X198981905Y-111537485D02*
X199600952Y-111537485D01*
X170409524Y-75862295D02*
X170409524Y-75062295D01*
X170409524Y-75062295D02*
X170600000Y-75062295D01*
X170600000Y-75062295D02*
X170714286Y-75100390D01*
X170714286Y-75100390D02*
X170790476Y-75176580D01*
X170790476Y-75176580D02*
X170828571Y-75252771D01*
X170828571Y-75252771D02*
X170866667Y-75405152D01*
X170866667Y-75405152D02*
X170866667Y-75519438D01*
X170866667Y-75519438D02*
X170828571Y-75671819D01*
X170828571Y-75671819D02*
X170790476Y-75748009D01*
X170790476Y-75748009D02*
X170714286Y-75824200D01*
X170714286Y-75824200D02*
X170600000Y-75862295D01*
X170600000Y-75862295D02*
X170409524Y-75862295D01*
X171133333Y-75062295D02*
X171628571Y-75062295D01*
X171628571Y-75062295D02*
X171361905Y-75367057D01*
X171361905Y-75367057D02*
X171476190Y-75367057D01*
X171476190Y-75367057D02*
X171552381Y-75405152D01*
X171552381Y-75405152D02*
X171590476Y-75443247D01*
X171590476Y-75443247D02*
X171628571Y-75519438D01*
X171628571Y-75519438D02*
X171628571Y-75709914D01*
X171628571Y-75709914D02*
X171590476Y-75786104D01*
X171590476Y-75786104D02*
X171552381Y-75824200D01*
X171552381Y-75824200D02*
X171476190Y-75862295D01*
X171476190Y-75862295D02*
X171247619Y-75862295D01*
X171247619Y-75862295D02*
X171171428Y-75824200D01*
X171171428Y-75824200D02*
X171133333Y-75786104D01*
X205039524Y-63315166D02*
X205039524Y-62515166D01*
X205039524Y-62515166D02*
X205230000Y-62515166D01*
X205230000Y-62515166D02*
X205344286Y-62553261D01*
X205344286Y-62553261D02*
X205420476Y-62629451D01*
X205420476Y-62629451D02*
X205458571Y-62705642D01*
X205458571Y-62705642D02*
X205496667Y-62858023D01*
X205496667Y-62858023D02*
X205496667Y-62972309D01*
X205496667Y-62972309D02*
X205458571Y-63124690D01*
X205458571Y-63124690D02*
X205420476Y-63200880D01*
X205420476Y-63200880D02*
X205344286Y-63277071D01*
X205344286Y-63277071D02*
X205230000Y-63315166D01*
X205230000Y-63315166D02*
X205039524Y-63315166D01*
X206182381Y-62781832D02*
X206182381Y-63315166D01*
X205991905Y-62477071D02*
X205801428Y-63048499D01*
X205801428Y-63048499D02*
X206296667Y-63048499D01*
D17*
%TO.C,R1*%
X208080000Y-80920000D02*
X208080000Y-77080000D01*
X209920000Y-80920000D02*
X209920000Y-77080000D01*
%TO.C,SW3*%
X171385000Y-112345000D02*
X185355000Y-112345000D01*
X171385000Y-126315000D02*
X171385000Y-112345000D01*
X185355000Y-112345000D02*
X185355000Y-126315000D01*
X185355000Y-126315000D02*
X171385000Y-126315000D01*
D18*
%TO.C,D1*%
X204730000Y-79566000D02*
X204730000Y-76434000D01*
X204730000Y-79566000D02*
G75*
G02*
X204730000Y-76434000I-2506124J1566000D01*
G01*
D19*
X205530000Y-78000000D02*
G75*
G02*
X205330000Y-78000000I-100000J0D01*
G01*
X205330000Y-78000000D02*
G75*
G02*
X205530000Y-78000000I100000J0D01*
G01*
D17*
%TO.C,SW1*%
X171385000Y-92345000D02*
X185355000Y-92345000D01*
X171385000Y-106315000D02*
X171385000Y-92345000D01*
X185355000Y-92345000D02*
X185355000Y-106315000D01*
X185355000Y-106315000D02*
X171385000Y-106315000D01*
%TO.C,SW2*%
X191235000Y-92305000D02*
X205205000Y-92305000D01*
X191235000Y-106275000D02*
X191235000Y-92305000D01*
X205205000Y-92305000D02*
X205205000Y-106275000D01*
X205205000Y-106275000D02*
X191235000Y-106275000D01*
%TO.C,R4*%
X202240000Y-68470000D02*
X202240000Y-64630000D01*
X204080000Y-68470000D02*
X204080000Y-64630000D01*
D18*
%TO.C,D2*%
X190007291Y-65000000D02*
X186875291Y-65000000D01*
X190007291Y-65000000D02*
G75*
G02*
X186875291Y-65000000I-1566000J-2506124D01*
G01*
D19*
X188541291Y-64300000D02*
G75*
G02*
X188341291Y-64300000I-100000J0D01*
G01*
X188341291Y-64300000D02*
G75*
G02*
X188541291Y-64300000I100000J0D01*
G01*
D17*
%TO.C,R2*%
X186521291Y-62350000D02*
X190361291Y-62350000D01*
X186521291Y-64190000D02*
X190361291Y-64190000D01*
%TO.C,R3*%
X167080000Y-80960000D02*
X167080000Y-77120000D01*
X168920000Y-80960000D02*
X168920000Y-77120000D01*
D18*
%TO.C,U1*%
X189930000Y-56529000D02*
X189930000Y-39384000D01*
X191835000Y-58434000D02*
X205805000Y-58434000D01*
X194325000Y-37479000D02*
X194328728Y-36568728D01*
X194828728Y-36069000D02*
X202824000Y-36069000D01*
X203324000Y-36569000D02*
X203324000Y-37479000D01*
D10*
X205805000Y-37479000D02*
X191835000Y-37479000D01*
D18*
X205805000Y-37479000D02*
X191835000Y-37479000D01*
X207710000Y-56529000D02*
X207710000Y-39384000D01*
X189930000Y-39384000D02*
G75*
G02*
X191835000Y-37479000I1905001J-1D01*
G01*
X191835000Y-58434000D02*
G75*
G02*
X189930000Y-56529000I1J1905001D01*
G01*
X194328728Y-36568728D02*
G75*
G02*
X194828728Y-36069001I500018J-291D01*
G01*
X202824000Y-36069000D02*
G75*
G02*
X203324000Y-36569000I0J-500000D01*
G01*
X205805000Y-37479000D02*
G75*
G02*
X207710000Y-39384000I0J-1905000D01*
G01*
X207710000Y-56529000D02*
G75*
G02*
X205805000Y-58434000I-1905000J0D01*
G01*
D20*
X190122000Y-37720000D02*
G75*
G02*
X189618000Y-37720000I-252000J0D01*
G01*
X189618000Y-37720000D02*
G75*
G02*
X190122000Y-37720000I252000J0D01*
G01*
X191265000Y-38600000D02*
G75*
G02*
X190761000Y-38600000I-252000J0D01*
G01*
X190761000Y-38600000D02*
G75*
G02*
X191265000Y-38600000I252000J0D01*
G01*
D17*
%TO.C,SW4*%
X191235000Y-112305000D02*
X205205000Y-112305000D01*
X191235000Y-126275000D02*
X191235000Y-112305000D01*
X205205000Y-112305000D02*
X205205000Y-126275000D01*
X205205000Y-126275000D02*
X191235000Y-126275000D01*
D18*
%TO.C,D3*%
X172230000Y-76434000D02*
X172230000Y-79566000D01*
X172230000Y-76434000D02*
G75*
G02*
X172230000Y-79566000I2506124J-1566000D01*
G01*
D19*
X171630000Y-78000000D02*
G75*
G02*
X171430000Y-78000000I-100000J0D01*
G01*
X171430000Y-78000000D02*
G75*
G02*
X171630000Y-78000000I100000J0D01*
G01*
D18*
%TO.C,D4*%
X204590000Y-65036871D02*
X204590000Y-68168871D01*
X204590000Y-65036871D02*
G75*
G02*
X204590000Y-68168871I2506124J-1566000D01*
G01*
D19*
X203990000Y-66602871D02*
G75*
G02*
X203790000Y-66602871I-100000J0D01*
G01*
X203790000Y-66602871D02*
G75*
G02*
X203990000Y-66602871I100000J0D01*
G01*
%TD*%
M02*
