%TF.GenerationSoftware,KiCad,Pcbnew,9.0.2*%
%TF.CreationDate,2025-06-30T11:25:16-04:00*%
%TF.ProjectId,magi_controller,6d616769-5f63-46f6-9e74-726f6c6c6572,rev?*%
%TF.SameCoordinates,Original*%
%TF.FileFunction,Soldermask,Bot*%
%TF.FilePolarity,Negative*%
%FSLAX46Y46*%
G04 Gerber Fmt 4.6, Leading zero omitted, Abs format (unit mm)*
G04 Created by KiCad (PCBNEW 9.0.2) date 2025-06-30 11:25:16*
%MOMM*%
%LPD*%
G01*
G04 APERTURE LIST*
G04 Aperture macros list*
%AMRoundRect*
0 Rectangle with rounded corners*
0 $1 Rounding radius*
0 $2 $3 $4 $5 $6 $7 $8 $9 X,Y pos of 4 corners*
0 Add a 4 corners polygon primitive as box body*
4,1,4,$2,$3,$4,$5,$6,$7,$8,$9,$2,$3,0*
0 Add four circle primitives for the rounded corners*
1,1,$1+$1,$2,$3*
1,1,$1+$1,$4,$5*
1,1,$1+$1,$6,$7*
1,1,$1+$1,$8,$9*
0 Add four rect primitives between the rounded corners*
20,1,$1+$1,$2,$3,$4,$5,0*
20,1,$1+$1,$4,$5,$6,$7,0*
20,1,$1+$1,$6,$7,$8,$9,0*
20,1,$1+$1,$8,$9,$2,$3,0*%
G04 Aperture macros list end*
%ADD10C,1.400000*%
%ADD11C,1.700000*%
%ADD12C,4.000000*%
%ADD13C,2.200000*%
%ADD14C,2.019000*%
%ADD15RoundRect,0.102000X0.907500X0.907500X-0.907500X0.907500X-0.907500X-0.907500X0.907500X-0.907500X0*%
%ADD16RoundRect,0.102000X-0.907500X0.907500X-0.907500X-0.907500X0.907500X-0.907500X0.907500X0.907500X0*%
%ADD17C,1.524000*%
%ADD18RoundRect,0.102000X-0.907500X-0.907500X0.907500X-0.907500X0.907500X0.907500X-0.907500X0.907500X0*%
G04 APERTURE END LIST*
D10*
%TO.C,R1*%
X209000000Y-81540000D03*
X209000000Y-76460000D03*
%TD*%
D11*
%TO.C,SW3*%
X173290000Y-119330000D03*
D12*
X178370000Y-119330000D03*
D11*
X183450000Y-119330000D03*
D13*
X180910000Y-114250000D03*
X174560000Y-116790000D03*
%TD*%
D14*
%TO.C,D1*%
X200960000Y-78000000D03*
D15*
X203500000Y-78000000D03*
%TD*%
D11*
%TO.C,SW1*%
X173290000Y-99330000D03*
D12*
X178370000Y-99330000D03*
D11*
X183450000Y-99330000D03*
D13*
X180910000Y-94250000D03*
X174560000Y-96790000D03*
%TD*%
D11*
%TO.C,SW2*%
X193140000Y-99290000D03*
D12*
X198220000Y-99290000D03*
D11*
X203300000Y-99290000D03*
D13*
X200760000Y-94210000D03*
X194410000Y-96750000D03*
%TD*%
D10*
%TO.C,R4*%
X203160000Y-69090000D03*
X203160000Y-64010000D03*
%TD*%
D14*
%TO.C,D2*%
X188441291Y-68770000D03*
D16*
X188441291Y-66230000D03*
%TD*%
D10*
%TO.C,R2*%
X185901291Y-63270000D03*
X190981291Y-63270000D03*
%TD*%
%TO.C,R3*%
X168000000Y-81580000D03*
X168000000Y-76500000D03*
%TD*%
D17*
%TO.C,U1*%
X191200000Y-40400000D03*
X191200000Y-42940000D03*
X191200000Y-45480000D03*
X191200000Y-48020000D03*
X191200000Y-50560000D03*
X191200000Y-53100000D03*
X191200000Y-55640000D03*
X206440000Y-55640000D03*
X206440000Y-53100000D03*
X206440000Y-50560000D03*
X206440000Y-48020000D03*
X206440000Y-45480000D03*
X206440000Y-42940000D03*
X206440000Y-40400000D03*
%TD*%
D11*
%TO.C,SW4*%
X193140000Y-119290000D03*
D12*
X198220000Y-119290000D03*
D11*
X203300000Y-119290000D03*
D13*
X200760000Y-114210000D03*
X194410000Y-116750000D03*
%TD*%
D14*
%TO.C,D3*%
X176000000Y-78000000D03*
D18*
X173460000Y-78000000D03*
%TD*%
D14*
%TO.C,D4*%
X208360000Y-66602871D03*
D18*
X205820000Y-66602871D03*
%TD*%
M02*
