%TF.GenerationSoftware,KiCad,Pcbnew,9.0.2*%
%TF.CreationDate,2025-06-30T11:25:01-04:00*%
%TF.ProjectId,magi_controller,6d616769-5f63-46f6-9e74-726f6c6c6572,rev?*%
%TF.SameCoordinates,Original*%
%TF.FileFunction,Copper,L1,Top*%
%TF.FilePolarity,Positive*%
%FSLAX46Y46*%
G04 Gerber Fmt 4.6, Leading zero omitted, Abs format (unit mm)*
G04 Created by KiCad (PCBNEW 9.0.2) date 2025-06-30 11:25:01*
%MOMM*%
%LPD*%
G01*
G04 APERTURE LIST*
G04 Aperture macros list*
%AMRoundRect*
0 Rectangle with rounded corners*
0 $1 Rounding radius*
0 $2 $3 $4 $5 $6 $7 $8 $9 X,Y pos of 4 corners*
0 Add a 4 corners polygon primitive as box body*
4,1,4,$2,$3,$4,$5,$6,$7,$8,$9,$2,$3,0*
0 Add four circle primitives for the rounded corners*
1,1,$1+$1,$2,$3*
1,1,$1+$1,$4,$5*
1,1,$1+$1,$6,$7*
1,1,$1+$1,$8,$9*
0 Add four rect primitives between the rounded corners*
20,1,$1+$1,$2,$3,$4,$5,0*
20,1,$1+$1,$4,$5,$6,$7,0*
20,1,$1+$1,$6,$7,$8,$9,0*
20,1,$1+$1,$8,$9,$2,$3,0*%
G04 Aperture macros list end*
%TA.AperFunction,ComponentPad*%
%ADD10C,1.400000*%
%TD*%
%TA.AperFunction,ComponentPad*%
%ADD11C,2.200000*%
%TD*%
%TA.AperFunction,ComponentPad*%
%ADD12C,1.815000*%
%TD*%
%TA.AperFunction,ComponentPad*%
%ADD13R,1.815000X1.815000*%
%TD*%
%TA.AperFunction,SMDPad,CuDef*%
%ADD14RoundRect,0.152400X1.063600X0.609600X-1.063600X0.609600X-1.063600X-0.609600X1.063600X-0.609600X0*%
%TD*%
%TA.AperFunction,ComponentPad*%
%ADD15C,1.524000*%
%TD*%
%TA.AperFunction,SMDPad,CuDef*%
%ADD16RoundRect,0.152400X-1.063600X-0.609600X1.063600X-0.609600X1.063600X0.609600X-1.063600X0.609600X0*%
%TD*%
%TA.AperFunction,ViaPad*%
%ADD17C,0.600000*%
%TD*%
%TA.AperFunction,Conductor*%
%ADD18C,0.200000*%
%TD*%
G04 APERTURE END LIST*
D10*
%TO.P,R1,1*%
%TO.N,Net-(D1-PadA)*%
X209000000Y-81540000D03*
%TO.P,R1,2*%
%TO.N,led1*%
X209000000Y-76460000D03*
%TD*%
D11*
%TO.P,SW3,1,1*%
%TO.N,button3*%
X180910000Y-114250000D03*
%TO.P,SW3,2,2*%
%TO.N,GND*%
X174560000Y-116790000D03*
%TD*%
D12*
%TO.P,D1,A*%
%TO.N,Net-(D1-PadA)*%
X200960000Y-78000000D03*
D13*
%TO.P,D1,C*%
%TO.N,GND*%
X203500000Y-78000000D03*
%TD*%
D11*
%TO.P,SW1,1,1*%
%TO.N,button1*%
X180910000Y-94250000D03*
%TO.P,SW1,2,2*%
%TO.N,GND*%
X174560000Y-96790000D03*
%TD*%
%TO.P,SW2,1,1*%
%TO.N,button2*%
X200760000Y-94210000D03*
%TO.P,SW2,2,2*%
%TO.N,GND*%
X194410000Y-96750000D03*
%TD*%
D10*
%TO.P,R4,1*%
%TO.N,Net-(D4-PadA)*%
X203160000Y-69090000D03*
%TO.P,R4,2*%
%TO.N,led4*%
X203160000Y-64010000D03*
%TD*%
D12*
%TO.P,D2,A*%
%TO.N,Net-(D2-PadA)*%
X188441291Y-68770000D03*
D13*
%TO.P,D2,C*%
%TO.N,GND*%
X188441291Y-66230000D03*
%TD*%
D10*
%TO.P,R2,1*%
%TO.N,Net-(D2-PadA)*%
X185901291Y-63270000D03*
%TO.P,R2,2*%
%TO.N,led2*%
X190981291Y-63270000D03*
%TD*%
%TO.P,R3,1*%
%TO.N,Net-(D3-PadA)*%
X168000000Y-81580000D03*
%TO.P,R3,2*%
%TO.N,led3*%
X168000000Y-76500000D03*
%TD*%
D14*
%TO.P,U1,1,GPIO26/ADC0/A0*%
%TO.N,button1*%
X190365000Y-40400000D03*
D15*
X191200000Y-40400000D03*
D14*
%TO.P,U1,2,GPIO27/ADC1/A1*%
%TO.N,button2*%
X190365000Y-42940000D03*
D15*
X191200000Y-42940000D03*
D14*
%TO.P,U1,3,GPIO28/ADC2/A2*%
%TO.N,button3*%
X190365000Y-45480000D03*
D15*
X191200000Y-45480000D03*
D14*
%TO.P,U1,4,GPIO29/ADC3/A3*%
%TO.N,button4*%
X190365000Y-48020000D03*
D15*
X191200000Y-48020000D03*
D14*
%TO.P,U1,5,GPIO6/SDA*%
%TO.N,led1*%
X190365000Y-50560000D03*
D15*
X191200000Y-50560000D03*
D14*
%TO.P,U1,6,GPIO7/SCL*%
%TO.N,led2*%
X190365000Y-53100000D03*
D15*
X191200000Y-53100000D03*
D14*
%TO.P,U1,7,GPIO0/TX*%
%TO.N,led3*%
X190365000Y-55640000D03*
D15*
X191200000Y-55640000D03*
%TO.P,U1,8,GPIO1/RX*%
%TO.N,led4*%
X206440000Y-55640000D03*
D16*
X207275000Y-55640000D03*
D15*
%TO.P,U1,9,GPIO2/SCK*%
%TO.N,unconnected-(U1-GPIO2{slash}SCK-Pad9)*%
X206440000Y-53100000D03*
D16*
X207275000Y-53100000D03*
D15*
%TO.P,U1,10,GPIO4/MISO*%
%TO.N,unconnected-(U1-GPIO4{slash}MISO-Pad10)*%
X206440000Y-50560000D03*
D16*
X207275000Y-50560000D03*
D15*
%TO.P,U1,11,GPIO3/MOSI*%
%TO.N,unconnected-(U1-GPIO3{slash}MOSI-Pad11)*%
X206440000Y-48020000D03*
D16*
X207275000Y-48020000D03*
D15*
%TO.P,U1,12,3V3*%
%TO.N,unconnected-(U1-3V3-Pad12)*%
X206440000Y-45480000D03*
D16*
X207275000Y-45480000D03*
D15*
%TO.P,U1,13,GND*%
%TO.N,GND*%
X206440000Y-42940000D03*
D16*
X207275000Y-42940000D03*
D15*
%TO.P,U1,14,VBUS*%
%TO.N,unconnected-(U1-VBUS-Pad14)*%
X206440000Y-40400000D03*
D16*
X207275000Y-40400000D03*
%TD*%
D11*
%TO.P,SW4,1,1*%
%TO.N,button4*%
X200760000Y-114210000D03*
%TO.P,SW4,2,2*%
%TO.N,GND*%
X194410000Y-116750000D03*
%TD*%
D12*
%TO.P,D3,A*%
%TO.N,Net-(D3-PadA)*%
X176000000Y-78000000D03*
D13*
%TO.P,D3,C*%
%TO.N,GND*%
X173460000Y-78000000D03*
%TD*%
D12*
%TO.P,D4,A*%
%TO.N,Net-(D4-PadA)*%
X208360000Y-66602871D03*
D13*
%TO.P,D4,C*%
%TO.N,GND*%
X205820000Y-66602871D03*
%TD*%
D17*
%TO.N,GND*%
X194000000Y-73500000D03*
X197500000Y-77000000D03*
X193500000Y-83000000D03*
X179500000Y-77000000D03*
X183000000Y-73500000D03*
X183500000Y-83000000D03*
%TO.N,led1*%
X198000000Y-71000000D03*
%TO.N,led2*%
X195500000Y-71000000D03*
X191600000Y-60000000D03*
%TO.N,led3*%
X189250000Y-59220000D03*
X187769750Y-60687868D03*
X179200000Y-71400000D03*
%TO.N,button1*%
X177748744Y-73511759D03*
X184340365Y-57955859D03*
%TO.N,button2*%
X185580000Y-58310000D03*
X198600000Y-67500000D03*
X192400003Y-60000000D03*
X200370000Y-73360000D03*
%TO.N,button3*%
X184450000Y-84040000D03*
X184830039Y-58588491D03*
%TO.N,button4*%
X198555735Y-72394265D03*
X194902425Y-73446103D03*
X192560000Y-82100000D03*
X199470000Y-64680000D03*
X196349265Y-73499265D03*
X196010000Y-76990000D03*
X183565735Y-58155735D03*
X192560000Y-83910000D03*
X199434265Y-66414265D03*
X199384265Y-71525735D03*
%TD*%
D18*
%TO.N,button1*%
X166240000Y-74645539D02*
X166319330Y-74480808D01*
X172120000Y-85680000D02*
X166240000Y-85680000D01*
X172170000Y-85730000D02*
X172120000Y-85680000D01*
X166240000Y-85680000D02*
X166240000Y-74645539D01*
X166319330Y-74480808D02*
X166789635Y-74010503D01*
X166789635Y-74010503D02*
X177250000Y-74010503D01*
%TO.N,button2*%
X210660000Y-85460000D02*
X210949000Y-85171000D01*
X210949000Y-85171000D02*
X210949000Y-74240000D01*
X210949000Y-74240000D02*
X201250000Y-74240000D01*
X197060000Y-85790000D02*
X197230000Y-85620000D01*
X197230000Y-85620000D02*
X210660000Y-85620000D01*
X210660000Y-85620000D02*
X210660000Y-85460000D01*
%TO.N,Net-(D1-PadA)*%
X194000000Y-81000000D02*
X193500000Y-81500000D01*
X199000000Y-80000000D02*
X194000000Y-80000000D01*
X200960000Y-78000000D02*
X196500000Y-78000000D01*
X198000000Y-79000000D02*
X195000000Y-79000000D01*
X205500000Y-80000000D02*
X205000000Y-80500000D01*
X206500000Y-81540000D02*
X207000000Y-81540000D01*
X194500000Y-79500000D02*
X198500000Y-79500000D01*
X207000000Y-75500000D02*
X207500000Y-75000000D01*
X205500000Y-81540000D02*
X206000000Y-81540000D01*
X194000000Y-80000000D02*
X193500000Y-80500000D01*
X198500000Y-79500000D02*
X199000000Y-80000000D01*
X205500000Y-81540000D02*
X205500000Y-80000000D01*
X196500000Y-78000000D02*
X196000000Y-78500000D01*
X207500000Y-81540000D02*
X209000000Y-81540000D01*
X198500000Y-78500000D02*
X198000000Y-79000000D01*
X205000000Y-81040000D02*
X204500000Y-81540000D01*
X196000000Y-78500000D02*
X198500000Y-78500000D01*
X206000000Y-81540000D02*
X206000000Y-77000000D01*
X206500000Y-76500000D02*
X206500000Y-81540000D01*
X193500000Y-80500000D02*
X199500000Y-80500000D01*
X207500000Y-75000000D02*
X207500000Y-81540000D01*
X199500000Y-80500000D02*
X200000000Y-81000000D01*
X206000000Y-77000000D02*
X206500000Y-76500000D01*
X207000000Y-81540000D02*
X207000000Y-75500000D01*
X200000000Y-81000000D02*
X194000000Y-81000000D01*
X205000000Y-80500000D02*
X205000000Y-81040000D01*
X195000000Y-79000000D02*
X194500000Y-79500000D01*
X193540000Y-81540000D02*
X204500000Y-81540000D01*
X193500000Y-81500000D02*
X193540000Y-81540000D01*
%TO.N,GND*%
X197500000Y-77000000D02*
X194000000Y-73500000D01*
X179500000Y-77000000D02*
X183000000Y-73500000D01*
X193500000Y-83000000D02*
X183500000Y-83000000D01*
%TO.N,Net-(D2-PadA)*%
X185000000Y-65500000D02*
X184500000Y-66000000D01*
X180500000Y-62500000D02*
X184000000Y-62500000D01*
X184631291Y-62000000D02*
X184500000Y-62000000D01*
X185000000Y-65000000D02*
X180500000Y-65000000D01*
X180000000Y-69000000D02*
X180500000Y-69500000D01*
X180000000Y-65500000D02*
X185000000Y-65500000D01*
X185000000Y-69500000D02*
X185730000Y-68770000D01*
X185901291Y-63270000D02*
X184631291Y-62000000D01*
X184500000Y-64500000D02*
X185000000Y-65000000D01*
X180000000Y-66000000D02*
X180500000Y-66500000D01*
X180000000Y-62000000D02*
X180500000Y-62500000D01*
X180000000Y-62000000D02*
X180219357Y-62000000D01*
X180500000Y-63000000D02*
X180000000Y-63500000D01*
X180500000Y-65000000D02*
X180000000Y-65500000D01*
X185000000Y-68000000D02*
X180000000Y-68000000D01*
X180500000Y-64500000D02*
X184500000Y-64500000D01*
X184500000Y-63000000D02*
X180500000Y-63000000D01*
X180000000Y-64000000D02*
X180500000Y-64500000D01*
X180500000Y-69500000D02*
X185000000Y-69500000D01*
X184500000Y-67500000D02*
X185000000Y-68000000D01*
X180000000Y-63500000D02*
X184500000Y-63500000D01*
X184500000Y-66000000D02*
X180000000Y-66000000D01*
X184500000Y-67000000D02*
X180500000Y-67000000D01*
X180500000Y-68500000D02*
X185000000Y-68500000D01*
X180000000Y-68000000D02*
X180500000Y-68500000D01*
X184000000Y-62500000D02*
X184500000Y-63000000D01*
X180500000Y-67000000D02*
X180000000Y-67500000D01*
X185730000Y-68770000D02*
X188441291Y-68770000D01*
X184000000Y-64000000D02*
X180000000Y-64000000D01*
X184500000Y-63500000D02*
X184000000Y-64000000D01*
X185000000Y-68500000D02*
X184500000Y-69000000D01*
X184500000Y-69000000D02*
X180000000Y-69000000D01*
X180500000Y-66500000D02*
X185000000Y-66500000D01*
X184500000Y-62000000D02*
X180000000Y-62000000D01*
X185000000Y-66500000D02*
X184500000Y-67000000D01*
X180000000Y-67500000D02*
X184500000Y-67500000D01*
%TO.N,Net-(D3-PadA)*%
X170000000Y-81580000D02*
X170500000Y-81580000D01*
X178500000Y-79000000D02*
X179000000Y-78500000D01*
X178000000Y-81000000D02*
X177500000Y-80500000D01*
X172000000Y-80500000D02*
X172000000Y-81080000D01*
X179000000Y-78500000D02*
X181000000Y-78500000D01*
X170000000Y-76500000D02*
X170000000Y-81580000D01*
X178500000Y-79500000D02*
X182000000Y-79500000D01*
X182420000Y-81580000D02*
X183000000Y-81000000D01*
X169500000Y-81580000D02*
X169500000Y-76000000D01*
X172500000Y-81580000D02*
X182420000Y-81580000D01*
X171000000Y-81580000D02*
X171500000Y-81580000D01*
X182500000Y-80000000D02*
X178000000Y-80000000D01*
X183000000Y-80500000D02*
X182500000Y-80000000D01*
X181000000Y-78500000D02*
X180500000Y-78000000D01*
X178000000Y-80000000D02*
X178500000Y-79500000D01*
X168000000Y-81580000D02*
X169500000Y-81580000D01*
X171500000Y-81580000D02*
X171500000Y-80000000D01*
X180500000Y-78000000D02*
X176000000Y-78000000D01*
X170500000Y-81580000D02*
X170500000Y-77000000D01*
X169500000Y-76000000D02*
X170000000Y-76500000D01*
X171000000Y-77500000D02*
X171000000Y-81580000D01*
X171500000Y-80000000D02*
X172000000Y-80500000D01*
X177500000Y-80500000D02*
X183000000Y-80500000D01*
X182000000Y-79500000D02*
X181500000Y-79000000D01*
X183000000Y-81000000D02*
X178000000Y-81000000D01*
X181500000Y-79000000D02*
X178500000Y-79000000D01*
X170500000Y-77000000D02*
X171000000Y-77500000D01*
X172000000Y-81080000D02*
X172500000Y-81580000D01*
%TO.N,led1*%
X187358000Y-58745043D02*
X187358000Y-52342000D01*
X198000000Y-60800000D02*
X197800000Y-60600000D01*
X189140000Y-50560000D02*
X191200000Y-50560000D01*
X198000000Y-71000000D02*
X198000000Y-60800000D01*
X189212957Y-60600000D02*
X187358000Y-58745043D01*
X197800000Y-60600000D02*
X189212957Y-60600000D01*
X187358000Y-52342000D02*
X189140000Y-50560000D01*
%TO.N,led2*%
X193000000Y-67000000D02*
X196500000Y-67000000D01*
X191500000Y-69500000D02*
X191000000Y-70000000D01*
X195477739Y-71022261D02*
X195500000Y-71000000D01*
X197000000Y-63500000D02*
X196500000Y-63000000D01*
X196500000Y-67000000D02*
X197000000Y-67500000D01*
X197000000Y-66000000D02*
X192000000Y-66000000D01*
X196500000Y-65000000D02*
X191000000Y-65000000D01*
X191500000Y-65500000D02*
X197000000Y-65500000D01*
X196500000Y-70500000D02*
X190500000Y-70500000D01*
X191500000Y-64500000D02*
X196500000Y-64500000D01*
X197000000Y-68000000D02*
X196500000Y-68500000D01*
X191000000Y-71000000D02*
X191022261Y-71022261D01*
X193000000Y-67500000D02*
X193500000Y-68000000D01*
X196500000Y-68500000D02*
X192000000Y-68500000D01*
X191000000Y-65000000D02*
X191500000Y-64500000D01*
X192000000Y-68500000D02*
X191500000Y-69000000D01*
X192000000Y-66000000D02*
X191500000Y-65500000D01*
X196500000Y-69000000D02*
X197000000Y-69500000D01*
X197000000Y-62000000D02*
X192251291Y-62000000D01*
X191401000Y-60199000D02*
X189379057Y-60199000D01*
X197000000Y-64000000D02*
X194000000Y-64000000D01*
X191000000Y-70000000D02*
X197000000Y-70000000D01*
X194500000Y-63500000D02*
X197000000Y-63500000D01*
X190500000Y-70500000D02*
X191000000Y-71000000D01*
X191022261Y-71022261D02*
X195477739Y-71022261D01*
X193500000Y-68000000D02*
X197000000Y-68000000D01*
X197000000Y-67500000D02*
X193000000Y-67500000D01*
X188950000Y-53100000D02*
X191200000Y-53100000D01*
X197000000Y-70000000D02*
X196500000Y-70500000D01*
X187759000Y-54291000D02*
X188950000Y-53100000D01*
X189379057Y-60199000D02*
X187759000Y-58578943D01*
X187759000Y-58578943D02*
X187759000Y-54291000D01*
X193500000Y-66500000D02*
X196500000Y-66500000D01*
X193000000Y-67000000D02*
X193500000Y-66500000D01*
X194000000Y-62500000D02*
X196500000Y-62500000D01*
X191500000Y-69000000D02*
X196500000Y-69000000D01*
X196500000Y-66500000D02*
X197000000Y-66000000D01*
X191600000Y-60000000D02*
X191401000Y-60199000D01*
X197000000Y-65500000D02*
X196500000Y-65000000D01*
X194500000Y-63000000D02*
X194000000Y-62500000D01*
X192251291Y-62000000D02*
X190981291Y-63270000D01*
X197000000Y-69500000D02*
X191500000Y-69500000D01*
X196500000Y-64500000D02*
X197000000Y-64000000D01*
X196500000Y-62500000D02*
X197000000Y-62000000D01*
X194000000Y-64000000D02*
X194500000Y-63500000D01*
X196500000Y-63000000D02*
X194500000Y-63000000D01*
%TO.N,led3*%
X188190000Y-58440000D02*
X188190000Y-57110000D01*
X189250000Y-59220000D02*
X188970000Y-59220000D01*
X189600000Y-55640000D02*
X191200000Y-55640000D01*
X188160000Y-57080000D02*
X189600000Y-55640000D01*
X179200000Y-61160000D02*
X179672132Y-60687868D01*
X188190000Y-57110000D02*
X188160000Y-57080000D01*
X179200000Y-71400000D02*
X179200000Y-61160000D01*
X188970000Y-59220000D02*
X188190000Y-58440000D01*
X179672132Y-60687868D02*
X187769750Y-60687868D01*
%TO.N,button1*%
X184340365Y-57955859D02*
X184614141Y-57955859D01*
X185408000Y-57162000D02*
X185408000Y-49060170D01*
X185408000Y-49060170D02*
X188209000Y-46259170D01*
X188470000Y-44025270D02*
X188470000Y-42295000D01*
X172390000Y-85730000D02*
X172170000Y-85730000D01*
X190365000Y-40400000D02*
X191200000Y-40400000D01*
X188470000Y-42295000D02*
X190365000Y-40400000D01*
X188209000Y-44286270D02*
X188470000Y-44025270D01*
X177250000Y-74040000D02*
X177250000Y-74010503D01*
X177250000Y-74010503D02*
X177748744Y-73511759D01*
X180910000Y-94250000D02*
X172390000Y-85730000D01*
X188209000Y-46259170D02*
X188209000Y-44286270D01*
X184614141Y-57955859D02*
X185408000Y-57162000D01*
%TO.N,button2*%
X188610000Y-44452370D02*
X190122370Y-42940000D01*
X198600000Y-60832900D02*
X197767100Y-60000000D01*
X198600000Y-67500000D02*
X198600000Y-60832900D01*
X190122370Y-42940000D02*
X191200000Y-42940000D01*
X197767100Y-60000000D02*
X192400003Y-60000000D01*
X185580000Y-58310000D02*
X185809000Y-58081000D01*
X185809000Y-58081000D02*
X185809000Y-49226270D01*
X188610000Y-46425270D02*
X188610000Y-44452370D01*
X185809000Y-49226270D02*
X188610000Y-46425270D01*
%TO.N,button3*%
X180910000Y-114250000D02*
X180910000Y-96231314D01*
X182311000Y-93601000D02*
X174460000Y-85750000D01*
X184290000Y-85750000D02*
X184320000Y-85720000D01*
X186210000Y-49392370D02*
X190122370Y-45480000D01*
X184830039Y-58588491D02*
X185152548Y-58911000D01*
X184320000Y-85720000D02*
X184320000Y-84170000D01*
X190122370Y-45480000D02*
X191200000Y-45480000D01*
X185152548Y-58911000D02*
X185828943Y-58911000D01*
X186210000Y-58529943D02*
X186210000Y-49392370D01*
X182311000Y-94830314D02*
X182311000Y-93601000D01*
X174460000Y-85750000D02*
X184290000Y-85750000D01*
X184320000Y-84170000D02*
X184450000Y-84040000D01*
X185828943Y-58911000D02*
X186210000Y-58529943D01*
X180910000Y-96231314D02*
X182311000Y-94830314D01*
%TO.N,button4*%
X186611000Y-58696043D02*
X186611000Y-49558470D01*
X200359000Y-92660000D02*
X200359000Y-89799000D01*
X200760000Y-96191314D02*
X199359000Y-94790314D01*
X196420000Y-85860000D02*
X192570000Y-85860000D01*
X185995043Y-59312000D02*
X186611000Y-58696043D01*
X196296103Y-73446103D02*
X196349265Y-73499265D01*
X198555735Y-72354265D02*
X199384265Y-71525735D01*
X192560000Y-85870000D02*
X192560000Y-83910000D01*
X200760000Y-114210000D02*
X200760000Y-96191314D01*
X199434265Y-66414265D02*
X199434265Y-64715735D01*
X188149470Y-48020000D02*
X191200000Y-48020000D01*
X184703605Y-59312000D02*
X185995043Y-59312000D01*
X183565735Y-58174130D02*
X184703605Y-59312000D01*
X183565735Y-58155735D02*
X183565735Y-58174130D01*
X199359000Y-93629686D02*
X200328686Y-92660000D01*
X198555735Y-72394265D02*
X198555735Y-72354265D01*
X192560000Y-80440000D02*
X196010000Y-76990000D01*
X199359000Y-94790314D02*
X199359000Y-93629686D01*
X194902425Y-73446103D02*
X196296103Y-73446103D01*
X199434265Y-64715735D02*
X199470000Y-64680000D01*
X192570000Y-85860000D02*
X192560000Y-85870000D01*
X200359000Y-89799000D02*
X196420000Y-85860000D01*
X192560000Y-82100000D02*
X192560000Y-80440000D01*
X186611000Y-49558470D02*
X188149470Y-48020000D01*
X200328686Y-92660000D02*
X200359000Y-92660000D01*
%TO.N,button2*%
X201250000Y-74240000D02*
X200370000Y-73360000D01*
X197060000Y-85790000D02*
X197110000Y-85840000D01*
X200760000Y-89490000D02*
X197060000Y-85790000D01*
X200760000Y-94210000D02*
X200760000Y-89490000D01*
%TD*%
M02*
